<mxfile host="app.diagrams.net" modified="2024-06-17T09:33:37.689Z" agent="Mozilla/5.0 (X11; Linux x86_64) AppleWebKit/537.36 (KHTML, like Gecko) Chrome/124.0.0.0 Safari/537.36" etag="uGWMsHorblapfAHt1z2i" version="24.5.4" type="device">
  <diagram name="Page-1" id="1eVAnnuIuG-yEb96EU71">
    <mxGraphModel dx="926" dy="2061" grid="1" gridSize="10" guides="1" tooltips="1" connect="1" arrows="1" fold="1" page="1" pageScale="1" pageWidth="827" pageHeight="1169" math="0" shadow="0">
      <root>
        <mxCell id="0" />
        <mxCell id="1" parent="0" />
        <mxCell id="zNm0QSZDJS1atimLN_gq-109" value="" style="rounded=1;whiteSpace=wrap;html=1;fillColor=#b3cee5;opacity=60;strokeColor=none;" parent="1" vertex="1">
          <mxGeometry x="140" y="620" width="611" height="280" as="geometry" />
        </mxCell>
        <mxCell id="zNm0QSZDJS1atimLN_gq-57" value="" style="rounded=1;whiteSpace=wrap;html=1;fillColor=#ffcc99;opacity=60;strokeColor=none;" parent="1" vertex="1">
          <mxGeometry x="139" y="413" width="611" height="170" as="geometry" />
        </mxCell>
        <mxCell id="zNm0QSZDJS1atimLN_gq-45" value="" style="rounded=1;whiteSpace=wrap;html=1;fillColor=#C8A2C8;opacity=60;strokeColor=none;" parent="1" vertex="1">
          <mxGeometry x="480" y="130" width="270" height="240" as="geometry" />
        </mxCell>
        <mxCell id="zNm0QSZDJS1atimLN_gq-41" value="" style="rounded=1;whiteSpace=wrap;html=1;fillColor=#C8A2C8;opacity=60;strokeColor=none;" parent="1" vertex="1">
          <mxGeometry x="324" y="130" width="130" height="240" as="geometry" />
        </mxCell>
        <mxCell id="zNm0QSZDJS1atimLN_gq-1" value="" style="rounded=1;whiteSpace=wrap;html=1;fillColor=#C8A2C8;opacity=60;strokeColor=none;" parent="1" vertex="1">
          <mxGeometry x="140" y="130" width="140" height="240" as="geometry" />
        </mxCell>
        <mxCell id="zNm0QSZDJS1atimLN_gq-12" style="edgeStyle=orthogonalEdgeStyle;rounded=0;orthogonalLoop=1;jettySize=auto;html=1;exitX=0.5;exitY=1;exitDx=0;exitDy=0;entryX=0.5;entryY=0;entryDx=0;entryDy=0;" parent="1" source="zNm0QSZDJS1atimLN_gq-2" target="zNm0QSZDJS1atimLN_gq-3" edge="1">
          <mxGeometry relative="1" as="geometry" />
        </mxCell>
        <mxCell id="zNm0QSZDJS1atimLN_gq-2" value="Inform authors" style="rounded=1;whiteSpace=wrap;html=1;" parent="1" vertex="1">
          <mxGeometry x="164" y="180" width="90" height="30" as="geometry" />
        </mxCell>
        <mxCell id="zNm0QSZDJS1atimLN_gq-13" style="edgeStyle=orthogonalEdgeStyle;rounded=0;orthogonalLoop=1;jettySize=auto;html=1;exitX=0.5;exitY=1;exitDx=0;exitDy=0;entryX=0.5;entryY=0;entryDx=0;entryDy=0;" parent="1" source="zNm0QSZDJS1atimLN_gq-3" target="zNm0QSZDJS1atimLN_gq-4" edge="1">
          <mxGeometry relative="1" as="geometry" />
        </mxCell>
        <mxCell id="zNm0QSZDJS1atimLN_gq-3" value="Set up repository using template" style="rounded=1;whiteSpace=wrap;html=1;" parent="1" vertex="1">
          <mxGeometry x="154" y="235" width="110" height="40" as="geometry" />
        </mxCell>
        <mxCell id="zNm0QSZDJS1atimLN_gq-16" style="edgeStyle=orthogonalEdgeStyle;rounded=0;orthogonalLoop=1;jettySize=auto;html=1;exitX=1;exitY=0.5;exitDx=0;exitDy=0;entryX=0;entryY=0.5;entryDx=0;entryDy=0;" parent="1" source="zNm0QSZDJS1atimLN_gq-4" target="zNm0QSZDJS1atimLN_gq-6" edge="1">
          <mxGeometry relative="1" as="geometry" />
        </mxCell>
        <mxCell id="zNm0QSZDJS1atimLN_gq-4" value="Get article and code" style="rounded=1;whiteSpace=wrap;html=1;" parent="1" vertex="1">
          <mxGeometry x="149" y="305" width="120" height="30" as="geometry" />
        </mxCell>
        <mxCell id="zNm0QSZDJS1atimLN_gq-18" style="edgeStyle=orthogonalEdgeStyle;rounded=0;orthogonalLoop=1;jettySize=auto;html=1;exitX=0.5;exitY=1;exitDx=0;exitDy=0;entryX=0.5;entryY=0;entryDx=0;entryDy=0;" parent="1" source="zNm0QSZDJS1atimLN_gq-6" target="zNm0QSZDJS1atimLN_gq-7" edge="1">
          <mxGeometry relative="1" as="geometry" />
        </mxCell>
        <mxCell id="zNm0QSZDJS1atimLN_gq-6" value="Read article" style="rounded=1;whiteSpace=wrap;html=1;" parent="1" vertex="1">
          <mxGeometry x="345" y="180" width="90" height="30" as="geometry" />
        </mxCell>
        <mxCell id="zNm0QSZDJS1atimLN_gq-19" style="edgeStyle=orthogonalEdgeStyle;rounded=0;orthogonalLoop=1;jettySize=auto;html=1;exitX=0.5;exitY=1;exitDx=0;exitDy=0;entryX=0.5;entryY=0;entryDx=0;entryDy=0;" parent="1" source="zNm0QSZDJS1atimLN_gq-7" target="zNm0QSZDJS1atimLN_gq-8" edge="1">
          <mxGeometry relative="1" as="geometry" />
        </mxCell>
        <mxCell id="zNm0QSZDJS1atimLN_gq-21" style="edgeStyle=orthogonalEdgeStyle;rounded=0;orthogonalLoop=1;jettySize=auto;html=1;exitX=1;exitY=0.5;exitDx=0;exitDy=0;entryX=0;entryY=0.5;entryDx=0;entryDy=0;" parent="1" source="zNm0QSZDJS1atimLN_gq-7" target="zNm0QSZDJS1atimLN_gq-9" edge="1">
          <mxGeometry relative="1" as="geometry" />
        </mxCell>
        <mxCell id="zNm0QSZDJS1atimLN_gq-7" value="Define scope of reproduction" style="rounded=1;whiteSpace=wrap;html=1;" parent="1" vertex="1">
          <mxGeometry x="340" y="235" width="100" height="40" as="geometry" />
        </mxCell>
        <mxCell id="zNm0QSZDJS1atimLN_gq-8" value="Archive on Zenodo" style="rounded=1;whiteSpace=wrap;html=1;" parent="1" vertex="1">
          <mxGeometry x="334" y="305" width="110" height="30" as="geometry" />
        </mxCell>
        <mxCell id="zNm0QSZDJS1atimLN_gq-20" style="edgeStyle=orthogonalEdgeStyle;rounded=0;orthogonalLoop=1;jettySize=auto;html=1;exitX=0.5;exitY=1;exitDx=0;exitDy=0;entryX=0.5;entryY=0;entryDx=0;entryDy=0;" parent="1" source="zNm0QSZDJS1atimLN_gq-9" target="zNm0QSZDJS1atimLN_gq-10" edge="1">
          <mxGeometry relative="1" as="geometry" />
        </mxCell>
        <mxCell id="zNm0QSZDJS1atimLN_gq-9" value="Look at code" style="rounded=1;whiteSpace=wrap;html=1;" parent="1" vertex="1">
          <mxGeometry x="570" y="180" width="90" height="30" as="geometry" />
        </mxCell>
        <mxCell id="zNm0QSZDJS1atimLN_gq-22" style="edgeStyle=orthogonalEdgeStyle;rounded=0;orthogonalLoop=1;jettySize=auto;html=1;exitX=0.5;exitY=1;exitDx=0;exitDy=0;entryX=0.5;entryY=0;entryDx=0;entryDy=0;" parent="1" source="zNm0QSZDJS1atimLN_gq-10" target="zNm0QSZDJS1atimLN_gq-11" edge="1">
          <mxGeometry relative="1" as="geometry" />
        </mxCell>
        <mxCell id="zNm0QSZDJS1atimLN_gq-10" value="Make environment" style="rounded=1;whiteSpace=wrap;html=1;" parent="1" vertex="1">
          <mxGeometry x="560" y="240" width="110" height="30" as="geometry" />
        </mxCell>
        <mxCell id="zNm0QSZDJS1atimLN_gq-11" value="Attempt to reproduce&lt;div&gt;• Troubleshoot issues (e.g. modify code)&lt;/div&gt;&lt;div&gt;• Evaluate whether successfully reproduced&lt;br&gt;&lt;/div&gt;" style="rounded=1;whiteSpace=wrap;html=1;" parent="1" vertex="1">
          <mxGeometry x="492" y="290" width="246" height="60" as="geometry" />
        </mxCell>
        <mxCell id="zNm0QSZDJS1atimLN_gq-42" value="Set-up" style="text;html=1;align=center;verticalAlign=middle;whiteSpace=wrap;rounded=0;fontStyle=1" parent="1" vertex="1">
          <mxGeometry x="179" y="140" width="60" height="30" as="geometry" />
        </mxCell>
        <mxCell id="zNm0QSZDJS1atimLN_gq-43" value="Scope" style="text;html=1;align=center;verticalAlign=middle;whiteSpace=wrap;rounded=0;fontStyle=1" parent="1" vertex="1">
          <mxGeometry x="360" y="140" width="60" height="30" as="geometry" />
        </mxCell>
        <mxCell id="zNm0QSZDJS1atimLN_gq-44" value="Run model" style="text;html=1;align=center;verticalAlign=middle;whiteSpace=wrap;rounded=0;fontStyle=1" parent="1" vertex="1">
          <mxGeometry x="576.5" y="140" width="77" height="30" as="geometry" />
        </mxCell>
        <mxCell id="zNm0QSZDJS1atimLN_gq-47" value="&lt;h1 style=&quot;margin-top: 0px;&quot;&gt;Computational Reproducibility Assessment&lt;/h1&gt;" style="text;html=1;whiteSpace=wrap;overflow=hidden;rounded=0;fontColor=#000000;align=center;" parent="1" vertex="1">
          <mxGeometry x="114" y="-10" width="676" height="40" as="geometry" />
        </mxCell>
        <mxCell id="zNm0QSZDJS1atimLN_gq-49" value="&lt;h3&gt;Stage 1: Reproduction&lt;/h3&gt;" style="text;html=1;align=center;verticalAlign=middle;whiteSpace=wrap;rounded=0;rotation=0;strokeColor=none;fontColor=#000000;" parent="1" vertex="1">
          <mxGeometry x="139" y="100" width="180" height="30" as="geometry" />
        </mxCell>
        <mxCell id="zNm0QSZDJS1atimLN_gq-55" value="" style="shape=image;imageAspect=0;aspect=fixed;verticalLabelPosition=bottom;verticalAlign=top;image=data:image/png,iVBORw0KGgoAAAANSUhEUgAAAgAAAAF+BAMAAAAGlr/lAAAABGdBTUEAALGPC/xhBQAAAAFzUkdCAK7OHOkAAAAYUExURQAAAAAAAAAAAAAAAAAAAAAAAAAAAAAAAFY3HCoAAAAIdFJOU/8ACSNilMnnf6FkIwAACPxJREFUeNrs3E1PGlEYhuGnOsDWlwHdOqHVLWNVtlBruwXpx1ZNu59YTf9+U6sW0E5STpyc43vf22d3RZkvBtlKg7cvugNbSbbY4ZdKL7zO95N/AvS+ykU3k6cBjio5qTN/CuBIjpo/BngjV52tAvQquaozWQboTuWsVrEEMJK7fiwC5HJYuQAwlsOyvwA9uWzyADCUyzbvAXI5rbwD2JPTLu8ApnJa6w9ALreVtwD7ctvVLcBYbsvMZF05rjBZX46bmWxXjtsw2ViOy0xWyXEdUy7XlerLdTNty3UX2pXrNjSW6zIApnJdS+dyXVuVXNcRERFR1HWqgDH9bk7MBqfrjvmpEu+b3fa6ChhT7rruS1zZGmNitQu7b1g3jurHdJvZQ3kVMKZayxYaBYypdmkL5QFjqpW22DhgTLPMltoOGNNsw5bqrT3mSrOJLVdpodn/jOdKstKWGweMKdaxlYYBY4q1bKWttccdpVhmK22HjekD9APGFNu0lfoBoy+A7NHIvwAfgr4Pg1ucCL2IU+Gph1Ph2uudgNHF5XD9mP6n4H7duFM7ckss0a5soTxgTLV23aGsXawxptZZ3eONyzXG1GqXdt84YEy4zPnDUem6sN8dBYyJ1zopbPBh/ZFv2BARERERERERERER0RMV5qU+AAAAAAAAAAAAAAAAAAAAAAAAAAAAAAAAAAAAAAAAAAAAAAAAAAAAAAAAAAAAAAAAAAAAAAAAAADOAQ4/x9a7JgG6HxVf8wYBRoqxWWMAPUVZu2gKYKg4mzUE0K0UZ1lDAD3FWtEMwJZibdIMwFCxdtEMwFSx9so7wIZ3gE3+AhoBGCvWXnEUaARgR7E2cX4m2OFagKvBZgByRVnLmgKwY8XYpDkAi/KeoO+7wp8OeC4AAAAAAAAAAAAAAAAAAAAAAAAAAAAAAAAAAAAAAAAAAAAAAAAAAAAAAAAAAAAAAAAAAAAAAAAAAEAowOD9M1bGD3CsZ20eO8CenrmzuAHyKvbfQ0n/tbmrqAHO438FLv1XZ0tbt+7pz1/tnUFv20YQhaemKF49omRfRaRxrmbSoFcSAdor2bTuVVLR9mpXSX5/AbdW6IH1weCaREbLdzQWMPlpd9/w7XL55YP/l6e32lcVzKKOXp8/0z46OFRWej9AYdZ3AGzkXnvvR2jMAieyuTMA4TZgx2cdWw+wF7eNFIA8KHE+CSbaS7khOAiAtYygO+2l5RgAVt/waQirMQAsZHhlhfbS+TAAxp8EklAXlDMHh6qGjYD3f3/5FX6bu267IgzAmF2AC1mbyn06btEttAsGkDcyqNLiudN9q491a/tQbjK23gDsM/dfAwp6rO2EqZ2fbaBwDRmbk3UBvtb62OxkiOxPC8BiY8NDewtz84esPCkAV0fs/sL+fQ3G6gcA5fKpHmTu1/pV7RcA5fIZ10GNGFQeAXAhdqRA2aoFIO3JAKiOAtjYu21guckHAL5Om/2ZEW9Y7T0BYAs8MrJzc9Umws9KlwB4aToxk4OZG89NY48AeGl6+/QdpAYJWKE3ANewhnhp6yB7Am7qH8ASwuMOnOQIr9Y9gMr2aY5D7IiZF94A8DXOIA55ejvT3jeARQMzQLcOqo1rghW6AnBlfk6IQ47dVuIRAAxoiENg2vAK4Bo205k4BIzDL4ClsKnbOASs0B8A7su27k145LgEwBZo4xD8POAfrgCwBWIcAlboBwBbINdBYIWOAPBAhjiEdrXUjgCwBVIcQlboCABbIMUhaIV+ALAFUhzCI8gNALZAikPYCr0AYAvkZSG2Qg8A2AKtKv7o2muwQgbgwAKhDAAr9APgDVggxCFsJIkjAA1YIMQh7CRZ4QZA/kTfxVbPG0m1GwAra4HQw00cQlZ45wbAhbFAaGXGCFph4gbAOVgg7pJlK5z5BFAE7ZJtfAIAD4Q4hJ3QE4BLqIKgDoI2zuaAFdTBsEtWlavh77zWASU0Mg3IBKR1A0A3UAhQHMJPxKUfANdQCkIcwoXgzNPTIORhsCzEoVIbBGDxro/eDpCIUhzCuWgIgO830kufywECAYhDKA4IAbAMeBdkuFURroN4bYQBsJ1YsfYDhIIQh0AkGADgSvorKweKhS0ctsCdhgBoRjsbgxcGeFmIJ5EQAPl4r4Xz0hDHIbwwFALgQoJUDGCFWAexBY5/iEo9QDaOcQhb4PjnB7QDrI5gHMIWOP4JEtsXWx/jXbJsgeMDgAsMsEKIQ2Bd1BEAtkKIQ3DycDQE2AphWYgt0NkkyFZo0fSwwHEPUSkHWCamMoBLyPEPUckG2CgAcQhYoJdSmK0Q4hCwwPBDVMafAvgHvTZxCHWZcACrUY9LZfql8rLQxvz3QADhRrh74Q2Drb3PlluHAQg/V/fTS2fkCe+SveQ4uS8AzW/6OQAcjwIi+inFIZZW7fLVWbbCOcchFVigIwDkbFwHNWCBbgDwhfIu2QYs0AsAtsLMvjRsAIAFegHAVjjnOKQCC/QCgK1wxnHIGizQCwC2wjOOQ1ZggV4AsBXWHIfkZnJ0CICtcK7KcUgFFugDAF/sDl4a7rLZq1cAbIVpYeMQaHdiABY/iXwuIQ4x7VwCYL16+7xdsvmhnXsAAbtkTxYA1EFRAqhjBcAXG88ckGlsAIwNphEAwCtPIgWQGxOIB4B95CliAQCPPHEC0J/NI08EAOCRJxYA9pFn+uzuBGACMAGYAEwAJgATgAnABGACMAGYAEwAJgATgAlACIDbuAFksokbwFwas+/q9MTn0Yn5Tl8cWsuDZl0AW41FVQfAmnfZ+xefRnYmF+bw0Ri07PR66VriLroRIK3k8lXzMrYOIKXorXxVGgOB5UYOylS0ko6y305eN9LRTEXXErHOVHQlEatV0YVErEJFtZJoNVMV1TcSrf65B5BLtCrvAWgjkSrV/wBcSaTa/Q8gj3gEqJh372NSog8AlhKl6gMArSItAg4AcolQZQeA/ijRaa9dAItGIlNaPAKgy1uJSlmtjwHoa4lKv6gFoO8lIn1UA+CeQDSjIPuoTwHQ/HeJQOZ9C9Gufrg5+V6Q/flBuxI1evXOi17m0xf/AmIkv67wjovcAAAAAElFTkSuQmCC;" parent="1" vertex="1">
          <mxGeometry x="239" y="437" width="53.61" height="40" as="geometry" />
        </mxCell>
        <mxCell id="zNm0QSZDJS1atimLN_gq-56" value="" style="shape=image;imageAspect=0;aspect=fixed;verticalLabelPosition=bottom;verticalAlign=top;image=data:image/png,iVBORw0KGgoAAAANSUhEUgAAAgAAAAIABAMAAAAGVsnJAAAAJ1BMVEVHcEwAAAAAAAAAAAAAAAAAAAAAAAAAAAAAAAAAAAAAAAAAAAAAAAB+jSoGAAAADHRSTlMACSItSmp1lrvE6PawVMq8AAAIcklEQVR42u3cz2tcZRvG8fvMTJLa1UjT1/e172JwIaJdjIiINoupBlzYxYiIFbJIEVQkixRaRMmiFQoKWaRuRJhFW0FFZqFWsUgWYjJJZnL9UW4yYeQGM87peX70ur7/QT/cPXPy3JzHpmrxg0/6CN93b1kSFZcRq6uWQGd7iNawZdFr9BGxHYtdo4eotS1utU3EbdfidgGx61jM5gBQj8AaQD0CpwDuEdhACnW5ngC+gcVqCaAegdo20mjP4vQYUmnVonQJoB6Boo9kWuf6DfDtW4TOYaJbyy+EayXyCPjX4NGb4R8+8Uegj+OuWGwA3LDQ1XHcfYsP8KBpgZvHuMNWAgC4aYE77c7l4gIMQ4/AeYzrJgGA2xa2FRz1u0UD+MWNQIyzgN14AD8uYaK7FrRNHHUnIkAdE/0edgR6OGo9IoBdwET3LGTbOKoTE6C+PTkCLQsYxrVjAthzsUaghnHNqAC1PhDllayOcRYVwJ7FRPcJAf4+Am0+AHvSrcuJAPzRXJsPwP7nFmVkAI/3MFGHDMCPACFAselGgAvA/utGgAzANjFRlxBgARMNCAGKDTcCPAB+BPYIAWzDrcvJAObdCJABFGtuV8oD4EdgnxDAVtwIkAHMuREgAvAjcIMQoOHW5WQAxeTS9PAmF4AfgYMmF4Dfm98mBGi4dTkZgLl1ORuAW5cTAfgROLzHB/D3dfmoRQfg1uV8ALW+GwEmALcuZwPw63IyAL8uZwPw63IyAL8rZQPw63IyAD8CbAB+XU4G4NflZAB+BLpcAH5X+isbgF+XkwH4dTkbgF+XkwH4ESAEMLcuJwLw6/Lf2AD8upwMwK/L2QD8upwQYM6ty4kA/K70JhuAX5eTAfh1ORuAX5dzAfh1+W1CgDOYaNTkAvAjcI8PwH1dzgXg1+VsAH5dzgXg1+U/swH4dTkXgB+BHTYAvy7nAvC70p0IAMWLH/9D1y9WCuDX5UEB/KIOvs+qBPDr8uAAb+CkulUC+HV5YIAGTmxQJYBflwcGOI+Ta1UJ4L8uDwuwiZPbqhLAf10eFKCGKdqpFMCvy0MCNDBFg0oB/AiEBJjHFO1XC+DX5QEBTmGKhtUC+HU52wT4dTnZM8B/Xc72K+BHgOw9wK/LwwGcS+FN0K/L16n+FvAjgINmQn8NdsIAmPu6PAxAsRHwPKD8urw8gO+fT4SetyAAfl1OcCZ4wrqcDMCPACFA3a3LmQD81+VsAP7rcj4Adx8/F4Bfl5MB+HU5G4Bfl5MB+K/L2QD8upwQwK3LyQCscOtyNgC3LqcC8OtyMgC/LmcD8CPAB2BPYKIBG4Bfl5MB+HU5G4Bfl+cKMPph5vpuBLICeNi1yQEO75IDYMAO8IAdYMQOgCY7QFsAOQEssQP8nx3gNDvAAjtAjR3AVtgBFtgBbIUdoPYpGYDvzPLDKDJA/AQgAAEIQAACEIAABCAAAQhAAAKoDKC2PGuvNR8FgHcxe6Or+QM8gxIdjjq5A9RRrkHuAKdRsnbmAGso2VbeAAXKtps3QANl288bYB5lG+YNsIDSsQOM8gaYQ9kO8gaooWx7eQNYHyXbyRxgCSVbzRxgPu6vYHyAYgOl+jJ3AGv0oz4C4wPY4oc/zNr311o6ExSAAAQgAAEIQAACEIAABCAAAQhAAAIQgAAEIAABCEAAAhCAAAQgAAEIQAACEIAABCAAAQhAAAIQgAAEIAABCEAAAhCAAAQgAAEIIC2AxysteYCnP0WlPXgvbYA5VN6VlAGKHipv1EoYYAEB2koY4BICtJcuQLGNELWSBagjSJ2Er9EJ0nrCFykF6QY7wJb+C+ghmChAAfKfQVshfxGyUwjQ3YQBij4qb9ROGMD+g8q7aikD2Es9VNrwWvJHYk9VWlOHogIQgAAEIAABCEAAAhCAAAQgAAEIQAACEIAABCAAAQhAAAIQgAAEIAABCEAAAhCAAAQgAAEIQAACEIAABCAAAQhAAAIQgAAEIAABBAOov/PF1+G7/nwqAPUe4tRNBGANkTpoJgEwh2htJQFwHtHaSwKgh3i1EgCoIWKrCQA0ELEbSVykFLE77AB/JAAwzz4BDURsPQGAAhHrJgBgG4jWqJkCwJOI1q6lAHAG0VpPAsBeRqQGlgZA8RGi9FsrEoBv8e0IvaozQQEIQAACEIAABCAAAQhAAAIQgAAEIAABCEAAAhCAAAQgAAEIQAACEIAABCAAAQhAAAIQgAAEIAABCEAAAhCAAAQgAAEIQAACEIAAqgBYfD9KF8m/HAW+bSYB8Aqi9U0KAA1ErMN9fwBwl/sGCWCf/A4RoMl9iwzQ4b5HCFiNDvAEorZOdpWWB9AzgPo+QaDFfaMkhtx3igJ/ct8qC3QTALAVRGtgKQDUeojUsJUEgNVe/zxK11o6ExSAAAQgAAEIQAACEIAABCAAAQhAAAIQgAAEIAABCEAAAhCAAAQgAAEIQAACEIAABCAAAQhAAAIQgAAEIAABCEAAAhCAAAQgAAEIQAACEIAABCAAAQhAAAKY6n6gpmVbgXGtAHgBCjrG2+62qvxq4KhD+/f13H1l+bXgb5yavk0cdcey7TSOOrCp83eF7lq2XfJ3j07fCo4aWbb1TrhyarpL0g67lmlzGPdnmf8/2LFMW8K4LZs+f1vqYcuyrNbHuNVSLxG4b1l2AeVe5vo47opl2Fmg3HN8DceN3rTsWuzjuD2bpXOY6NbyC1m1fBkT/VTuRyT/ujZLRR+PSKNyL5L5t2uz9RgekbZstmrbyLnyL3LFEnLOvcrT/g50bOY2gPzbs9k7hbwrf6S3xjUAvjmyJ4DvAjLvGytXbRNZd9CykjV6yLhh20rX6CPbRp2mle9sD5k27NpDqbiMLLvVtIfV4gef9JFVo6+uX5zqn/YXOLoCZgoTxK0AAAAASUVORK5CYII=;" parent="1" vertex="1">
          <mxGeometry x="164.7" y="431" width="52" height="52" as="geometry" />
        </mxCell>
        <mxCell id="zNm0QSZDJS1atimLN_gq-60" value="" style="shape=image;imageAspect=0;aspect=fixed;verticalLabelPosition=bottom;verticalAlign=top;image=data:image/png,iVBORw0KGgoAAAANSUhEUgAAAaAAAAIACAMAAADzHEgYAAAAn1BMVEUAAAAAAAAAAAAAAAAAAAAAAAAAAAAAAAAAAAAAAAAAAAAAAAAAAAAAAAAAAAAAAAAAAAAAAAAAAAAAAAAAAAAAAAAAAAAAAAAAAAAAAAAAAAAAAAAAAAAAAAAAAAAAAAAAAAAAAAAAAAAAAAAAAAAAAAAAAAAAAAAAAAAAAAAAAAAAAAAAAAAAAAAAAAAAAAAAAAAAAAAAAAAAAAAAAAC3kz5EAAAANHRSTlMAAwcLDxEUGh8mKTA1OkBFTFBVWlxkaW1yd32Di5KZnqKoq7CzuL3Cy8/X2eDk6Ozw9Pj8PXzLeAAADqxJREFUeNrt3dd6o8gWhuEFKAcrWDlnIYQSrPu/tu3pnt3Ttks2MhK1Cv3fwZzODO+DhEVVLRJZqbfwziEnWXj218OqRejbrJbLuvL7GQB8U23POjt1cBd9lT1m3W1yYLhaZsv680uAuObjsoROEFJnbVhGhzwwVA1ZShs8KSiqhCymDjg+t2U5nbPw+FiNJTUAyMcWLKkDvoU+5AQsqheQvK/OshqC5H1DltUGJO9bsKwOIHnfhmUVgOR9LgsLj3HCgWyYAAhAAHoskGMlUQtAEXL1XaRXAAEIQAACEIAABCAAAQhAAALQkwHZERIHlLG/KR00jbF7CjlKQoCiF/jrfomMLjc6sSIzgdS5DTK3zpk57UDM2xKZmbNkfgYgDtpkYlmXUwikbkTm5WzZZKD0LxSe8DMBcd3sdaLpBzpkyKisvdFA6V8p/MrPBnTOPOMy0ZASqcF3qE0GlQ35LvmUSBW+Q2syqAbfp7lBW5MuNpnTgO9Tk5JpyXeo9HR/BLFvm7Q9tk7mNOO71KCkWmm43XU253s0ocTK+Ry712cDmlqUXCUfQLd16VKi5dcAuiF/lKekq6/D5wbauZHaLoe1AmkpW2sPt8eD+11+OoFKlJbaAAIQgAAEIAABCEACgaxyaziZr+J0eEag3SpGy9m438hHWks9P3H80g70oPbjCn1ZdvCPDoASAVK3e7XoWlbvzAwgvUDM3gupK+2YAaQfiHnqkKLmhQEkA4i9In2qGzKApADxqUIf6jMDSA4Qnz8ItRlAooD4VKS/qgQAEgbEnkN/yvgMIGlAPKM/jRlA8oC4Rv9WDgEkEWhv0++WDCAZQOoNE6UQQDKBPPrViAEkA0g9gcU6AEgq0ITeqjCApAId6K0+gKQAqa/ZHEBygVpEtAOQXKAhEZ1Z0bHbiNPhCYHCRpw6/rWfe6yQPxeWKVbeMwJRrHJHVrQicljRjgCUMBDNrwzSy7CiLYASB5oqIQAEIAABCEAAAhCAAAQgAAEIQAACEIAABKAfAFVzaamXAqB0ByAAAQhAAAIQgAAUucAkIJefr7NJQEt+vjyTgIb8fC1NAqrx89U3Ccg+8dNVMgmIRvxsuWQUUCHgJ6uZNBAeE25qaxkG5Oz5mbqUyDAgKl/4iWqRcUDUDPGILRqI6hd+jsIOGQlERZefIb9KhgKR1d5z2jsNHDIWiMiqTf006yxaDpE5QOpylVo9jdWqeXpLExCKEoAABCAAIQABCAEIQAACEAIQgAAEIAQgACEAAQhAAEIASjlQFkAAQgACEAIQgAAEIAQgAAEIQAhAAEIAAhCAAIQABCAEIAABCEAIQAACEIAo31t6vjttWGCRCOSMAv7dvg4XeUD5Hf/XEDDSgLIe/90AMrKArDW/K6yCRhTQGA+MooHa/KkSbOQAVQP+VA82YoAKR/7cBDZSgJwdK5rDRgrQgjnGHeTUekPB9Zt504GGrKxHUSpOLyy9Tc1ooGaMuTvWIGATWmalAcWf5bCN4jNjQ/LypgLlfFYU8ZeEMRvTzjETyN6yukHaJuKNJQNZ1e5w0Coq/+3qFhShHRtUWBQLZPcO/Cu3Th/qxvlAqLJRjaQCFXf8p6lNf1cLWdmxkMKBhZ5QoOKB/2r9t1DxxMqCKkVpw2bliASyd1dv9IzH6trpnNxeFAnU4/eFL/Rv1orVjQlAiQFZB/7Q3vnmK2RtUbS2bFYZiUDVqzdIi9XtsxSxMRuVTxKBuvy5lz+v6BSdSxS1OhvVRCTQkD/nO0T5AysL6xQ522eTKosEGrCiCTnuPQaPttig5iQSqMWqanNWN6ObWrIxHXIygYqs6sLqXJtuytmyIZ3KJBOIXI7eIU835szYiHYlkgpU58hdKnR7dZfFd+jZJBaI5hy1V/pRpe5kvpDbdPBiEQkGyh35i7ChQTsQNThSK+za0gREM46QlwGFLqDsgb/tVISEBqDIT3LhCyA0AtGUv6kDBx1A6g85bGTQABRvBdvWBoNmIJrw9fwcFLQDZXy+1qUMBA1AkT/kwgYM9AGpP+RwIIJEIMdnbHSUDEQvoXIRNgSkANFYtQgbAHKAnD1/KMB5L5KAqBry+9q4/EKA1KvkRrj6woCsOf/VHK/opAGRNQz434IhfOQBERWnZ37rPMUbOplARFapVivh7sGxzABCAEIAAhACEIAABCAEIAAhAAEIQABCAAIQAhACEIBQqoDs2mixmvawXEEoUNvn360wHk0gkLPkP11eASMNyN7w30FIGtCE33XBF5EsoC5/aAkaKUDqKQ4htg4JAiqecPqIZKCMh+NHJANZK2wvFg00YlVT2AgBarGyPmxkAFUCVoYNxhKArk9x8EAjAsh2WV2DopXrLr3TWWwnfzMsmQw0Y47ziOCMLiy/VVE6ULb22qzY9Ll+vCkOxT0b0eVVNFBtE17ZOFwPY01xKB7ZlFpygTIL/n9Bn95VOsea4uB4bExBRSpQdnd1wmNuH2+Kw5ANamcJBVrzu7r0J2sTb4pD5swmVZcJ1OKrL+LGMac4tNioFjKBPP6Qa9Hv2nGnOMzYqE4igcpXf2N7CeJOcXDZrHLigNS3SVCitwqn2FMc9hgV/Zg5qq5F5OziT3HYsVkVTAHiAVnLO0xxWLFRBZZEoA4rCsrDe0xx6LNRbYU+JKg63GWKQ5GNqqsBKNY3efwpDks2qFNGJlCbFd1pikPxwubUJplA1pajNqBbe2VjmpFQICpeHjguvh2yGc1tsUDU5Ui5Dv2gqscGdO6KfqO64Qgd8/Sj7NYmYNl5gxyJBiqcWdH9pjg45eqL3CpZ+at6OvxtLSyv0ghEa/4UpjjoB4r+IbfGOecagKL/ueplwaABKPKH3BnbUfUD5U98rbAGBA1A0Vd49GAgAYiWzNinJRkof8KgddFA9IpB67KBaIFB67KBckf+WBPXXxAQNflDQ1x+IUDqxbpL/MIjDMjZ8l+5GLQuDYicBf9pAR95QET1Lf9qW8elFwlEVGj2ek2cNYZjmQGEAIQABCAEIAABCEAIQABCAAIQgACEAAQgBCAEIAAhAAEIQABCAAIQAhCAAAQgBCAAoZQD2aVas1mv4AQYiUDWy3gX8u8OsxY2CckCcvo+v+sywUk9coCszok/FU7wUScEqOCysiOOUxIBVDvxlcIBHPQDNQO+3gQ78nUD1UP+qjH9uEKt2UqgZi2fZqDy5THDQTJ9jxPL62fSCuR4j5kE2zhyoh2bKQUaPWYS7IATb5BKoFLwkAlIXdZQL41AM47QwabbKgesoaCcPqBC+JAZSBvW0jZ9QIOH/J+XWFPl1AHtOFr5G9k1NUwbUI4j1qJbWrOm1mkDanDEJnRLHmvKSxtQ/zFfv3vWlJ82oMlj/s9d1pSbNqA5R+x843+5pqZpA1pxxEIzpqi+4g6KlHNiLZ0cfAeJHoffJzzFRct2WUOuTfg7KGJ5nxPPLxDhl4TIQi4nnJsnIvwWFzm7d+QEO/VtSiNQ/4G/49vNyXbnJdBuO2k69E94H4RkvlHFODvhaxKAIXtVDxaXCl8XBwu9K0vxAWf22mxIYHcDgLA/CDvsAJT8HtUx9qgK3uV9nmDeoLRzEkZuyL/zp684J0HoSSONZr2SwdXHWT0AQgACEIAAhAAEIAABCAEIQAhAAAJQjJxsLl8olSuV6j+9vLy8/bNSKZfLpVKxUMjnc9mMY1sASjArX210BuP5xvUO55CjFQaX8+l48P393tu5rrvdbjdvrder1Wq5XCwW8/nsrT2A4mSVWqPVPuAHBqCfZlUH6zP/CkDyqk6O/BaAROZ0PGYGkNCszpEZQGKr7JgBJLd+wACSmz1jAbkAupK9YgmdAHSlGcvIBpCyHgvJAZCqSsAyuuAjTpW147fwkCC2NktpCCBF9oGFFBQAJPoGGhGAFO1YSDsHQIoqLKRDgQCkaMwyOpYIQKp8MT4AUlUW4wMgZT0pPgBSt2QBncoEoCsdZfgA6EoFGT4AulaDtXeuEICuNpDgAyDBr1LPVQLQF7n6fQD0VSfW2qVKAPoqR7PPCwHoy0q6fQD0dTWtPjUC0Dc1WV9BjQD0XR2tPgD6tqE+nzoB6PvGGn0AFKG5Lp8GAShKa20+AIrUlnUUNglA0XI1+QAoYp4On1cCkOA1V2GLABS5kw4fAEUvSNynTQC6oTB5HwDdkMUJ1yEA3ZKduA+AJL9Q7RKAbiuTsA+AbizHCdYjAEkG6hOAbi6fpA+AJAMNCECSgQYEIMlAQwKQZKAhAUgy0IgAJBloRACSDDQiAEn+Q3VMAJIMNCYAxSjLD25CAIpT5uE+AJL8PmhqAUgMkNoHQIJfec8sApAUILUPgASv6plbBKD4hQ/0AZDglaULiwB0jy78kJY2AegunR/lAyDBuxtWNgHoTh0f4wOge3Xgu7e2CUCCd9htHAKQFCC1D4Du2P7+PgASvMt76xCA7tru3j4AkgKk9gGQ4JNG3AwBSAqQ2gdAgg9TcrMEoPu34Tu1yxKABAPtcgSgR7S+mw+AHtLqXj4AEjwgzcsRgB7U4h4+eQKQ4FN/93kC0MOa3cMHQI9regcfAAkG8gsEoEc2ie0DoIc2jusDIClAah8APbgR/7xDkQAkBUjtAyDBQMcSAejxDWP4AEgKkNoHQFKA1D4AEgx0KhOApACpfQCUUIOf+QBIMNC5QgCSAqT2AVBy9W/2qRKApACpfQAkGOhSJQAlWu82nxcCkBQgtQ+ABANdagSgpOty5IIaAUgKkNoHQIKBgjoBSEOd6D4AEgwUNCipHAApgOT4kMWKznl60tocobCp/RDIfbP8nA3F+ZDH6KbCV0q0JS75TYUtSrYBrrloH6riot9Q2Kaks0+47JJ9iCa47pHrkIYquO6ifYg2uPLR6pKeXnDpRfsQzXHxI9QjbeXxIPd9fdJYHdf/Vh/8nCCrAWluDAPRPmSNoHC9IQmoGwBCsg9R1QeFshEJyRniJlI0JDkVxiD6kFshUeU6Wxj913lgk7icWn+y2u6ePO8SHtadrHaN/wF7IQzNiwuPowAAAABJRU5ErkJggg==;" parent="1" vertex="1">
          <mxGeometry x="578.6700000000001" y="790.63" width="42.67" height="52.5" as="geometry" />
        </mxCell>
        <mxCell id="zNm0QSZDJS1atimLN_gq-88" style="edgeStyle=orthogonalEdgeStyle;rounded=0;orthogonalLoop=1;jettySize=auto;html=1;exitX=1;exitY=0;exitDx=0;exitDy=0;entryX=0;entryY=0.5;entryDx=0;entryDy=0;" parent="1" source="zNm0QSZDJS1atimLN_gq-61" target="zNm0QSZDJS1atimLN_gq-86" edge="1">
          <mxGeometry relative="1" as="geometry" />
        </mxCell>
        <mxCell id="zNm0QSZDJS1atimLN_gq-90" style="edgeStyle=orthogonalEdgeStyle;rounded=0;orthogonalLoop=1;jettySize=auto;html=1;exitX=1;exitY=0.5;exitDx=0;exitDy=0;entryX=0;entryY=0.5;entryDx=0;entryDy=0;" parent="1" source="zNm0QSZDJS1atimLN_gq-61" target="zNm0QSZDJS1atimLN_gq-62" edge="1">
          <mxGeometry relative="1" as="geometry" />
        </mxCell>
        <mxCell id="zNm0QSZDJS1atimLN_gq-91" style="edgeStyle=orthogonalEdgeStyle;rounded=0;orthogonalLoop=1;jettySize=auto;html=1;exitX=1;exitY=0.75;exitDx=0;exitDy=0;entryX=0;entryY=0.5;entryDx=0;entryDy=0;" parent="1" source="zNm0QSZDJS1atimLN_gq-61" target="zNm0QSZDJS1atimLN_gq-63" edge="1">
          <mxGeometry relative="1" as="geometry" />
        </mxCell>
        <mxCell id="zNm0QSZDJS1atimLN_gq-61" value="Evaluate against..." style="rounded=1;whiteSpace=wrap;html=1;" parent="1" vertex="1">
          <mxGeometry x="172.69" y="516" width="141.31" height="30" as="geometry" />
        </mxCell>
        <mxCell id="zNm0QSZDJS1atimLN_gq-62" value="Recommendations for sharing simulation research artefacts" style="rounded=1;whiteSpace=wrap;html=1;" parent="1" vertex="1">
          <mxGeometry x="375" y="483" width="340" height="30" as="geometry" />
        </mxCell>
        <mxCell id="zNm0QSZDJS1atimLN_gq-63" value="Criteria from journal badges relating to openness and reproducibility" style="rounded=1;whiteSpace=wrap;html=1;" parent="1" vertex="1">
          <mxGeometry x="355" y="532" width="380" height="30" as="geometry" />
        </mxCell>
        <mxCell id="zNm0QSZDJS1atimLN_gq-66" value="Code" style="text;html=1;align=center;verticalAlign=middle;whiteSpace=wrap;rounded=0;" parent="1" vertex="1">
          <mxGeometry x="229.2" y="483" width="77" height="30" as="geometry" />
        </mxCell>
        <mxCell id="zNm0QSZDJS1atimLN_gq-67" value="Article" style="text;html=1;align=center;verticalAlign=middle;whiteSpace=wrap;rounded=0;" parent="1" vertex="1">
          <mxGeometry x="152.2" y="483" width="77" height="30" as="geometry" />
        </mxCell>
        <mxCell id="zNm0QSZDJS1atimLN_gq-86" value="Reporting guidelines for discrete-event simulation studies" style="rounded=1;whiteSpace=wrap;html=1;" parent="1" vertex="1">
          <mxGeometry x="381.85" y="434" width="326.3" height="30.5" as="geometry" />
        </mxCell>
        <mxCell id="zNm0QSZDJS1atimLN_gq-92" value="&lt;h3&gt;Stage 2: Evaluation&lt;/h3&gt;" style="text;html=1;align=center;verticalAlign=middle;whiteSpace=wrap;rounded=0;rotation=0;strokeColor=none;fontColor=#000000;" parent="1" vertex="1">
          <mxGeometry x="139" y="383" width="180" height="30" as="geometry" />
        </mxCell>
        <mxCell id="zNm0QSZDJS1atimLN_gq-93" value="&lt;h3&gt;Stage 3: Research compendium and report&lt;/h3&gt;" style="text;html=1;align=center;verticalAlign=middle;whiteSpace=wrap;rounded=0;rotation=0;strokeColor=none;fontColor=#000000;" parent="1" vertex="1">
          <mxGeometry x="140" y="590" width="330" height="30" as="geometry" />
        </mxCell>
        <mxCell id="zNm0QSZDJS1atimLN_gq-95" value="" style="group" parent="1" vertex="1" connectable="0">
          <mxGeometry x="490.39" y="690" width="74.61000000000001" height="58" as="geometry" />
        </mxCell>
        <mxCell id="zNm0QSZDJS1atimLN_gq-59" value="" style="shape=image;imageAspect=0;aspect=fixed;verticalLabelPosition=bottom;verticalAlign=top;image=data:image/png,iVBORw0KGgoAAAANSUhEUgAAAgAAAAGOCAMAAADW9Ev9AAAAq1BMVEUAAAAAAAAAAAAAAAAAAAAAAAAAAAAAAAAAAAAAAAAAAAAAAAAAAAAAAAAAAAAAAAAAAAAAAAAAAAAAAAAAAAAAAAAAAAAAAAAAAAAAAAAAAAAAAAAAAAAAAAAAAAAAAAAAAAAAAAAAAAAAAAAAAAAAAAAAAAAAAAAAAAAAAAAAAAAAAAAAAAAAAAAAAAAAAAAAAAAAAAAAAAAAAAAAAAAAAAAAAAAAAAAAAAA0NbREAAAAOHRSTlMABAkNEBQaICQpLjI1Oj5BRUpQVFhbYGZrcHV6foOIjZOYnaKorrO5vcDDyM3R1tvh5ujs7/P4/JHuogEAAAxNSURBVHja7N1dT+JAFIDhM7UiRQSFYvxi44qoq9i6aOX8/9+z997sxSZLTIlV183UOsO8DwY/Er0456UgmiLWou4g9cSgGwnq1Zs+qkcepzvsrEabU/XOecze6rKVq4eyFpurR5yrl7INdleLiXrqjN3VYVu91WF7NThTb31nezWYq7fu2J69lnpsk/1Z66ryICBkO+qxLvsjABAACAAEAAIAAYAAQAAgAFgEMEmdc04A74mkVk+/nPPEkt/D/0kTAAgABAACAAGAAEAAIAAQAAgABAACEEn20oq+eKyfrrvh3pbUZOt0rh91JM451lDlJ5tizxw/qhKAnx72xZaZqhKAv76JpYkSgNeO7B4EpiMeJ/ttvG0TgDlhgp4zY5sABm0m6LvdxCKAXebnvz2LADiRxhroWATAOTW9Zr/EQv/ToTjnSAN302QAQ3HOiAAaDKAtzkkIoLkAMnFQTgCNBXAgDjokgKYCyIw4KMoJoJkAio44absggCYCKPriqN2CAD4/gFkizurcEsDnBrC4HhlxmBldLwigngCytGLQi8V5cW+Yrr2HBgK44tl1d/0kAAIgAAIgAAIgAAIgAAIgAAIgAAIgAAIgAAIgAAIgAAIgAAIgAAIgAAIgAAIgAAIgAAIgAAIgAAIgAAIgAAIgAAIgAAIggIACiBmaP4x5fpPltVn5ipFIzIa8ggC+akWmXNPyEi3fL/f35qX8PlldspEPIIB/KBdkVj82z2sxRl6sqPykspPl1cqOxD+xyyuqHufKFVWWU66ouqDyZ3CQeiH+lLui8vLW8e7N2xAr+hLJyWU+v69Q+G9xXzG/+zHuSKk9ZUzhuWg/nyt4cDvkGBiccu3DBbeGMC3+FpAUTCJURSIiV8whXFciXaYQsh05ZQghO5UZQwjZLEr4fShkScTrxwct2jikgJD9loz7wZDdyCVDCNlEJgwhZGMZM4SQ7csBQwhZTwYMIWQt/hYQtEKkxRQClomYhVYV11g3M33FhYjcaVXOU2Rrp69/2ruvtUS2LQzDP6BiTpgDYrbNAWHe/5Xt52mP1nbMllB01xzj+47X0W+vosJLYXQm6cE6ArCXu/Zzv/VrimC+MeaubjLakmwRwkNid13lfu7/OBltMpizTPkzbEjaTUZ7DOatfvrea/bs8JjBnDWfQcHSUjI6ZzFXZfT3hSS1ktENizlrJ3+g71tYlMWcdZyMOpJkorA3FnPWRTJakTLfDRvyngZn/cre77NR2AKT+X+B3Ify9wjXmMxVTZsE/85EYbwywldLyehKvzNR2CGbuWrLJsH5WwRdNnPVYf6Gv43CLtnMVT2bBP+uMeSV0O67+dOl3hsozHn23b6BJAkUFqKBTYIlgcIi1M4/8QOFhSbBEigsQnt/vNezBwqLSoK/2gSFhSTBS3+8T9xjNe8kuClJWRR2zWoRSPBXn6Aw380lo1+SJFBYbBIsUFhwEgwKC0uCd364SlxlNzdd5P/AeRS2zW4RSHAehR2wm5te0/f6kiRQWISaw+x1PigsOAkGhYUlwd2fvjbyzHBeOvjxce8jKMxzZ8loQ1/lUViL5TyT4LYkgcIgwaCwyCQYFBahhTwJBoVFaD0vvkBhkODfzYHCHHeaJcF/RmEPTBeBBH/1Agrz20MyakoSKCxEH9n/u0FhkGBQmPtWbBL83w5BYW7rjHKTpwMKi0qCv1oDhbntPPvxDgoL0V0ympckUBgkGBTmvkaeBP+Ewvqs56BFkwR/V0OgsKgk+KtzUFgkErw/2sXiBvNFIMF5NLDLfJ5JMCgsLgluSBIoLESf2VeBg8LCkuBbSRIoDBL8Awp7Zb8IJPirX6Awl51mpQcoLEL233VZkkBhkGBQmP/esyQYFBahVjK6l5GJwk5ZsPCWR6ZebVBYGBJ8MjIcuWXBwjsa/SHfOygsCglekyRQWIhusyQYFBail+wLAEFhkOD/dgIK89di/ik/KCxANvTqjvHfHrGhRxJstgwKC0KCNyUJFBaia5sE2w1AYe56ypJgUBgkeCQUxoYeSbDdFSjMW2vJ6FyZzkBh3trNX9qDwiJ0kv2TgsIgwaAw/92P84TXRmEXrOiQBNs1EigsDAkGhUGCQWHu286T4NFRWJMdI5DgPApbZEeHJBgUBgkGhUGC/78tUJirGpbweJIkgcIi1B7XeM0noyuGdEWCzyRJoLAI7eef7oHCItQ1SfC4D48GDOmKBC9KEigsLAkeNsb+GsEKS0YgwXkUtsWSZTY/9uN9G4XtM6U7EgwKgwSDwiDB32uCwsKS4DwKe2JKjyTY7gkU5qe39L13SRIoLELNlH2yAwqDBI9z4rjOmCW2Pck1/T4ozE2HyWhPkkBhIeqZJHiSz40zxnRDghckCRQGCR4Lhd0zpi8SDAqDBIPC3Lcx0emcjcLmmdMVCQaFRaib1V2gsBBdTXZXfwcU5qTHyX4MfB0U5qR+9noOFBaWBN9JkkBhEVq1SfDPfYDCopLgPAr7YM/iOk5GHUkChYXoYtIbOhegML8keE6SQGFhSfDHxLeQdxjUDwkGhUVoKS97QGER2srf0QWFQYJBYe7rTX4u/woKc9BNlgSDwkL0nP0rgsJCNJj4x19sFLbMpOWT4BuN1BEozDUJBoVBgidAYSds6pAE2y2CwpyS4KUpHiPcsGn5JLgpSaAwSDAozH1zNgkesVtQmEsSfDGVJmuzakHtJKNjjdgpKMwvCQaFQYInwySHrFpQv2wSPGIroLDSe81eyIHCItQcZkkwKAwSPNkB5IVZXZBgUBgkGBQWkwRvSBIoDBIMCoME/9QuKMwrCQaFRWhhStJjo7Bzhi2l9WTUkySBwiK0N/XDnD4orOROpzyJt1HYO8OWT4JBYSF6yJJgUFiAbNb9Ov2HyBrLFkyCf03/zbIO05bRSp4Eg8Ii1MmTYFBYhI6zqBcUFpcEr0oSKCxEd1nOAQoLS4L7Gq8HUJgvEvwoSQKFQYJHrAcK80WCu5IkUFiEDirwXDYK22PcEjqzSfB4bYDCfJHgtiSBwuKS4IYkgcIgwVOhsEfG9UiC7Z5BYf5I8NQorMG8RZNgUFhYErwtSaCwEF3aJHjcDkBhhfZQjejeBoU5IsFvkiRQWAwSXI3lWQCFhSHBdkPLlrNv7evkn+KAwiJ0lIx2JQkUFqJzmwSP33UymmPgckkwKAwSPPVnySYD17xGngSDwiK0mL98B4VBgsdpCRQWhQTbtUBhvkgwKCxE11nHAQoL0VOWBFeCwoagsJr3Wd0d/EtQmBMSfCtJAoVFaC1PgkFhkGBQGCR42h+g7rJxeSR4ucLziUs2dkiC7RqgsPJ6z5JgUFiEWiYJrvJw8snIdW45/7ENCovQdpXP8G0UtsTKDkmw3TEozAUJXpMkUFiIbrMkuDIUdszKNe4le94OCgtLgp8kSaCwsCT4WpIECovQZqXf6bdR2Bsz17f9in/1/Q4U5oAEb1b8bHGBncsiwYuauC4orKyesodsUBgkGBTmvvk8CQaFRWgtf+cOFBah3WR0VPWdxTuGrmsnNgmeojdQmA8SDAoL0X0yakkSKCxEb9nvc4PCItRMRg+SJFAYJHii9kBhUUiw3SYorHQSvFf971D3mLqe9ap/dtcyiRFTF0SCFzRVn6AwDyQYFBahxiBLgkFhEWrnP69BYZDgKlHYKmMXQ4IPZvHq4W3GrmPdZLQ5i5tLB4xdFgkGhYXo8ecTdn4+0vlVYPV6pzHkTlAhLZkkeCbGYNBk7kIuAs5no4y2mLt+3czmfP2Cl0SU0fwgGa1r2g6T0WeLwQvAAJX4zbWECSmh5lsyetbUNQfJqD/P5PXqNM3K7twlUEj9Wx4kq+2ZfbakI0avUfMvyWrQqujFUzwQqHdzD8nsRlX0kOx63A6qSSsvyW5HVXSQMr3u80+gBrV7g2T30VQVtT5Trv71yd4O/bt297v3w5Srq2o6S1RigwVV08KAMUvsQuIQELhBW1U132fO8uqqug6Ys7heW6qwewYtqerNxuIni0Y5A7TbYdKiem7qK64EQtZfVOVdM2sxDTZUfc1bhi2k4bbEv4C4DTqaTY1Lxi2g/qZm1tGQfevey5Jm2PorC9e7qznNtNY5B4Ea99bRzFvhXLCufXZb+hut33AUqGH9swX9rdonzwxeqwa3e0391dr7l09IoVr0+dDrzOlf1GivbnWQmf+y7c3V6Q/8/wP3+u56iLcTmAAAAABJRU5ErkJggg==;" parent="zNm0QSZDJS1atimLN_gq-95" vertex="1">
          <mxGeometry width="74.61" height="58" as="geometry" />
        </mxCell>
        <mxCell id="zNm0QSZDJS1atimLN_gq-94" value="Data" style="text;html=1;align=center;verticalAlign=middle;whiteSpace=wrap;rounded=0;" parent="zNm0QSZDJS1atimLN_gq-95" vertex="1">
          <mxGeometry x="7.300000000000011" y="20" width="60" height="30" as="geometry" />
        </mxCell>
        <mxCell id="zNm0QSZDJS1atimLN_gq-96" value="" style="group" parent="1" vertex="1" connectable="0">
          <mxGeometry x="571" y="690" width="74.61000000000001" height="58" as="geometry" />
        </mxCell>
        <mxCell id="zNm0QSZDJS1atimLN_gq-97" value="" style="shape=image;imageAspect=0;aspect=fixed;verticalLabelPosition=bottom;verticalAlign=top;image=data:image/png,iVBORw0KGgoAAAANSUhEUgAAAgAAAAGOCAMAAADW9Ev9AAAAq1BMVEUAAAAAAAAAAAAAAAAAAAAAAAAAAAAAAAAAAAAAAAAAAAAAAAAAAAAAAAAAAAAAAAAAAAAAAAAAAAAAAAAAAAAAAAAAAAAAAAAAAAAAAAAAAAAAAAAAAAAAAAAAAAAAAAAAAAAAAAAAAAAAAAAAAAAAAAAAAAAAAAAAAAAAAAAAAAAAAAAAAAAAAAAAAAAAAAAAAAAAAAAAAAAAAAAAAAAAAAAAAAAAAAAAAAA0NbREAAAAOHRSTlMABAkNEBQaICQpLjI1Oj5BRUpQVFhbYGZrcHV6foOIjZOYnaKorrO5vcDDyM3R1tvh5ujs7/P4/JHuogEAAAxNSURBVHja7N1dT+JAFIDhM7UiRQSFYvxi44qoq9i6aOX8/9+z997sxSZLTIlV183UOsO8DwY/Er0456UgmiLWou4g9cSgGwnq1Zs+qkcepzvsrEabU/XOecze6rKVq4eyFpurR5yrl7INdleLiXrqjN3VYVu91WF7NThTb31nezWYq7fu2J69lnpsk/1Z66ryICBkO+qxLvsjABAACAAEAAIAAYAAQAAgAFgEMEmdc04A74mkVk+/nPPEkt/D/0kTAAgABAACAAGAAEAAIAAQAAgABAACEEn20oq+eKyfrrvh3pbUZOt0rh91JM451lDlJ5tizxw/qhKAnx72xZaZqhKAv76JpYkSgNeO7B4EpiMeJ/ttvG0TgDlhgp4zY5sABm0m6LvdxCKAXebnvz2LADiRxhroWATAOTW9Zr/EQv/ToTjnSAN302QAQ3HOiAAaDKAtzkkIoLkAMnFQTgCNBXAgDjokgKYCyIw4KMoJoJkAio44absggCYCKPriqN2CAD4/gFkizurcEsDnBrC4HhlxmBldLwigngCytGLQi8V5cW+Yrr2HBgK44tl1d/0kAAIgAAIgAAIgAAIgAAIgAAIgAAIgAAIgAAIgAAIgAAIgAAIgAAIgAAIgAAIgAAIgAAIgAAIgAAIgAAIgAAIgAAIgAAIggIACiBmaP4x5fpPltVn5ipFIzIa8ggC+akWmXNPyEi3fL/f35qX8PlldspEPIIB/KBdkVj82z2sxRl6sqPykspPl1cqOxD+xyyuqHufKFVWWU66ouqDyZ3CQeiH+lLui8vLW8e7N2xAr+hLJyWU+v69Q+G9xXzG/+zHuSKk9ZUzhuWg/nyt4cDvkGBiccu3DBbeGMC3+FpAUTCJURSIiV8whXFciXaYQsh05ZQghO5UZQwjZLEr4fShkScTrxwct2jikgJD9loz7wZDdyCVDCNlEJgwhZGMZM4SQ7csBQwhZTwYMIWQt/hYQtEKkxRQClomYhVYV11g3M33FhYjcaVXOU2Rrp69/2ruvtUS2LQzDP6BiTpgDYrbNAWHe/5Xt52mP1nbMllB01xzj+47X0W+vosJLYXQm6cE6ArCXu/Zzv/VrimC+MeaubjLakmwRwkNid13lfu7/OBltMpizTPkzbEjaTUZ7DOatfvrea/bs8JjBnDWfQcHSUjI6ZzFXZfT3hSS1ktENizlrJ3+g71tYlMWcdZyMOpJkorA3FnPWRTJakTLfDRvyngZn/cre77NR2AKT+X+B3Ify9wjXmMxVTZsE/85EYbwywldLyehKvzNR2CGbuWrLJsH5WwRdNnPVYf6Gv43CLtnMVT2bBP+uMeSV0O67+dOl3hsozHn23b6BJAkUFqKBTYIlgcIi1M4/8QOFhSbBEigsQnt/vNezBwqLSoK/2gSFhSTBS3+8T9xjNe8kuClJWRR2zWoRSPBXn6Aw380lo1+SJFBYbBIsUFhwEgwKC0uCd364SlxlNzdd5P/AeRS2zW4RSHAehR2wm5te0/f6kiRQWISaw+x1PigsOAkGhYUlwd2fvjbyzHBeOvjxce8jKMxzZ8loQ1/lUViL5TyT4LYkgcIgwaCwyCQYFBahhTwJBoVFaD0vvkBhkODfzYHCHHeaJcF/RmEPTBeBBH/1Agrz20MyakoSKCxEH9n/u0FhkGBQmPtWbBL83w5BYW7rjHKTpwMKi0qCv1oDhbntPPvxDgoL0V0ympckUBgkGBTmvkaeBP+Ewvqs56BFkwR/V0OgsKgk+KtzUFgkErw/2sXiBvNFIMF5NLDLfJ5JMCgsLgluSBIoLESf2VeBg8LCkuBbSRIoDBL8Awp7Zb8IJPirX6Awl51mpQcoLEL233VZkkBhkGBQmP/esyQYFBahVjK6l5GJwk5ZsPCWR6ZebVBYGBJ8MjIcuWXBwjsa/SHfOygsCglekyRQWIhusyQYFBail+wLAEFhkOD/dgIK89di/ik/KCxANvTqjvHfHrGhRxJstgwKC0KCNyUJFBaia5sE2w1AYe56ypJgUBgkeCQUxoYeSbDdFSjMW2vJ6FyZzkBh3trNX9qDwiJ0kv2TgsIgwaAw/92P84TXRmEXrOiQBNs1EigsDAkGhUGCQWHu286T4NFRWJMdI5DgPApbZEeHJBgUBgkGhUGC/78tUJirGpbweJIkgcIi1B7XeM0noyuGdEWCzyRJoLAI7eef7oHCItQ1SfC4D48GDOmKBC9KEigsLAkeNsb+GsEKS0YgwXkUtsWSZTY/9uN9G4XtM6U7EgwKgwSDwiDB32uCwsKS4DwKe2JKjyTY7gkU5qe39L13SRIoLELNlH2yAwqDBI9z4rjOmCW2Pck1/T4ozE2HyWhPkkBhIeqZJHiSz40zxnRDghckCRQGCR4Lhd0zpi8SDAqDBIPC3Lcx0emcjcLmmdMVCQaFRaib1V2gsBBdTXZXfwcU5qTHyX4MfB0U5qR+9noOFBaWBN9JkkBhEVq1SfDPfYDCopLgPAr7YM/iOk5GHUkChYXoYtIbOhegML8keE6SQGFhSfDHxLeQdxjUDwkGhUVoKS97QGER2srf0QWFQYJBYe7rTX4u/woKc9BNlgSDwkL0nP0rgsJCNJj4x19sFLbMpOWT4BuN1BEozDUJBoVBgidAYSds6pAE2y2CwpyS4KUpHiPcsGn5JLgpSaAwSDAozH1zNgkesVtQmEsSfDGVJmuzakHtJKNjjdgpKMwvCQaFQYInwySHrFpQv2wSPGIroLDSe81eyIHCItQcZkkwKAwSPNkB5IVZXZBgUBgkGBQWkwRvSBIoDBIMCoME/9QuKMwrCQaFRWhhStJjo7Bzhi2l9WTUkySBwiK0N/XDnD4orOROpzyJt1HYO8OWT4JBYSF6yJJgUFiAbNb9Ov2HyBrLFkyCf03/zbIO05bRSp4Eg8Ii1MmTYFBYhI6zqBcUFpcEr0oSKCxEd1nOAQoLS4L7Gq8HUJgvEvwoSQKFQYJHrAcK80WCu5IkUFiEDirwXDYK22PcEjqzSfB4bYDCfJHgtiSBwuKS4IYkgcIgwVOhsEfG9UiC7Z5BYf5I8NQorMG8RZNgUFhYErwtSaCwEF3aJHjcDkBhhfZQjejeBoU5IsFvkiRQWAwSXI3lWQCFhSHBdkPLlrNv7evkn+KAwiJ0lIx2JQkUFqJzmwSP33UymmPgckkwKAwSPPVnySYD17xGngSDwiK0mL98B4VBgsdpCRQWhQTbtUBhvkgwKCxE11nHAQoL0VOWBFeCwoagsJr3Wd0d/EtQmBMSfCtJAoVFaC1PgkFhkGBQGCR42h+g7rJxeSR4ucLziUs2dkiC7RqgsPJ6z5JgUFiEWiYJrvJw8snIdW45/7ENCovQdpXP8G0UtsTKDkmw3TEozAUJXpMkUFiIbrMkuDIUdszKNe4le94OCgtLgp8kSaCwsCT4WpIECovQZqXf6bdR2Bsz17f9in/1/Q4U5oAEb1b8bHGBncsiwYuauC4orKyesodsUBgkGBTmvvk8CQaFRWgtf+cOFBah3WR0VPWdxTuGrmsnNgmeojdQmA8SDAoL0X0yakkSKCxEb9nvc4PCItRMRg+SJFAYJHii9kBhUUiw3SYorHQSvFf971D3mLqe9ap/dtcyiRFTF0SCFzRVn6AwDyQYFBahxiBLgkFhEWrnP69BYZDgKlHYKmMXQ4IPZvHq4W3GrmPdZLQ5i5tLB4xdFgkGhYXo8ecTdn4+0vlVYPV6pzHkTlAhLZkkeCbGYNBk7kIuAs5no4y2mLt+3czmfP2Cl0SU0fwgGa1r2g6T0WeLwQvAAJX4zbWECSmh5lsyetbUNQfJqD/P5PXqNM3K7twlUEj9Wx4kq+2ZfbakI0avUfMvyWrQqujFUzwQqHdzD8nsRlX0kOx63A6qSSsvyW5HVXSQMr3u80+gBrV7g2T30VQVtT5Trv71yd4O/bt297v3w5Srq2o6S1RigwVV08KAMUvsQuIQELhBW1U132fO8uqqug6Ys7heW6qwewYtqerNxuIni0Y5A7TbYdKiem7qK64EQtZfVOVdM2sxDTZUfc1bhi2k4bbEv4C4DTqaTY1Lxi2g/qZm1tGQfevey5Jm2PorC9e7qznNtNY5B4Ea99bRzFvhXLCufXZb+hut33AUqGH9swX9rdonzwxeqwa3e0391dr7l09IoVr0+dDrzOlf1GivbnWQmf+y7c3V6Q/8/wP3+u56iLcTmAAAAABJRU5ErkJggg==;" parent="zNm0QSZDJS1atimLN_gq-96" vertex="1">
          <mxGeometry width="74.61" height="58" as="geometry" />
        </mxCell>
        <mxCell id="zNm0QSZDJS1atimLN_gq-98" value="Methods" style="text;html=1;align=center;verticalAlign=middle;whiteSpace=wrap;rounded=0;" parent="zNm0QSZDJS1atimLN_gq-96" vertex="1">
          <mxGeometry x="7.300000000000011" y="20" width="60" height="30" as="geometry" />
        </mxCell>
        <mxCell id="zNm0QSZDJS1atimLN_gq-99" value="" style="group" parent="1" vertex="1" connectable="0">
          <mxGeometry x="651" y="690" width="74.61000000000001" height="58" as="geometry" />
        </mxCell>
        <mxCell id="zNm0QSZDJS1atimLN_gq-100" value="" style="shape=image;imageAspect=0;aspect=fixed;verticalLabelPosition=bottom;verticalAlign=top;image=data:image/png,iVBORw0KGgoAAAANSUhEUgAAAgAAAAGOCAMAAADW9Ev9AAAAq1BMVEUAAAAAAAAAAAAAAAAAAAAAAAAAAAAAAAAAAAAAAAAAAAAAAAAAAAAAAAAAAAAAAAAAAAAAAAAAAAAAAAAAAAAAAAAAAAAAAAAAAAAAAAAAAAAAAAAAAAAAAAAAAAAAAAAAAAAAAAAAAAAAAAAAAAAAAAAAAAAAAAAAAAAAAAAAAAAAAAAAAAAAAAAAAAAAAAAAAAAAAAAAAAAAAAAAAAAAAAAAAAAAAAAAAAA0NbREAAAAOHRSTlMABAkNEBQaICQpLjI1Oj5BRUpQVFhbYGZrcHV6foOIjZOYnaKorrO5vcDDyM3R1tvh5ujs7/P4/JHuogEAAAxNSURBVHja7N1dT+JAFIDhM7UiRQSFYvxi44qoq9i6aOX8/9+z997sxSZLTIlV183UOsO8DwY/Er0456UgmiLWou4g9cSgGwnq1Zs+qkcepzvsrEabU/XOecze6rKVq4eyFpurR5yrl7INdleLiXrqjN3VYVu91WF7NThTb31nezWYq7fu2J69lnpsk/1Z66ryICBkO+qxLvsjABAACAAEAAIAAYAAQAAgAFgEMEmdc04A74mkVk+/nPPEkt/D/0kTAAgABAACAAGAAEAAIAAQAAgABAACEEn20oq+eKyfrrvh3pbUZOt0rh91JM451lDlJ5tizxw/qhKAnx72xZaZqhKAv76JpYkSgNeO7B4EpiMeJ/ttvG0TgDlhgp4zY5sABm0m6LvdxCKAXebnvz2LADiRxhroWATAOTW9Zr/EQv/ToTjnSAN302QAQ3HOiAAaDKAtzkkIoLkAMnFQTgCNBXAgDjokgKYCyIw4KMoJoJkAio44absggCYCKPriqN2CAD4/gFkizurcEsDnBrC4HhlxmBldLwigngCytGLQi8V5cW+Yrr2HBgK44tl1d/0kAAIgAAIgAAIgAAIgAAIgAAIgAAIgAAIgAAIgAAIgAAIgAAIgAAIgAAIgAAIgAAIgAAIgAAIgAAIgAAIgAAIgAAIgAAIggIACiBmaP4x5fpPltVn5ipFIzIa8ggC+akWmXNPyEi3fL/f35qX8PlldspEPIIB/KBdkVj82z2sxRl6sqPykspPl1cqOxD+xyyuqHufKFVWWU66ouqDyZ3CQeiH+lLui8vLW8e7N2xAr+hLJyWU+v69Q+G9xXzG/+zHuSKk9ZUzhuWg/nyt4cDvkGBiccu3DBbeGMC3+FpAUTCJURSIiV8whXFciXaYQsh05ZQghO5UZQwjZLEr4fShkScTrxwct2jikgJD9loz7wZDdyCVDCNlEJgwhZGMZM4SQ7csBQwhZTwYMIWQt/hYQtEKkxRQClomYhVYV11g3M33FhYjcaVXOU2Rrp69/2ruvtUS2LQzDP6BiTpgDYrbNAWHe/5Xt52mP1nbMllB01xzj+47X0W+vosJLYXQm6cE6ArCXu/Zzv/VrimC+MeaubjLakmwRwkNid13lfu7/OBltMpizTPkzbEjaTUZ7DOatfvrea/bs8JjBnDWfQcHSUjI6ZzFXZfT3hSS1ktENizlrJ3+g71tYlMWcdZyMOpJkorA3FnPWRTJakTLfDRvyngZn/cre77NR2AKT+X+B3Ify9wjXmMxVTZsE/85EYbwywldLyehKvzNR2CGbuWrLJsH5WwRdNnPVYf6Gv43CLtnMVT2bBP+uMeSV0O67+dOl3hsozHn23b6BJAkUFqKBTYIlgcIi1M4/8QOFhSbBEigsQnt/vNezBwqLSoK/2gSFhSTBS3+8T9xjNe8kuClJWRR2zWoRSPBXn6Aw380lo1+SJFBYbBIsUFhwEgwKC0uCd364SlxlNzdd5P/AeRS2zW4RSHAehR2wm5te0/f6kiRQWISaw+x1PigsOAkGhYUlwd2fvjbyzHBeOvjxce8jKMxzZ8loQ1/lUViL5TyT4LYkgcIgwaCwyCQYFBahhTwJBoVFaD0vvkBhkODfzYHCHHeaJcF/RmEPTBeBBH/1Agrz20MyakoSKCxEH9n/u0FhkGBQmPtWbBL83w5BYW7rjHKTpwMKi0qCv1oDhbntPPvxDgoL0V0ympckUBgkGBTmvkaeBP+Ewvqs56BFkwR/V0OgsKgk+KtzUFgkErw/2sXiBvNFIMF5NLDLfJ5JMCgsLgluSBIoLESf2VeBg8LCkuBbSRIoDBL8Awp7Zb8IJPirX6Awl51mpQcoLEL233VZkkBhkGBQmP/esyQYFBahVjK6l5GJwk5ZsPCWR6ZebVBYGBJ8MjIcuWXBwjsa/SHfOygsCglekyRQWIhusyQYFBail+wLAEFhkOD/dgIK89di/ik/KCxANvTqjvHfHrGhRxJstgwKC0KCNyUJFBaia5sE2w1AYe56ypJgUBgkeCQUxoYeSbDdFSjMW2vJ6FyZzkBh3trNX9qDwiJ0kv2TgsIgwaAw/92P84TXRmEXrOiQBNs1EigsDAkGhUGCQWHu286T4NFRWJMdI5DgPApbZEeHJBgUBgkGhUGC/78tUJirGpbweJIkgcIi1B7XeM0noyuGdEWCzyRJoLAI7eef7oHCItQ1SfC4D48GDOmKBC9KEigsLAkeNsb+GsEKS0YgwXkUtsWSZTY/9uN9G4XtM6U7EgwKgwSDwiDB32uCwsKS4DwKe2JKjyTY7gkU5qe39L13SRIoLELNlH2yAwqDBI9z4rjOmCW2Pck1/T4ozE2HyWhPkkBhIeqZJHiSz40zxnRDghckCRQGCR4Lhd0zpi8SDAqDBIPC3Lcx0emcjcLmmdMVCQaFRaib1V2gsBBdTXZXfwcU5qTHyX4MfB0U5qR+9noOFBaWBN9JkkBhEVq1SfDPfYDCopLgPAr7YM/iOk5GHUkChYXoYtIbOhegML8keE6SQGFhSfDHxLeQdxjUDwkGhUVoKS97QGER2srf0QWFQYJBYe7rTX4u/woKc9BNlgSDwkL0nP0rgsJCNJj4x19sFLbMpOWT4BuN1BEozDUJBoVBgidAYSds6pAE2y2CwpyS4KUpHiPcsGn5JLgpSaAwSDAozH1zNgkesVtQmEsSfDGVJmuzakHtJKNjjdgpKMwvCQaFQYInwySHrFpQv2wSPGIroLDSe81eyIHCItQcZkkwKAwSPNkB5IVZXZBgUBgkGBQWkwRvSBIoDBIMCoME/9QuKMwrCQaFRWhhStJjo7Bzhi2l9WTUkySBwiK0N/XDnD4orOROpzyJt1HYO8OWT4JBYSF6yJJgUFiAbNb9Ov2HyBrLFkyCf03/zbIO05bRSp4Eg8Ii1MmTYFBYhI6zqBcUFpcEr0oSKCxEd1nOAQoLS4L7Gq8HUJgvEvwoSQKFQYJHrAcK80WCu5IkUFiEDirwXDYK22PcEjqzSfB4bYDCfJHgtiSBwuKS4IYkgcIgwVOhsEfG9UiC7Z5BYf5I8NQorMG8RZNgUFhYErwtSaCwEF3aJHjcDkBhhfZQjejeBoU5IsFvkiRQWAwSXI3lWQCFhSHBdkPLlrNv7evkn+KAwiJ0lIx2JQkUFqJzmwSP33UymmPgckkwKAwSPPVnySYD17xGngSDwiK0mL98B4VBgsdpCRQWhQTbtUBhvkgwKCxE11nHAQoL0VOWBFeCwoagsJr3Wd0d/EtQmBMSfCtJAoVFaC1PgkFhkGBQGCR42h+g7rJxeSR4ucLziUs2dkiC7RqgsPJ6z5JgUFiEWiYJrvJw8snIdW45/7ENCovQdpXP8G0UtsTKDkmw3TEozAUJXpMkUFiIbrMkuDIUdszKNe4le94OCgtLgp8kSaCwsCT4WpIECovQZqXf6bdR2Bsz17f9in/1/Q4U5oAEb1b8bHGBncsiwYuauC4orKyesodsUBgkGBTmvvk8CQaFRWgtf+cOFBah3WR0VPWdxTuGrmsnNgmeojdQmA8SDAoL0X0yakkSKCxEb9nvc4PCItRMRg+SJFAYJHii9kBhUUiw3SYorHQSvFf971D3mLqe9ap/dtcyiRFTF0SCFzRVn6AwDyQYFBahxiBLgkFhEWrnP69BYZDgKlHYKmMXQ4IPZvHq4W3GrmPdZLQ5i5tLB4xdFgkGhYXo8ecTdn4+0vlVYPV6pzHkTlAhLZkkeCbGYNBk7kIuAs5no4y2mLt+3czmfP2Cl0SU0fwgGa1r2g6T0WeLwQvAAJX4zbWECSmh5lsyetbUNQfJqD/P5PXqNM3K7twlUEj9Wx4kq+2ZfbakI0avUfMvyWrQqujFUzwQqHdzD8nsRlX0kOx63A6qSSsvyW5HVXSQMr3u80+gBrV7g2T30VQVtT5Trv71yd4O/bt297v3w5Srq2o6S1RigwVV08KAMUvsQuIQELhBW1U132fO8uqqug6Ys7heW6qwewYtqerNxuIni0Y5A7TbYdKiem7qK64EQtZfVOVdM2sxDTZUfc1bhi2k4bbEv4C4DTqaTY1Lxi2g/qZm1tGQfevey5Jm2PorC9e7qznNtNY5B4Ea99bRzFvhXLCufXZb+hut33AUqGH9swX9rdonzwxeqwa3e0391dr7l09IoVr0+dDrzOlf1GivbnWQmf+y7c3V6Q/8/wP3+u56iLcTmAAAAABJRU5ErkJggg==;" parent="zNm0QSZDJS1atimLN_gq-99" vertex="1">
          <mxGeometry width="74.61" height="58" as="geometry" />
        </mxCell>
        <mxCell id="zNm0QSZDJS1atimLN_gq-101" value="Outputs" style="text;html=1;align=center;verticalAlign=middle;whiteSpace=wrap;rounded=0;" parent="zNm0QSZDJS1atimLN_gq-99" vertex="1">
          <mxGeometry x="7.300000000000011" y="20" width="60" height="30" as="geometry" />
        </mxCell>
        <mxCell id="zNm0QSZDJS1atimLN_gq-104" value="Dockerfile and hosted image" style="text;html=1;align=center;verticalAlign=middle;whiteSpace=wrap;rounded=0;" parent="1" vertex="1">
          <mxGeometry x="465" y="850" width="100" height="30" as="geometry" />
        </mxCell>
        <mxCell id="zNm0QSZDJS1atimLN_gq-105" value="Tests" style="text;html=1;align=center;verticalAlign=middle;whiteSpace=wrap;rounded=0;" parent="1" vertex="1">
          <mxGeometry x="560" y="849.38" width="80" height="30" as="geometry" />
        </mxCell>
        <mxCell id="zNm0QSZDJS1atimLN_gq-107" value="Organise repository" style="text;html=1;align=center;verticalAlign=middle;whiteSpace=wrap;rounded=0;" parent="1" vertex="1">
          <mxGeometry x="511.39" y="747.5" width="195" height="30" as="geometry" />
        </mxCell>
        <mxCell id="zNm0QSZDJS1atimLN_gq-108" value="Create research compendium" style="rounded=1;whiteSpace=wrap;html=1;" parent="1" vertex="1">
          <mxGeometry x="508.63" y="640" width="199.35" height="30" as="geometry" />
        </mxCell>
        <mxCell id="zNm0QSZDJS1atimLN_gq-110" value="" style="shape=image;imageAspect=0;aspect=fixed;verticalLabelPosition=bottom;verticalAlign=top;image=data:image/png,iVBORw0KGgoAAAANSUhEUgAAAYAAAAIACAMAAAC8QUvIAAAAkFBMVEUAAAAAAAAAAAAAAAAAAAAAAAAAAAAAAAAAAAAAAAAAAAAAAAAAAAAAAAAAAAAAAAAAAAAAAAAAAAAAAAAAAAAAAAAAAAAAAAAAAAAAAAAAAAAAAAAAAAAAAAAAAAAAAAAAAAAAAAAAAAAAAAAAAAAAAAAAAAAAAAAAAAAAAAAAAAAAAAAAAAAAAAAAAAAAAADDIYgjAAAAL3RSTlMAvgQH0/z44+scGCAMKCRfQ3repxTw2pwJhC70WDZ0rBA8xm64jGVRysGTSbLOJu7fnRIAAAiySURBVHja7N2NTuJAGIXhQ2VoAbVUaKEtP+VXUfS7/7vbmKyuykiZGWibzXnuwPNiptFOwGVl6cbvqPh1PJ3AUREO27HKk8O8D1eD7SpQKlhtB3DVnx+SXOXtYVigcQYr+RRHt3DQG3fkgzpkcBE+yKeHHVxkByUfOuMeGuV2KN/4S1ibxvKVSj3Y6q/km1Uf1lIlX8VTNEjxJD90HmEpkp8WtgUyX37wM9jxFvJThMbw9nKkM4OVUI49w8rIlyP+CFae5ViIppiLRnIDC91cNF5gYyEaC9h4EY28i2aYBKKzs/uk6TzBQiZaGSw8ic4zmuFRtPYw5wWi9QZzW9Hawty9aAUeGmErWjnMvYleCHP7y30uQtG7QyMMRa+AsaXozWEuEa3E6pDTGzQ7wAjGBqIXwdyDaD3AXMQADMAADMAADMAADMAADMAADMAADMAADMAADMAADMAADMAADMAADMAADPC/BfCyMB222olfJhc931wgerFvTomW8s3Fohf4v0jarWEaZh6sZVErF3KUt6IMFvppwvEuJUn7MLM8KM52SeqwNJl/z8Uub39ugu6QY13HsIszrGMudS3xGmV6G850TZseTpr53Oi6/BlOmHa40LV1pvjVmvNUYQ3oRdymGhE//038HZhyl+pMcWTG87ci+hvUIz5/VkV/WXzBTaq1wDchF6laiC9GAQepWjDCP2PuUb0xPmX870sNVMYTuCHn8B23qMcdT4BGnAIF3z2pSV7g3Y5L1GWHd3wFojZ7AOjxGbQ2qse/QtQr5DNQ/c9BfAW0RglQcIU6FVjKeVQcnNIRvcBcLHp5YE6JlgrM5aIXG/wMx5bYyRmSaDbhDRmTGzKTWZTIGUKkUioIPV5RKgmg4e0CKZViLGVeu7wjZhMA6L5KmTEWpfvf8pKeZQAUbSmxwEZOi/u8JWkdAPexnLZBS05b85qqQwCs5bRWWQD/hgFcAkwCxwBbXtR2CoCtY4AXBnAL8OIYoMsAbgH6jgEmDOAW4NYxgMcAbgFuGIABGMAlAL9D5q95swNs/7R3L0qJY1EARY8oKD5RXkEBFVFRtO///92UM9PVbUuLkkgktfYfeFZJUnK9Jy2sUYtPd1TgFqVJWtikwC1K598DYFjcT1rrFrd97TEt7LG4nXDd2vcAuFo8tZtYoX5a1E6s0Cgt7DpWaGfJIfNyAWKQFrR7GCt03EgLGsYqTdOCpsUtC2z8+C4A2XN6U31e3GLQy1ipg+6Sv7DnvJhwHN8FIJq9N/O/iyhqcexDFqt1/Uagex2rlT0seZiUCxCdaXpV9z5WbtxIr+pnsWrnvfSq3nmsWtZPr2qMoxSA5cvb829cP3pKv5q1IkfZaff3VfdZ5Kg1S796OopvBhC1eX+nkVLae7rpRM6OT7deBncxux1FzrJh+6yeUv2sPcwiZ6Pb2cUL5NbpcUQZAMu76mRRUIedqyioWqdTi4K66hzGS+sB0KIAABAAAAIAQAAACAAAAQAgAAAEAIAAABAAAAIAAAAAAAAAAAAAAAAAAAAAAAAAAAAAAAAAAAAAAAAAAAAAAAAAAAAAAAAAAAAAAAAAAHkBmkeV6bi2gQCXqULtHG4cwDxVquHGAZykSnUCAAAAAAAAAAAAAAAAAAAAAAAAAAAAAAAAAADw7QBGqVLdbxxAnO41KtNFu+ZYimMpAgBAAAAIAAABACAAAAQAgAAAEAAAAgBAAAAIAAABACAAAAQAAAAAAAAAAAAAAAAAAAAAAAAAAAAAAAAAAAAAAAAA1QTYP65MB5sI0E4V6vlw4wBalvi4tM+tiQAAAAAAAAAAAAAAAAAAAAAAAAAAAAAAAAAAS3ws8fnKJT7demVqXG47luJYigAAEAAAAgBAAAAIAAABACAAAAQAgAAAEAAAAgBAAAAIAAABAAAAAAAAAAAAAAAAAAAAAAAAAAAAAAAAAAAAqC5A56AyNa0wscLEChNXlrmyDAAAAAAAAAAAAAAAAAAAAAAAAAAAAAAAAAAAAAAAAD+7tsSnXIAYXKTKVLfEx8EsAQAgAAAEAIAAABAAAAIAQAAACAAAAQAgAAAEAIAAABAAAAIAAAAAAAAAAAAAAAAAAAAAAAAAAAAAAAAAAAAAAAAAAAAAVBHgqlmZ9jcRoJ8q1MQiN4vcXFsJAAAAAAAAAAAAAAAAAAAAAAAAAAAAAAAs8bHE588GjVSdnjZyiU+tOjkV4VSEAAAQAAACAEAAAAgAAAEAIAAABACAAAAQAAACAEAAAAgAAAEAAAAAAAAAAAAAAAAAAAAAAAAAAAAAAAAAAAAAAODLAA73K1NnEwH69VSdJpkVJq4sc2kfAAAAAAAAAAAAAAAAAAAAAAAAAAAAAAAAAACAJT6+Efut20aqTtNs8wCidliZMueCnAsSAAACAEAAAAgAAAEAIAAABACAAAAQAAACAEAAAAgAAAEAIAAAAOQDyIwwX1lOgH0jzFczJ0DLCPPVygkwMMJ8DXICnHkK56q2mxMgnRhinu7SMoBper89j+EcNffS+03jMi3pwZvoymWTtKTL6KdlbV2Z5Gp1HtKy+jFISzubm+Uq3e+mpQ3iLn2gyUnTPD9X826WPtBdtNLH6vZ29OF63fSxWtFJKrFOxK4plNduRLSNobzaEXFnDOV1FxFNYyivZkTEzBzKahYvjQ2irMbx0n7DJMqpsR8R3oPKqx3/NTKKchrF/03NooymEX4FSv8F8BQorXb86uDCPNbdxUH81o2BrLubeNWWiay3rTdf35vJOttrxh+16qayvuqt+DePgZK6iQUNzGVdDWJhjyaznh7jL92azTq6jb829iT+8urjeKf7rgl9bd37eLcfz2b0lT3/iCVtD3wMfVn1wXYs73xiUl/T5Dw+1rBnWMXXG8aHqw2dVSm42bAWn2rU90JUWN3+KD7f9vzRR1EB9R7n27Fq+/Nxf6u31/Bm9Onqjb3eVn88X/JPjv8AaOuulMpd2A4AAAAASUVORK5CYII=;" parent="1" vertex="1">
          <mxGeometry x="666.27" y="787.51" width="44.06" height="58.75" as="geometry" />
        </mxCell>
        <mxCell id="zNm0QSZDJS1atimLN_gq-111" value="Documentation" style="text;html=1;align=center;verticalAlign=middle;whiteSpace=wrap;rounded=0;" parent="1" vertex="1">
          <mxGeometry x="648.3" y="850" width="80" height="30" as="geometry" />
        </mxCell>
        <mxCell id="zNm0QSZDJS1atimLN_gq-112" value="Create summary report" style="rounded=1;whiteSpace=wrap;html=1;" parent="1" vertex="1">
          <mxGeometry x="214" y="640" width="199.35" height="30" as="geometry" />
        </mxCell>
        <mxCell id="zNm0QSZDJS1atimLN_gq-114" value="" style="shape=note;size=20;whiteSpace=wrap;html=1;fillColor=none;" parent="1" vertex="1">
          <mxGeometry x="190" y="690" width="250" height="190" as="geometry" />
        </mxCell>
        <mxCell id="zNm0QSZDJS1atimLN_gq-115" value="Produced X/X (X%) items from scope in Xh Xm." style="text;html=1;align=left;verticalAlign=middle;whiteSpace=wrap;rounded=0;" parent="1" vertex="1">
          <mxGeometry x="200" y="700" width="195" height="30" as="geometry" />
        </mxCell>
        <mxCell id="zNm0QSZDJS1atimLN_gq-116" value="" style="shape=image;imageAspect=0;aspect=fixed;verticalLabelPosition=bottom;verticalAlign=top;image=data:image/png,iVBORw0KGgoAAAANSUhEUgAABu0AAAPnCAYAAAAriwE3AAAABHNCSVQICAgIfAhkiAAAABl0RVh0U29mdHdhcmUAZ25vbWUtc2NyZWVuc2hvdO8Dvz4AAAAqdEVYdENyZWF0aW9uIFRpbWUARnJpIDE0IEp1biAyMDI0IDE1OjM4OjQyIEJTVJo4DxAAACAASURBVHic7N13eFN1/8bxO0nTvQcdlA4KCJQl41FwgCI4EUXcezyOx4Eo8lPcOHBPxL0VEVBEQVSGoIIgskehFFrKpqU7TTrz+6MQiW2hOw28X9flZXvW93Nykurp3c/3GOx2u10AAAAAAAAAAAAAXMbo6gIAAAAAAAAAAACA4x2hHQAAAAAAAAAAAOBihHYAAAAAAAAAAACAixHaAQAAAAAAAAAAAC5GaAcAAAAAAAAAAAC4GKEdAAAAAAAAAAAA4GKEdgAAAAAAAAAAAICLEdoBAAAAAAAAAAAALkZoBwAAAAAAAAAAALgYoR0AAAAAAAAAAADgYoR2AAAAAAAAAAAAgIsR2gEAAAAAAAAAAAAuRmgHAAAAAAAAAAAAuBihHQAAAAAAAAAAAOBihHYAAAAAAAAAAACAixHaAQAAAAAAAAAAAC5GaAcAAAAAAAAAAAC4GKEdAAAAAAAAAAAA4GKEdgAAAAAAAAAAAICLEdoBAAAAAAAAAAAALkZoBwAAAAAAAAAAALgYoR0AAAAAAAAAAADgYoR2AAAAAAAAAAAAgIsR2gEAAAAAAAAAAAAuRmgHAAAAAAAAAAAAuBihHQAAAAAAAAAAAOBihHYAAAAAAAAAAACAixHaAQAAAAAAAAAAAC5GaAcAAAAAAAAAAAC4GKEdAAAAAAAAAAAA4GIeri4AQOux+4DV1SUAaICYMB9JfIYBd8bnGHB/fI4B98fnGDg2HPosA4A7otMOAAAAAAAAAAAAcDFCOwAAAAAAAAAAAMDFCO0AAAAAAAAAAAAAFyO0AwAAAAAAAAAAAFyM0A4AAAAAAAAAAABwMUI7AAAAAAAAAAAAwMUI7QAAAAAAAAAAAAAXI7QDAAAAAAAAAAAAXIzQDgAAAAAAAAAAAHAxQjsAAAAAAAAAAADAxQjtAAAAAAAAAAAAABfzcHUBAFwvv7hMkmSX3cWVAGgIPsOA++NzDLg/PseA+2vOz7FBBhma/KhoTofeBVw398J/hQG4O0I7AHpmw1cqr6xwdRkAAAAAABxzTgnrriGexTLYue92JzbPdvJKy5ahstLVpaAeLIkdpTAfV5cBAA1GaAdAkvTW9hmuLgEAAAAAgGPOKWHdJUkBxStdXAnqw+bZTpIUsHm9iytBfVgSO7q6BEhK2bJdB3IL5OVlVr+enV1dDuBWCO0AAAAAAAAAAGig7Jx8/bliQ7XlRoNRXl5mBQf6K6FdlMJDg1xQXcub9MlMLVi8UjGRYZr79cuuLgdwK4R2AAAAAAAAAAA00Jb0nXrwmfeOul2n9rG64fJzNfzsU1qgqtbr8Zc+lqXYpl7JHXTNJUNcXQ7QqhhdXQAAAAAAAAAAAMcCk8kkT7OH45/DpW7bqXET3tcjz3/ooupah3m/rdCcBcu0ekOaq0sBWh067QAAAAAAAAAAaAJj7rhc140c6vi+orJSmbv2a9bcJfpk6k+y2Uo1Y87v6t6lvS6/8AwXVgqgNaLTDgAAAAAAAACAZmAyGpXYLkp33zRCrz15l2P5l9/OdWFVAForOu0AAAAAAAAAAGhmp53UQ7HREdq5J0vpmXtUUVEhk8lU6/b7s/P065JV2piaobyCIvl6eykxLlpnntpbHRLaHnW89ZvStWzlRu3ed0AlpWUKDPBTUnyMevfopMR2UdW2T9+xV3v3H5DRYNRJvbvUetysA3lKy9glSerZNUm+Pt51OPuqZ/9l5+SrvKJCkpSdk68/V2xw2sbDZFK/Xp3rdDzgWERoBwAAAAAAAABACwgPC9LOPVmqrLTLVlImP9/qoV1FRYXe+PBbfTbtZ5WWlVdb/8aH3+ric0/Vo6Ovr/bcPEnatn23xj33gdalbKu1jsS4aL3wyO3q2inesezLb+fqqxnzZTIatXbBR7Xuu3j5ej383AeSpG8+GK/OHeKOeM6HvPv5D5qzYJnj++WrN2n56k1O2/h4e+nvn96t0/GAYxGhHQAAAAAAAAAALSA7J1+S5O/nIz/f6h1qFZWVuvvhN7Ro6RpJUpeO8Tr1P90VGhygnLxCLVq6Rqlbd+jbH39XYZFVr42/y2n/vftzdN09E5SbXyhJ6pXcQScktZPJZNLufdlasTZVhUXFSs/co4yde51Cu+YWHOivyPAQZeXkqbLSLm8vTwUF+Dlt4+Pj1WL1AK0RoR0AAAAAAAAAAM0sdesO7dydJUnq3ye5xm3e/ex7LVq6RgaDQY+Nvk6XXXiG0/pRt1yi5yZO1hffzNXc3/7WoqVrNPDkno71b386U7n5hTKbPfT2c6OrjVNRWakFf6zUO59938Rnd3SP3HutHrn3Wp1y4V3KKyjSGaecqJceu6PF6wBaM6OrCwAAAAAAAAAA4Fi2LztXY5+umvbRZDTqv9dcUG2bgkKLPpoyR5J005XnVQvsJMlgMGj0rZcqOjJMkvTt7N+c1i9dtVGSlHxCQo3BoMlo1JDT+2rqe0/olL7dGndSAJocnXYAAAAAAAAAADSBTVu268eDz22rrKhUQZFFm9Iy9fPC5SqyWGUymfTCI7cpuVNCtX3n/rZCVluJTEajbrz8nFrH8Pby1IC+yfpm9m9atX6L0zoPU9Uz8vbuz1FpWXmNz7yTqsK7oEC/GtcBcB1COwAAAAAAAKCZGGRwdQloAIOB64aGmfnzYs38eXGN63p2TdID/7tCJ3brWOP6letSJUlBQf76c8XGI45jKbZJkg7kFqiislImY9Wkej26tFfGjr3auz9HN4yaoJuuOE8n9+kqfz+fhp4SgBZEaAdA4n9EAQAAAABoFnbZie3ckN1uJ7hDg/j5esvby9PxfUFRscrKymUwGHTH9cNrDewkaV9WriQpJ7dAD4x/u85jFltLFHAwlLvj+uH6dfEqFVqsWrNxq0Y99qaMRoPax8Woa6d4ndS7qwaf1sexPYDWhdAOgGS3u7oCAAAAAACOWdx1uyc7vy9BA9x10whdN3Ko4/s/V2zQbWNfUUVFhe5/cpK+ePNhdUpqV+O+xdaq7rkAf1+deWrvOo9pPjglpiTFtY3U1+8+oVffm6Zfl6xSeXmFKivtSsvYpbSMXfr+lyV66tXPNOaOy3XlRYMbeJYAmguhHQA67QAAAAAAaEbcdbsnOu3QFPr3Sda4e67WU69+JkuxTbc/+KqmvP2Y2oQHV9vW38/34L999OyDtzR4zPjYSL02/i4VWqxauS5VazduVUrqdv29drMsxTbZSkr19GufKzw0SENO79vgcQA0PaOrCwDQCvCXYwAAAAAANBvuut0TnXZoKlcMP1PXXDJEkrQvK0d3jntVVltJte1io8Md2+TmFzZ63AA/Hw08uafuvmmEJj03WotnTtSjo69zBNKfT//FaftDz+CsqKxURUVFo8c/Gj5jQHWEdgDotAMAAAAAoBlx1+2e6LRDUxp755U67aQekqSNqds1Zvzbqqx0Dq3+c2IXSVJlpV3f/fRHk9dgNnvoiuFnOp6rl7lrv9N6P19vx9e79mY3+fiHeHpWTQBoKylttjEAd0VoBwAAAAAAAABAMzIZjXrpsTvUIaGtJGnhktV6/q3JTtuceWpvx7SZkz6ZqY2p2494zLyCIn357TynZc9PnOx4Nl5tCouKJUkhwQFOy+PaRjq+nvvbihr33b5zn6bMXHDE4x9NRGjVOaZsyawWXALHO0I7AEyPCQAAAABAM+Ku2z0xdR+amr+fjyY9N1qhB8OyL76Z6xS6eZo9NO6ea2QwGFRstenae57RO59/rz37Dji2KSsr199rNmvCm19qyOVjNGfBMqcxPpv+i86+aqwmffKdtmbsdlqXX2DRK+9O1Zb0nZKkC87q77T+lH7JMhmrIoN3P/9es+ctVU5ugQoKLfp7zWY9/uLHuvCGcVqXsq1Rr0OfHp0kVU0D+uKkr1RosUqSsnPyNe/3msNC4Hjh4eoCALQCTPcAAAAAAECz4a7bPTE9JppD26hwvfn0KN04+jmVlpXr+YmTFRsdroH9e0mShpzeV4/ce60mvPmlbLZSvfnht3rzw2/l7+cjs4eH8gqKjhoo5+QW6K1PvtNbn3ynAH9fRYQFy2or0f7sPMez6k7p113XX3q2036REaG68uLB+uKbubIU2zT26XeqHdvH20un9OuuRX+ubvBrcPWIIZo2a5GsthJ9Nv0XfTb9F3l4mFReXiEfby/9/dO7DT424O7otAMAAAAAAAAAoIX06tZB48feJEmqqKzU/U++rZQt/0yFecXwMzX13Sd09qB+8vI0S5KKLFbl5hc6AruEdlG64/rhevr/bnY69qTnRuus0/rI28tTUtVUmNu279aefQdUUVGhNuHBuu+2yzRpwr3y8DBVq23s/67QtSOHymRyXmc0GjR0YD/N+OgpDR3Yt1HnHxsTofdfGqP28TGOZeXlVWHi4c/VA45HBjt93sBxb+zyz/R6+nRXlwEAAAAAwDFncu/HNMSzWIGW5a4uBfWQFTxcXmnZCkxZ6+pSUA97z7lYUXERri6jSZWWlWtzWqayc/JlKylVUICfkhJiFBkResT9yssrlLptp3bvy5bVViIfby/Fx0YqKb6tjMajd5Fm5+Rr5bpU5RdYFBIUoBO7d1RYSGBTnZZDxo692r3vgMweJoWHBSu+bWSd6gOOVUyPCQAAAAAAAABAK+Rp9lD3Lu3rvZ+Hh0ldO8Wra6f4Bo0bHhqkoQP7NWjf+khoF6WEdlHNPg7gLpgeEwDPtAMAAAAAoBlx1+2eeKYdAKClEdoBkJglFwAAAACAZsNdt3viqUIAgJZGaAeATjsAAAAAAJoRd93uiU47AEBLI7QDQKcdAAAAAADNiLtu90SnHQCgpRHaAQAAAAAAAAAAAC5GaAeA6TEBAAAAAGhG3HW7J6bHBAC0NEI7AEyPCQAAAABAM+Ku2z0xPSYAoKUR2gGg0w4AAAAAgGbEXbd7otMOANDSCO0AAAAAAAAAAAAAFyO0A8D0mAAAAAAANCPuut0T02MCAFoaoR0ApscEAAAAAKAZcdftnpgeEwDQ0gjtAAAAAAAAAAAAABcjtAPA9JgAAAAAADQj7rrdE9NjAgBaGqEdAAAAAAAAAAAA4GIeri4AQCvAHO0AAAAAADQb7rrdE8+0gytVVLZMp6fJyPscaE0I7QAAAAAAAAAAaEWKSyq0pzC/WceI8g9UoK+5WccAUD+EdkALsNlKtXFLhiTpxG4dW99fajFHOwAAAAAAzYa7bvfEM+3gSna7XR9sn63X06c3y/FHJY7UI8lXNsuxATRco0O7/AKLvp3zW7XlJqNRZrOHggP9dUJSO7WPj2nsUHChvftz9MnUnyRJl194hhLjol1ckXvZsWe/rr37WUnSyl/el5fnP3/B8sq7U1VaVq7+fbpqYP9erimwtYWIAAAAAAAcQ7jrdk+t7o+ucVzh/Qccnxod2uXkFeilt78+6nY9uiRp/Ngb1TExtrFDNlhZWbmGXT9OkvTuC/crPjbSZbW0Jh9/PUdfz/xVp53UQw+PuqbGbQ7k5uvz6b9Ikk79T3dCuyY0ecZ8WW0l8vQ0O4V2vF8BAAAAAACA4xOdnk1rU1qmiq02xcdGKSwk0LE8v8Cirdt3ydNsVrfOiS6sEKjSpNNjXnL+6QoOCpAkVVZUymor0bpN6dqYmqG1KVt1030vaNanExQU6NeUw9ZZpd2uHbv3S5JKy8pcUkNrlJtfpB279yvrQF6t2/j7+eqUft0lSSHBAS1V2nFhQN9k2UrKlNguymk571cAAAAAAADg+HQsd9ot+nO1tmXuqdO2vbt3Us+uSY0ec9yE97V56w49+cCNGnn+QMfyv9du1j2PvKHI8BAtmP5qo8cBGqtJQ7trRw6tsZNu0Z+r9b+HXlNOboHm/7FSI847rSmHRQuIj43Uey/e7+oyjklvPH2Pq0vgmXYAAAAAADQj7rrdE51OQPP4Ye6fmrNgWZ22vfvmEU0S2uHoVqxN1cPPfaCgQD99/c7jri7nuNWkoV1tTj+5p3x9vFVstR2xm0uqalPdlJapIotVocEB6t29k6LahB5xnyKLVWtTtml/dq4MBoNiIsPUtVOC/Hy9HdsUW23KK7A4vs8rKFJ2Tr7je0+zhwID6tYBWFpWroJCi4xGo0IPdp2lZezSupRtspWUqn1cjPr2OkEmo7FO+0pSeXmFCoqKFRTgK5PJJKlqesSMnXu1PztX2TkFstvtCgkOUJcO8WoTHlynWnftzXa8nsFB/krulKDw0CDH+uycfFmtJY7aDn9NJCk40F8eHibZ7XYdyC2QVNVpV9O5HTrG2o1btS8rVwaDFNc2Ul06xjnOqSYNueZHYrfbtXNPlvbsO6Ds3AJZrSUKDPBVUnzMEZ+tmJNboEq7XUEBfjKbq380KioqlJtfJElOr+G/7cvK0V+rN6moyKrINiFKPuHIbdV5BUUqL6+Qv5+PvL08JTXt+7VOjuG/3AEAAAAAwNW463ZPx3KnE1q/4yE0bhsVrpP7dD3iNl06xrdQNbDaSrRj934VFvm7upTjWouEdqVl5SopKZUkxbVtU+M2q9Zv0fhXP1Pq1h1Oyw0Ggy4cOkCPjr5OPt5eTutsJaV67f3pmvbDQtkOHv8Qk8mkk3p30fgxNyo6MkwfTJ6tdz//wbH+hlHPOW1/Sr/ude4kW7hklUY//pZiIsP04StjNf6Vz/Tnig1O2yQlxOj1p+6pNuXh4fvO/fplLVm+Xu99MUsr1m1WZaVdSQkx+v6TZzXv9xUaM/5tlZWVVxvfYDCof99kx7nVZP2mdE2Y+KVWr0+rtu/JvbvqtmuHqXf3jho4YpRj3aI/Vzt9L0mTJz2qnl2TVGSxOtbN+fJ5xbV1fr5aeXmF3v5spj6f/ossxTandWEhgRp+9im6++ZL5HlYGNaQa340+7PzNOz6h1Rksda4PjEuWo/ff7369excbd2w68cpr6BI775wv079T/dq67ek79IltzwmSVo7/8NqQaTVVqJn3/hCM+b84fQfVZPRqO5d2tda802jn6/Wmt2U71cAAAAAAAAAaG26dkrQ+AducnUZQKvSIqHdN7MXqaKyUgntonTWaX2qrf992Vrd/cgbKisr1+kn99Ap/brLbPbQtu279e2Pv2vmz4uVdSBP7704xukvXMaMf1u/Ll4lXx9vDT/7FMXFRspqLdGGzRlavmaTlixfr517shQdGaaYyHD16tbBEWJ16Rjv6GqSpI7t29b7vLJz8nXRjY+opLRMJyS1U3xslLIO5GnNxjRtzdit/455UTM/fsap4++QsvIKPfrCh/r2x9+dlldWVEqq6h4sKytXm/BgdemYoJioMBlkUOaufVq6cqOWLF+vm+9/QTM+elpenmanY/y2dK1GPfqGSsvKFRkeolNP6q5Afz/t2L1ff67YoD9XbFC7tm3Uu0cnndito3bvO6B9WTkKDvRXYly007H8fX2O+jqUl1fotrEva+nKjTIYDBrQr5s6tY+VzVaqletSlbptpz6aMkfXX3aOo0Otodf8aMrKy1VkscrXx1s9urRX2+hw+fl4KysnX3/8tU7pmXt065iXNO39J9Uhof7X/Eivwa0PvKyV61JlMBjUr2dntY+PVlGxVRmZe7Vm49Z6Ha853q9HdBz85Q4AAAAAAK7CXbd7Oh46ndB60enprC6zoNlspSoqtsrs4aGgwMbNUnYgt2rmu8NnR6tJkcUqW0lpvWZGq2lWuwO5BVq6YqPyC4vUNipcA/p2c5oNrqysXMtXb9L2XftkNnvoxOSOSkqofVa5QwotVv29epP27s+RyWRUYny0TkzuKA8P54aU/AKLCgqrZn6zy15tRj4/X+96N9igYZo0tPth7p+OD4y9slKFFqv+/HuDVm9IU8+uSXrp8f9Vm3Ywr6BI//fMuyorK9cT99+gS4cNclp/7SVDNeKWR7Xk7w1auGS1zjjlREnS2pSt+nXxKpmMRn39zmPVpj08kFugj6b8KLNH1XgjLxioYUMHqPfQ/0qSJoz7b43P36uP0rJy9enRSQ/dfbVTm+7fazbrtrEva8++A/p8+i+6/boLq+2bdSBPM+b8obMH9dOI805X+/gYVVZUKie/6sPaK7mDpr73hLp2jK/2A3pDaoZuGPWctu/cp3m/rdD5Z53sWJeTW6CxT7+j0rJyXTCkv8Y/cJNTqFdkserTaT+roNAik9GoLyY+rFfem6YPJ89Wv16d9dr4u+r9Okz8eIaWrtyoAD8fTXputHp37+S0ftX6LZrwxpeO7xt6zesiONBf7784Rv16da72XssvsOi6e55VWsYufT79Fz055sZ6n2ttPvhqtlauS5WPt5cmPjtKJ/d2butetjJFN933fJ2P1xzvVwAAAAAAAADugdDY2bbMPbroxkckSSt/eb9aI4skTZ21UM9PnKwTu3XUFxMfbtR4d417XWtTtmrkBQOP+Hvk60dN0Ka0TI265RLdes2wOh07r6DIMavdjA+f0pSZCzR9VlXj0yFRbUL11rP3qnOHOE39/le9+dG3yskrdDrOlRcN1sOjrqkx4C0tK9frH0zXl9/OqzabX1SbUD1x/w067aQejmV3jntNq9ZvkVT1e/R/z8g3+tZLdctV59fp/NA4TRrafTh5dq3rrLYSzfvtb1094iynaQW/nvmr8gssGjSgV7XwRpJiYyJ0xUWD9eHk2fp54XJHgLNt+x5JUmhIYI3PKQsLCdQDd1zRyDM6sqg2ofrsjXHVlvfteYIuH36mPp36k2bPX1pjaOft7alJz47WSb27OC2PjYmQJCX8a1rNwyV3StDA/j01Z8EybUrb7hTaTf5uvgqLihUbE6Gnxt7sNB2lJPn7+ejOGy5SaQ3TbjaEpdimL7+dJ0kac8cV1QI7STqxW0d99fajjuemNfSa14Wfr7cG9OtW47qgQD9dNeIsjX/lU21Ky6zzMY+mtKxcn037WZJ0z80jqgV2khQaElBtWavCX+4AAAAAANBsuOt2T3Q6wZV4/7nWlRcP1tqUrZo9b6nG3HGFAvyqz0i3av0WbUrLlKfZQyMvGNSgcW4e86JycgsUHRmm5E4JspWUavnBzrhRj72pjomx+nXxKpnNHjqpdxcFBfhrY2qGdu7J0lffzVePrkm6cOgAp2NWVFTo9v97WctWpigsJFAXnXuaEg7OEvjHX+u0cl2q7nzoNX346ljHY6ROSGqnwqJipWXskslkUo9/Pe4pKiK0QeeH+mvS0O6S809XcNA/4URFRYUKi4q1ekOaUrft1PNvfaUFi1fpnefuk7d3VUvpb8vWSJLOHvSfWo/bpUOcJCktY5djWXSbqme5ZR3I06dTf9LVI4ZUa+lsbsYj/OAc1L+nPp36k9Iz96jYapOvj/MUmaFBAdUCu9pk7tqn1K07tS87V7n5hcrLL9LG1AxJqvb8uN+WrpUkXXBW/2qB3eGOtK4+/l67WcVWm8xmD10wpH+t2x0e1Db0mtdXTm6BNqVlaseeLMfrlrJlu6Tqr1tjrNmYpvwCi4xGgy4+7/QmOy4AAAAAAAAAHKsyduzVB0doBDp/8MmKjgxrwYr+cc4Z/9GLk75STl6hZv70h665ZEi1bSbPmC9JOnfwyQoNbmDTht2uCeNu1bAh/R1BbcqW7br8tie1c3eWdu3J1mUXnqG7b7xYoSGBkqSS0jLdNvZlLV+9Sd/MXlQttHvn8x+0bGWKOibG6tPXH3KaKvTWay7Qs298qckz5un5iV9p+vtPSpIeHX2d/vhrnW4b+7IC/Hwa3amIhmvS0O7akUNrncLvzxUbdOdDr2n56k165/Pvde9/R0qS0jOrOuYeevY9PfTse0c8fqGl2PF1v16d1bVTvDambtcLk6bo7c++V58endTthER179JeJ53Ypdr0iC0pNqaNpH/mp/13aHc0drtd3/z4mz6ZMkfpO/bWvt2/vs/YUfV6dj4YejW3jIPXLyE26ohz+x6uode8rpav2aSJH83QirWptbeRN2F7+aGuz7ZRETX+xYVboN0eAAAAAIBmw123e2J6QrjS8fD+25K+U6++N63W9T27JrkstPM0e2jEeafrg8mzNWXmgmqh3YHcAs397W9J0tUjzmrwOJ++/lC1mQS7dIxXt86JWrNxq64ecZYeuvtqp/VenmZdedFgLV+9qdqMcjZbqT4/OCvchHH/rfZsP4PBoFG3XKJpsxYqZct27di9X+0OZhloHVos1erfJ1kXn3uapsxcoDm/LnOEdkWWqo6n3t07KTjQ/4jHOHyKQaPRoI9efVAvvT1Fs+ctVWFRsRYuWa2FS1ZLqpoK8f7bLtcl57um8+nwTrbS0vpPRfnkK59q2g8LJUndOifq1H7dFde2jSLCQxQaHKAPv/pRP85fWm2/YmuJJMnXp2UeCnmoY60+4zX0mtfFrLl/6sFn35Pdbld0ZJjOOq2PkuJj1CYiRGHBgVq5fouenzi5Xsc8mqKiqmDRz7d+wWyrQrs9AAAAAADNhrtu98T0hEDzio2J0IC+NT/qSJIiwoJbsJrqrhh+pj6eMkfpmXu0bGWK08x502YtVFlZuXold1Byp4QGj+FVSyNMRPiRzz08NEiSVGSxqrLSLqOx6ufVyvVbVGixKjYmQl06xte4r7+fj2KjI5SeuUdp6bsI7VqZFm1FO/Sctr37cxzL/Hy9VVBo0c1XnqdBA3rV63gBfj56csyN+r87r9TqDVu1ftM2rd6wVctWbVR+gUWPvfiRIsKCdfrJPY5+sCZWUGhxfP3vNPtoNmxOdwR2j993vS678Ixq2/jX0tHl5+utIotVhUXWeo3ZUIfqKLTUfbzGXPMjKSkt03MTJ8tut2v42ado/AM3VZsyNXP3/qMep75/xXLoB6utpLRe+wEAAAAAAADA8apLh3g9ft/1ri6jVtGRYRrYv5cWLF6pr76b7wjtKioqNPX7hZIa12V3JH4HZ+6rqKyscf3hTTR2e6Wkqt+DH5rlbufuLCUPbA+xIQAAIABJREFUuuGo49Tn9/poGS0a2hUc7EgKCvgnxGofF63VG9K0NmVrgwMcXx9vDeibrAF9kyVJ+QUW3TLmBW1M3a5Z85Y4QrvD/zrGXtm87cUbDj5zLiwk0JF619Xy1ZslSYlx0TUGdkcSHxulDZvTtXHLdp1zRu3PjDvcoVelIS3X8QeD2O0798lSbKtTt1lTXPOapGXsUm5+oSTp/tsvr/czDo0mo6T6h2+HWrR3781WWVl5k03L2pLvV6bHBAAAAACg+XDX7Z6Oh+kJARzZlRcP1oLFK7Vg8Srtz85Tm/BgLVi8SvuychQRFqyhA/s1z8BH6fStrRO46GAIFxIUoBO7dTzqMJHhIfWvDc2qxUI7S7FNP/yyRJJ0Uu+ujuWnn9xTqzekadoPC3XtyKEKCap9OsQii9XR2ZWbX1jrtkGBfurfJ1kbU7crN6/QsdzT7CGTyaSKigpl5eSpU1K7pji1aux2u76e+ask6cxTe9d7f4u1avpID1PtoZPNVlLj8tP+010bNqfrh18W6/Zrh9X6LL38AoujA9DnYCqfdSCv3rX26d5J3t6estlK9c3sRbru0rNr3K7YapPZw0Nms0eDr/nRFB+cqlOSTAcDuH+z2WoP5IIC/JSTW6BNaZkacnrfausPBYL/1qNLexmNBpWWlWvR0jU667Q+9Rq3Ni31fgUAAAAAAAAAd9GSgXr/Pl2V2C5K6Tv2atqshbrzhos0ecZ8SdLlF55R78aR5naoqSY6MlRvPnOPi6tBQ9ScbDSRsrJy7dl3QD/OX6or/zdeO3bvl6fZQ7dfe6FjmysvOlOhIYHKySvULfe/qG3bd1c7TsaOvXrq1c/0wqSvHMu+++kP3frAy1qXsq3a9pZim37/a50kqXuX9k7r2sdFS5Kmfr9QlYd1L5WV1f+5cxarzdFRd4jVVqLxr36mVeu3yNvLUzddcW69j9upfawkaev2XVq0dI3Tup17snTvYxP1/cEA9N+uGnGW/Hy9tT87T/c/OUn5BRan9fuycvTUq5/pjQ+/cSxLOvigy3Wbtjmdj91uV0VFxRFr9ffz0dUXV7UAv/7BN5r3+wqn9RWVlZr3+wqNuPkx5R+cMrSh1/xokuJjHHP3fjxljtMP7yKLVa+9P13jX/201v17dE2SJM2Y84f2Z/8TYBZarHr9g290x4Ov1rhfRFiwY+7l5ydOVvqOvY51ZWXl+mrGfP33gZfqfB6Ha8r3KwAAAAAAAAC4I5PxnyijJR9TZDAYdMVFgyVJ02ctVOrWHfprVYrMZg9dOmxQi9VRV4d+n5yWvkvWWhp/anOoea+SLmOXatJOu0tufszxtV12p5BBkoID/fXCo7cpKSHGsSwwwE9vPnWPbn/wFW1Ky9SFNzysrp0SFN+2jUpKy7Rt+25HCDL8nFOdjrd4+TotXr5O8bGR6tElSUGBVZ1SS/7eoLyCIrWLaaMbLjvHaZ+Lzz1VL0yaonm/r9BFNz2suLaR2p+Vq/CwYE2acG+9zje/wKLLbn1CbcKDFRMVLpPRqJQtmSq22mQyGvXU2JsU1zayXseUpDNPOVGd2scqddtO/e/BV9UpqZ0iw0OUnZOvTWmZMhiqgqKaOuPCQgL1wiO3a/TjE/Xb0rU66/L71bdnJ/n5+mjnnixt2Jyuykq707Sbp/2nh8JCAnUgt0DX3fOsenfvJElK3bpDbzx9j3oeDLNqc/dNI7RuU7r+WpWiUY++qY6JseqY2FaFFqs2pmboQG6B0/aNueZHEhoSqEsvGKSvv/9VH0yerR/nL1VCXLSs1hJtTM1QSWmZIiNCtS8rp8b9r754sGb9skT7snJ07tVjdUJSO1Xa7dqclqnSsnLFtY1U5q59Ne479n9XauW6Ldq974AuvP4hde4QJ0+zWWkZu1RksSosJLDO53G4pny/AgAAAAAAAIA7Cgr0d3y9OW2H4/lyh8urZaa0xhp+zql67f3p2p+dp/ueeEuSdPagfvV+LFZL6N29kwL8fFRoseqTr3/SHdcPr3Xb0rJyGSTH4558vKtm5LMU22S1lTi+R8tq0k67ispKxz+VlXZ5eJgUEhSgXt066O6bR2jW5xN0Sr/u1fbr1a2Dpr//pC4cOkBenmZt2JyuHxcs0/w/Vip9x14FB/rr0mGDdM2IIY59Bp/aWyPOO01BgX7avnOffpi7RF98M1c/LlimYqtNw88+RZPfekSBhz0/T5KuGTlU144cKg8Pk7Zm7Navi1dpQ2qGzA1oYw0JCtAl55+ugsJirV6fphVrU1VstalTUju999IYnTf45Pq/iJJMJpPeeeF+9enxT3j2+7K1StmyXT2Tk/T5mw/rjFNOrHX/QQN66cu3HtWAvsmylZTot6VrNWfBMq1L2SZvLy+NPH+grrp4sGN7b29PTZowWgntomSzlWrJ8vVasny9cvMKZfY4eq5rNnvo/RfH6J6bL1FoSKC2pO/UjwuW6fdla3Ugt0BdO8XrsfuuV0jQPz9YG3LN6+Khu6/WpcMGyWg0aPe+A1qyfL1Wrd+iiLBgPfvgLRpzx+W17pt8QqKee/hWBQb4yVZSqjUbt2pdyjb5+fro/+66Si8//r9a901KiNH7L45Ru5g2qqy0a2Pqdq3ekKaysnJdd+nZmvjsqHqdxyFN+X4FAAAAAAAAAHcUFhKomMgwSdLHX89R6WEzke3ck6XRj7+ldz//oVnGDvDz0bChAyTJ0Wxy9YizmmWsxvL29tSNV5wnSZr06Xf6aMoclZc7z6ZXUlqm2fOWasTNj2r/YY1BiXHRMhgMqqio0LRZi5z2Yea3lmOwt7InqpaVlSs1fady8wplMEhREWFKiItyan89XGWlXdt37tWe/TkqKy9XcKC/OrWPPWoKXGixamvGLskuRUaEKPrgB74uflm0XKMff0sxkWGa+/XLspWUavfebOXmFykyIkSx0RH1Oucj2bx1h9Iz9yjA30cJ7aLVNiq8XvsXFhVra8ZuWaxWBQcFqGNirDzNNQdxdrtdGTv2Kjs3X4H+fopvGylvb896jWe325WeuUf7snNlMhoVHxupyIjQI+5T32teF3v352j9pnSZTEa1jQpXx/axtT6c899stlKt3pimvPwitQkPVo8uSXWem7iy0q51m7Zp7/4cBQb4qmfXpFqfK1gfjXm/1sXY5Z/p9fTpTXpMAAAAAAAgTe79mIZ4FivQstzVpaAesoKHyystW4Epa11dCuph7zkXKyqu6X4360oFxWV6esNXzfY7u1GJI/VI8pUK9DU3y/GPZMz4tzVnwTINOb2vXht/V533+2z6L3p+4mRJUmhwgBLjolVQWKy0jF2y2+2OmdJO7NZRX0x82GnfETc/qs1bd+jJB27UyPMHOpbP/2Ol7nnkDUWGh2jB9JofjyRJW9J36qIbH5EkdeucqK/febw+p+wkN79Qpw6/W5L0y5SXavyd/7jnPtDMn/7QlRcP1iOjrq22flNapi65pWrmw7XzP5TJ9M/vrysr7fq/p9/RjwuWSapqPurRpb38/X2UdSBfa1O2ymYrrXH8O8e9poVLVstgMKhXcgcF+vtq+659GnHuabr5qvMbfM6ouyadHrMpmM0eSu6UUOftjUaDEuOilXhwrta6CvDzUa/kDvWsrmbeXp5qHx9z9A0b4ISkdjohqV2D9w/w91WvbnU7T4OhYa/lv4/RPj6mXq9Hfa95XUS1CVVUmyOHhbXx9vbUyb27Nmhfo9Ggnl2TjjqlaH015fsVAAAAAAAAANzNNSOGKCs7V59O+0U5eYXKyauaDjMpIUYP3HGF0nfsdYR6TS0pvq1CggKUm1+oq+s5O1xLMxoNevGxO9S/bzd9NOVHpWfu0aKlaxzrDwVy5591siLCgp32fWrszXrwmfe0ePk6rVq/xbHcy6t+zT1ouFbXaecO/t1pB7g7Ou0AAAAAAGgedNq5Jzrt3BOddnXnyk67xjqQW6B1KdtUVl6uuLaRjWp6qau5v/2tex+bqNCQQC2Y+orjOXDuYF9WjjJ37VexrUQBfj5Kim+roEC/I++Tnaudu7Pk5WlWbEyEgg97piCal/u8swAAAAAAAAAAOI608QpxdQmtTlhIoAYN6NWiY34y9SdJ0mXDBrlVYCdJkRGhR32EVbV9wkMUGc57zxXc693VSvj7+apDQlu1ieBNCwAAAAAAAABoenckDNcdCcNdXcZxb13KNq1enyaTyaTLLzzT1eXgGEdo1wAD+iZr5ifPuLoMAAAAAAAAAMAxKNDXrEDfIFeXAf3TZTd0YF+1CQ8+ytZA4xhdXQAAAAAAAAAAAEBrU1BoUcaOveqQ0FbXXDLE1eXgOECnHQAAAAAAAAAAwL8EBvjpmw/Gu7oMHEfotAMAAAAAAAAAAABcjNAOAAAAAAAAAAAAcDFCOwAAAAAAAAAAAMDFCO0AAAAAAAAAAAAAFyO0AwAAAAAAAAAAAFyM0A4AAAAAAAAAAABwMUI7AAAAAAAAAAAAwMUI7QAAAAAAAAAAAAAXI7QDAAAAAAAAAAAAXMzD1QUAAAAAAAAAAIB/VFTaW2Qck9HQIuMAqBtCOwAAAAAAAAAAWpHikgoVF1uadQwfH18F+pqbdQwA9UNoBwAAAAAAAABAK2K32+VjWaNAy/JmOX6BXz/Jp3+zHBtAw/FMOwAAAAAAAAAAWhGDgWkrgeMRnXYAAAAAAAAAALQidnvLPNMOrcOmtEwVW22Kj41SWEigY3l+gUVbt++Sp9msbp0TXVghWgqhHQAAAAAAAAAArYjBYNCxGtst+nO1tmXucVpm9vBQgJ+PEuKi1a1zokzG1jtJ4CvvTlVpWbn69+mqgf17Nckxx014X5u37tCTD9yokecPdCz/e+1m3fPIG4oMD9GC6a82yVho3QjtAAAAAAAAAABAi/hh7p+as2BZretDQwJ169UX6NqRQ1uwKmnF2lQ9/NwHCgr009fvPF7rdpNnzJfVViJPT3OThXY4urpeH3dHaAcAAAAAAAAAQCtyPEyPmdAuSoMGVIVe5eUV2p+dp8XL1yknt0DPTZysrdt364n7b2ixeqy2Eu3YvV+FRf5H3G5A32TZSsqU2C6qhSqDVPfr4+4I7QAAAAAAAAAAQIvqmBirB+64wmlZsdWmCW9+qW9//F3Tflioswf1U/8+yS6qsGZvPH2Pq0vAMYzQDgAAAAAAAACAVuRYfqbdkfj6eOvx+27Qb0vXKjsnX3MWLHMK7YosVm3fuVfZOfnKySuUyWRSVESIunZKkL+fT43HtBTbZLWVyMvLUwGHbWO1laiktExBAX4qKCxWQaFFkmSXXdk5+U7H8PP1lo+3lyQpr6BI5eUV8vfzkbeXp9N2drtdO/dkac++A8rOLZDVWqLAAF8lxceofXxMk7xGknQgt0B2u73GGg5XZLHKVlIqT7OHAgP86nRsu92uA7kFkqSQ4ACZjEYdyC3Q0hUblV9YpLZR4RrQt5vM5n/ipbKyci1fvUnbd+2T2eyhE5M7Kinh6OdbaLHq79WbtHd/jkwmoxLjo3Vickd5eJictssvsNT5+rg7QjsAAAAAAAAAAFqR42F6zNp4eJjUvUt7/bp4lfbsO+BY/sKkKfps2s81vjZms4cuOe90/d9dV8nT7Bx7vPr+NH01Y76Gn3OqnnrgRk2btUhffjtP27bvliRdedFgbUrL1Kr1WyRVBUQDR4xyOsboWy/VLVedL0m6afTz2rx1h5584EaNPH+gY5v92Xkadv1DKrJYazyvxLhoPX7/9erXs3MDXhVnd417XWtTtmrkBQP15Jgba93u+lETtCktU6NuuUS3XjOsTsfOKyhynP+MD5/SlJkLNH3WIlVUVjq2iWoTqreevVedO8Rp6ve/6s2PvlVOXqHTca68aLAeHnWNDAZDtTFKy8r1+gfT9eW381RWVu60LqpNqJ64/waddlIPx7I7x71W5+vj7gjtAAAAAAAAAABoRY7XTrtD8guquqrMZrNjWV5Bkex2u5ISYpQU31ZRESGylZZpw+YMbdicrikzF8hSbNNzD99a4zH37c/RtXc/qzUbtzotr6is1AlJ7VRYVKy0jF0ymUzq0aW90zZREaFHrbmsvFxFFqt8fbzVo0t7tY0Ol5+Pt7Jy8vXHX+uUnrlHt455SdPef1IdEtrW9yVxcuXFg7U2Zatmz1uqMXdc4dRBeMiq9Vu0KS1TnmYPjbxgUIPGuXnMi8rJLVB0ZJiSOyXIVlKq5Qc740Y99qY6Jsbq18WrZDZ76KTeXRQU4K+NqRnauSdLX303Xz26JunCoQOcjllRUaHb/+9lLVuZorCQQF107mlKiI1S1oE8/fHXOq1cl6o7H3pNH7461hFwNsX1cReEdgAAAAAAAAAAoFUoLCrWprRMSVK3ExIcyy+7YJDuuvFixUSGVdtn2g8L9cTLn+iHuUs0+taRiqwhxFm6cqO8vTx1/WXn6OxB/RQVEaJia4kqK6uCwD/+Wqfbxr6sAD8ffTHx4XrXHRzor/dfHKN+vTo7TR0pVYWQ193zrNIydunz6b8csTuuLs454z96cdJXyskr1Myf/tA1lwypts3kGfMlSecOPlmhwQENG8hu14Rxt2rYkP6OjrmULdt1+W1PaufuLO3ak63LLjxDd994sUJDAiVJJaVlum3sy1q+epO+mb2oWmj3zuc/aNnKFHVMjNWnrz+koMB/pu289ZoL9OwbX2ryjHl6fuJXmv7+k5KkR0df1+jr4y6Mri4AAAAAAAAAAAD843idHrPIYtWY8W+r2GqTl6dZI8473bGuV7cONQZ2knTpsEEKOxgabd66s8Zt2sfHaOYnz2js/65Qz65JiowIVWJcdJ2evVYXfr7eGtCvW7XATpKCAv101YizJMkRSDaGp9nD8dpMmbmg2voDuQWa+9vfkqSrD47bEJ++/pAuHDrAaYrLLh3j1a1zouPYj993vSOwkyQvT7OuvGiwpOrnarOV6vNpP0uSJoz7r1NgJ1V1mI665RKZzR5K2bJdO3bvb3Dt7opOOwAAAAAAAAAA0KLSM/fonc+/l1QV5uzck6U//lqnwqJiGY0GPTHmRkW1qd4xV1FRoS3pu5SWvksHcvOVm1+k3PxClZSWSZIsxTU/U657l/aKjY5ovhM6TE5ugTalZWrHnizl5hcqL79IKVu2H6zP1iRjXDH8TH08ZY7SM/do2coUndS7i2PdtFkLVVZWrl7JHZTcKaHBY3h5eda4PCI8+Ij7hYcGSaoKYSsr7TIaq0K/leu3qNBiVWxMhLp0jK9xX38/H8VGRyg9c4/S0nepXUybBtfvjgjtAAAAAAAAAABAi0rL2KU3P/y22vL28TF66O6rNaBvstPyYqtN737+g7798Tfl5BXWelxX9iguX7NJEz+aoRVrU2vvlmyiLsroyDAN7N9LCxav1FffzXeEdhUVFZr6/UJJjeuyOxI/H++qsSora1zv6+Pl+Npur5RkklQV1ErSzt1ZSh50w1HHKbTUHMAeywjtAAAAAAAAAABAi2ofH6NzzviPJMnb06ygIH8ld0pQ5w5xTtMxSlWB3fWjJmhj6naZjEYN7N9Lfbp3VExUuMJDgxQSHKA7x72mnbuzXHEqkqRZc//Ug8++J7vdrujIMJ11Wh8lxceoTUSIwoIDtXL9Fj0/cXKTjnnlxYO1YPFKLVi8Svuz89QmPFgLFq/SvqwcRYQFa+jAfk06nsO/rk/11TWvLzoYwoUEBejEbh2POkxkeEj9a3NzhHYAAAAAAAAAAKBFJcXH6M4bLqrTtl9//6s2pm6Xn6+3Pn71/5R8QmK1bcwmU1OXWGclpWV6buJk2e12DT/7FI1/4CZ5eDjXk9kMz2fr36erEttFKX3HXk2btVB33nCRJs+YL0m6/MIzqtXgan6+VR160ZGhevOZe1xcTetkdHUBAAAAAAAAAAAAtVm+erMk6YKz+tcY2DWFQ81hlQ2YvjItY5dy86um7Lz/9stbLCwzGAy64qLBkqTpsxYqdesO/bUqRWazhy4dNqhFaqiP9nHRkqS09F2y2krqtW9jro87IbQDAAAAAAAAAACtVnGxTZJkqqWbrqKyUmXlFY0aw8e76jlslmJbvQOlQ/VJkslUc+xis5U2vLgjGH7OqfLx9tL+7Dzd98RbkqSzB/VTeGhQs4zXGL27d1KAn49Ky8r1ydc/HXHb0rJylZWVO75vzPVxJ4R2AAAAAAAAAACg1erYPlaS9PPCv7Rrb7bTuhVrU3XZrU9o557GPc8uMS5aBoNBFRUVmjZrkdO6w8OjmiTFx8horGoF+3jKHNkP6wYrslj12vvTNf7VTxtVX20C/Hw0bOgASVL6jr2SpKtHnNUsYzWWt7enbrziPEnSpE+/00dT5qj8X2FrSWmZZs9bqhE3P6r9B/IcyxtzfdwJz7QDAAAAAAAAAACt1rUjh+i7n/7QgdwCnX/tg0rulCA/Xx9t37VXO3dnyd/PR36+3rIc1vFWXyFBARrYv6cWLlmtF976Sr8sXK5Af19t37VPI849TTdfdX6t+4aGBOrSCwbp6+9/1QeTZ+vH+UuVEBctq7VEG1MzVFJapsiIUO3LymlwfUdy1cWDNfX7XyVJ3TonqkeXpGYZpyn89+oLlJa+Uz8uWKaX3/laH331o3p0aS9/fx9lHcjX2pStNXYlNub6uBM67QAAAAAAAAAAQKsV1zZS775wn6Ijw1RWVq7VG9K0ePk67d2fo/MGn6zvP3lGbcKCGz3OU2Nv1in9ustut2vV+i1atHSNMnbslZeX51H3fejuq3XpsEEyGg3ave+Alixfr1XrtygiLFjPPniLxtxxeaPrq01SfFuFBAVIkq4eMaTZxmkKRqNBLz52h54ae7MS46KVm1+oRUvXaPa8pfprVYpKSsrUK7mDHh51jSL+dU0bc33chcFuP8af2gfgqMYu/0yvp093dRkAAAAAABxzJvd+TEM8ixVoWe7qUlAPWcHD5ZWWrcCUta4uBfWw95yLFRUX4eoymkRBcZmU/Wez/ewo8OsnhfdXoK+5WY7fXMrLK7R6Q5qyc/IVGhygE5LiFBTo1+Tj7MvO1c7dWfLyNCs2JkLBgf513nfv/hyt35Quk8motlHh6tg+VgaDoclrPNzc3/7WvY9NVGhIoBZMfUVms/tMsrgvK0eZu/ar2FaiAD8fJcW3Peo1bcz1ae3c58oBAAAAAAAAAHAcqTA2fSDlzjw8TOrb84RmHycyPESR4SEN2jeqTaii2oQ2cUVH9snUnyRJlw0b5FaBnSRFRoQqMqJ+r1djrk9r515XDwAAAAAAAACA44DV70RZ/U5stuP7NNuR0ZLWpWzT6vVpMplMuvzCM11dDhqJ0A6Azos6WedFnaxKZssF3JLx4BQLfIYB98XnGHB/fI4B99dcn+Mwc5BspnLZvNs36XHRvCoMPrLH+skWG+/qUlAPlV7eri6hyQT6mt1u6kq4xqEuu6ED+6pNeOOf6wfXIrQDoAFRHSRJ2QUlLq4EQEOEB3pJ4jMMuDM+x4D743MMuL/m/ByXN/kR0RLKA31dXQIAHFFBoUUZO/aqQ0JbXXPJEFeXgyZAaAdAnmajq0sA0Ah8hgH3x+cYcH98jgH3x+cYAOBuAgP89M0H411dBpoQ/zcCAAAAAAAAAAAAuBihHQAAAAAAAAAAAOBihHYAAAAAAAAAAACAixHaAQAAAAAAAAAAAC5GaAcAAAAAAAAAAAC4GKEdAAAAAAAAAAAA4GKEdgAAAAAAAAAAAICLEdoBAAAAAAAAAADg/9m777gqy/+P4+9z2HsIgqCgouZeaeUorTRtWdrPMiu1bJeVWWbZNs3Gt2nL9s7RcOTM3HsPFBFkKYIyZIOM8/sDPUkMAYEb7PV8PL6Pr9z3NT73gVNx3l7XBYMR2gEAAAAAAAAAAAAGszW6AAAAAAAAAAAA8I/CIkudzGNjNtXJPAAqh9AOAAAAAAAAAIB6JDuvUNnp2bU6h5Obk9yd7Wp1DgBVQ2gHAAAAAAAAAEA9YrFY5BS+X+4H9tTK+OntOksXX1wrYwOoPs60AwAAAAAAAACgHjGZ2LYS+C8itAMAAAAAAAAAoB6xWOrmTDsA9QvbYwIAAAAAAAAAUI+YTCZdqLHd6o27dDj2mCTJJJNGDhsge7uyo4qd+w5pV2iEWgY1Ub9eXeuyTMAQhHYAAAAAAAAAAKBOLFi+UYv/3mz92mw2adTwQWW2Xbt5jz77foGuverSGgvttu8J1+TpX8jD3UWzPn2pRsasT8a/9JEOHIrRI3ffrBsH9ja6HFQR22MCAAAAAAAAAFCP/Be2x/Tx9pAkzfxhobKyc+ts3pzcPMXFH9eR+BN1NmddSjieorj448rIzDa6FFQDoR0AAAAAAAAAAKhTQ67prUB/H6WmZeib2UuMLgeoF9geEwAAAAAAAACAeuRCPtPuDDs7Wz1y91A99/rn+nb2Eo0cerW8PNyqNdaBQzEKi4hVTm6efBt5qmfXtvJ0dy3VLi09S+kZWZIkiyxKSkkrcd/F2VFOjg6VmvNUfoHSM7JkNpvl7Vlcd2R0vHbvj1R+QYHatGyqbh1bl+iTnpGlTTv260RymjzcXHTZxe2tKw4rEhYRq7CIWGVm5cjb003dO7WRf2PvEm3y8wuUlpGlgsICSVJWdm6J5zOZTGrk5V6pZ4NxCO0AAAAAAAAAAKhH/gvbY0rSjQN766ufFyki+qhmfr9Azzw6skr9Q8Oj9eKbXyksIrbEdRsbG40cerUmPHCr7Oz+iUEeee497dx3SFJxgNdv2OMl+o2/f7juHXl9peZetWGnxr/0kQL8Gunzt5/Wa+99r43bQ0u06dHlIn0w5THZ29vqw69+10+//6X8/ALrfQd7O700YYxuGtSnzDl27jukV9/9TuGRcSWum0wmDbmmt14YP8oaMm7bc1D3TnjL2ua9z+fqvc/nWr+2t7PVzuVfVOrZYBxCOwAAAAAAAAAA6pGUEBMlAAAgAElEQVT/wko7STKbTXr8vls0bvIH+mXe3xo1fJCa+DWqVN/Qg1Ea/fh05eTmKSjQTwP79ZCHq7MORR3V4pWb9f3cZYqOS9An08fLZDJJki4KaaaMzGxFRB+VjY2NOrdrWWJMf1/vsqaqUEpahobf/7Kyc3LVtlWQgpv6KTEpVbv2RWjb7oOa+Nqnik9M1uGYeHm4u6hbz44ymUzatvugMjKz9dLbX6t7p9ZqFtC4xLhrN+/RuOc/UH5+ga64rLP69OwkOztbHY6J12+L1mre0vU6kXxSM996SiaTSe6uzurWsbXCD8cpKztXTQN85evtaR3P3p44qCHguwQAAAAAAAAAAAxxVZ/u6tI+RLv3R+qjb/7Qa8+MPWefoiKLJk37XDm5ebqqT3e98/LDJVbU3XnLQI15YrrWbt6jWfNXasRNV0mSXhg/Suu27NUDE/8nNxcn/TBj8nnXn5t7SheFNNOLT45W1w6trNd/+HW5Xv/wR63bsldOjg6a+PAI3T50gOxP13k0IUkjH56ipJQ0zVu6Xo/ePdTa92R6pp6Z+pny8wv08oQxGn5j/xJz3nXLNRp27wvasC1Uqzbs0pV9uqnDRS30w4zJuv2hKdpzIFKjhw/SyKEDzvv5ULfMRhcAAAAAAAAAAAD+8V/ZHvOM8fcPlyTNX7peh2Piz9l+/da9OhwTLwd7O0155p4SgZ0kdWzbQmNvv06S9O3spTVf8Fka+3hqzsyXSwR2kvR/1/eT2Vy8wm/65Ps1+tbB1sBOkgL9fTTwih6SVGp7z1nzViotPUv9e3ctFdhJUtMAX424+WpJ0tJVW2vycWAwVtoBUGRSqiSpoOi/9R8DwIUiMilXEu9hoCHjfQw0fEa9j21klrNZMstUp/MCF6ITqfmSJPN/7INyQ+RLMvPPLdS8IrON0SWgmnp2bavePTtqw9Z9ev/LX/X+q+MqbL9px35JUo8ubeXp7lpmm0H9e2rG178r9mii4hOTFVDJbTerytbGRjY2pX/2HB3t5ebqrLT0rHL7+nh7SJLSM0q2WbN5tyRpUP9Lyu3brlWQJCki+miVa0b9RWgHQJ9FLdDSE1uMLgMAAABAFV3q2V5TQm6Ud9oKo0sBgEpLcRsiz43rZM7NNboUXGCSe18pycXoMlBN4+8bro3bQvXXmu3aFxaljm1blNs29shxSVLL4Cbltglu5l98NqDForijx2sttKuIs5Oj0tKzVFRUVM59B0nF232eLSr2mCTp2Wkz9ey0mRXOkZGVXQOVor4gtAMgSQrLjD13IwAAAAD1yqWe7SVJdoXJBlcCAFVnl37S6BJwoWEBZ4PWvk2wBvXvqSUrt+jdmXP05TsTy22bk5snSXKwtyu3jY3ZLHs7W+WdyldWTk6N11sZ5/yRNJXdIjOr+C81dO/UptyVhGd4e7lVozLUV4R2AAAAAAAAAICGj91tG7xx9wzT8jXbtWnHfm3cHlpuOxdnR0lSVk75K3YLCgqVd6p462NXZ6eaLbSWuTg7Kj0jS2Nvv079e3c1uhzUIbPRBQAAAAAAAAAAADRv5q+h1/aVJL07c2657YKb+UuSDh0+Um6bs896a97sn200zyxuK6rHZ5i2DCqud8+ByCr3tT4fZ6Y3SIR2AAAAAAAAAACgXnh4zM1ysLdT6MEorVi7o8w2fXt2lCTt3HtIRxOSymyzYPkGSVKr5oFq7ONpve7kWHyOXFZ2rnWbzfrmisu6SJLmLFil1LSMCttmZpXc+vPM851IZgvihojQDgAAAAAAAAAA1At+Pl4aOXSApJKr5c52Sbd2at8mWIVFRZr42qfKyMwucX/1pt364dflkqR7br+uxL0WQU1kMplUWFioOQtXl7iXn19QU49xXm6/+Sp5e7kr5WSG7p3wlg7HxJdqEx2XoCnvfqc3P/65xPWWwQGSpCWrtigtPct6vb48GyrGmXYAAAAAAAAAAKDeuO+OGzR34Spl/GsV2dmmP/eARj02Tbv2RWjwyInq17urPNxcFB4Zp0079kuSrrv6Mt00qE+Jfl4eburXq4tWbdilNz/6WctWbZW7q7NijiZq2LWXa+zI62v12SrD3c1FH055TA9OekdhEbEaMmay2rdpruDAxso7la/DMfGKikuQJN00uG+JvjcN6qNf5q3QkfgTGjLmOXW4qIWysnMUGR2vdfM+NOJxUAWstAMAAAAAAAAAAPWGh7uLxoy4tsI2Ic0D9ONHz6t3jw46mZ6peUvW6bs5S7Vpx365ujhp3NhhemPyA2X2nTJxrPr07CSLxaKd+w5p9abdio5LkIODfW08TrV07dhKcz9/RUOu6W3dLnTR35u1Yt0ORcUlyNPdVcNv7K87hw0s0a9j2xaaMnGsPNxdlJSSptUbd2nb7oMqLCoy6ElQFSaLpR6ftgigTkzc+p3ejyr/YFcAAAAA9dPopoM1JeRG+aXMNroUAKi0RM+75bl5nRyOJxhdCi4wCYOHyj/I1+gyakR6dr60fbvcD+ypnfHbdZYuvljuzna1Mn5dS0xKVVhErHJzT8nH20Od2rWUvd25NxpMTErVkfgTcrC3U9MAX3m6u9ZBtVWXn1+g8KgjSj2ZIZNJ8vdtpOZB/rIxl78uKz+/QIeijio7J1eNvNwV1NSvwvaoH9geEwAAAAAAAACAeqjQ0cnoEhoEPx8v+fl41Vm/umZnZ6sObZpXuU/7NsG1UxBqDaEdAAAAAAAAAKDhMxldQM3KadtROW071tr4xIFA/UNoBwAAAAAAAABo+C6gg6Dcne0umK0rAVQeG5gCAAAAAAAAABq+C2ylHYD/HkI7AAAAAAAAAEDDdwGttAPw30RoBwAAAAAAAAAAABiM0A4AAAAAAAAAAAAwGKEdAAAAAAAAAAAAYDBCOwAAAAAAAAAAAMBghHYAAAAAAAAAAACAwQjtAAAAAAAAAAAAAIMR2gEAAAAAAAAAAAAGI7QDAAAAAAAAAAAADEZoBwAAAAAAAAAAABjM1ugCAAAAAAAAAADAPwqLLHUyj43ZVCfzAKgcQjsAAAAAAAAAAOqR7LxCZWTn1+ocrk62cne2q9U5AFQNoR0AAAAAAAAAAPWIxWJRVu4p5eSeqpXxnRzt5epEPADUN5xpBwAAAAAAAABAPWIysW0l8F9ElA4AAAAAAAAAQD1isdTNmXb47ygsKtLu0AhJUoeLWsjBvn5tjVpYWKjd+yMlSR3btpS9XeXjq/r+bFVBaAcAAAAAAAAAQD1yIa+0W71xlw7HHpMkmWTSyGEDyg1odu47pF2hEWoZ1ET9enWtyzIvONnZubpr3DRJ0uIf31BQoJ/13tyFqxURfVQB/j4a9X/XGFJfema2tb5lv7ytQH+fSvet6NkaGkI7AAAAAAAAAABQJxYs36jFf2+2fm02mzRq+KAy267dvEeffb9A1151aY2Fdtv3hGvy9C/k4e6iWZ++VCNjNnR/r9uh1Zt2q3O7EMNCOxTjTDsAAAAAAAAAAOqR/8L2mD7eHpKkmT8sVFZ2bp3Nm5Obp7j44zoSf6LO5qzv2l/UXH16dlLXDiFGl/Kfx0o7AAAAAAAAAABQp4Zc01tLV23V0YQkfTN7iR4Zc7PRJf1nPXr3UKNLwGmEdgAAAAAAAAAA1CMX8pl2Z9jZ2eqRu4fqudc/17ezl2jk0Kvl5eFWrbEOHIpRWESscnLz5NvIUz27tpWnu2updmnpWUrPyJIkWWRRUkpaifsuzo5ycnSo9LwWi0VHjp3QscRkJaWmKycnT+5uzgoJDlDL4IBy+ySnpkuSvDzdZGM2KyklTVt2HlBqWqb8fL3Uu0cHOTs51mjfimRl5yonN08ODvZyc3Eqt116Rpb2HDislJMZcnK0V6sWTdWimX+NvC5lSUxK1dadYUrLyKr2s50tIytH23aFKeF4imxszGoR3ETdOrSWra1NtcesaYR2AAAAAAAAAADUI/+F7TEl6caBvfXVz4sUEX1UM79foGceHVml/qHh0Xrxza8UFhFb4rqNjY1GDr1aEx64VXZ2/8Qgjzz3nnbuOySpOMDrN+zxEv3G3z9c9468vlJzH086qRtHP6vMrJwy77cIaqKXJoxWzy5tS1w/mZ5pnff3L6do9sJVmjXvbxUV/fM9d3dz0dRJY3VVn+411rciH371m76fu0w3DOylNyY/UOp+Ukqa3vz4Zy3+e3OJuSSpVfNA3XnLQA2/sb+k6r8uZ0tJTdcHX/6qP//aVOK94OnuqmnP3lvl8w1P5Rfo/S/m6sff/lJ+fkGJe/6NvfXyhDG6/NLOVRqzthDaAQAAAAAAAABQj/wXVtpJktls0uP33aJxkz/QL/P+1qjhg9TEr1Gl+oYejNLox6crJzdPQYF+GtivhzxcnXUo6qgWr9ys7+cuU3Rcgj6ZPt76el4U0kwZmdmKiD4qGxsbdW7XssSY/r7ela49v6BAmVk5cnZyVOd2LRXYxEcuTo46kZKmdVv2Kir2mO5/6m3N+fwVtWoeWOYYox5/XRmZ2Wri10jtWwcr71S+tu05qPSMLD358sf6ccZkdbioRY33rYr4xGTdNW6qEo6nyMnRQf16dVGAXyMlp6Zr4/ZQRUQf1bezl1hDu5p4XcZOeFNZ2bnWZzuVX6Dte8J1Mj1Tj784Qz9+9Lw6tGleqfoLCwv14DP/0+YdB9TIy103X3u5mjf114nkk1q3Za927A3XI8++py/fnVhhkFhXCO0AAAAAAAAAAIAhrurTXV3ah2j3/kh99M0feu2ZsefsU1Rk0aRpnysnN09X9emud15+uMSKujtvGagxT0zX2s17NGv+So246SpJ0gvjR2ndlr16YOL/5ObipB9mTK523Z7urvr8rafUs2vbEnNLxav4Rj02TRHRR/X93GV65am7yxzD3dVZUybeo4FX9LBeS0xK1d1PTFfMkUT977PZ+uqdZ2q8b1U8PeUTJRxPUZuQZvr0jSfl5+NlvVdYVKRFKzbp14VrrNdq4nXxdHfV1En3lni2E8knNeaJ6YqOS9A7n87Wl+9MrFT9n36/QJt3HFDrFk317fvPysPdxXrv/jtv0LQPftRPv/+lN2b8rLmfv1KpMWuT2egCAAAAAAAAAADAP/4r22OeMf7+4ZKk+UvX63BM/Dnbr9+6V4dj4uVgb6cpz9xTKhzq2LaFxt5+nSTp29lLa75gFZ9/17tnx1JzS5KHu4tGDhsgSaW27jzbl+9MLBFMSZKfj5cmPny7JGnLzrBS5+7VRN/K2rLzgHbti5DZbNI7Lz9SIrCTJBuzWTcO7K2Zbz9lvVZbr4tvI09NePBWSdLmnQesZ/tVJDf3lL6fU/z9f/25+0oEdlLxitbH771Fdna2OnAoRnHxx885Zm1jpR0AAAAAAAAAADBMz65t1btnR23Yuk/vf/mr3n91XIXtN+3YL0nq0aWtPN1dy2wzqH9Pzfj6d8UeTVR8YrICKrntZnWkpKYrLCJWccdOKDUtQyfTMnXgUIwkKSs7t9x+ZnPZ66r69OwoW1sbFRQUan94jK64rPR5a+fTt7LWbNojSerWsbVaNPMvt519GQGdVPOvS99LOsvGxkaFhYXaHx59znPoduw7pIysHDUN8FW71sFltnF1cVLTJr6Kij2miKijahbQuMIxaxuhHQAAAAAAAAAAMNT4+4Zr47ZQ/bVmu/aFRalj2/LPY4s9UrwiqmVwk3LbBDfzl8lkksViUdzR47US2m3dHaYZX/2u7XvCy18dWY1Vk3Z2tvLz8dLRhCSdSD5ZZ33/LSrumCTpopCgKvWrrdfF3s5Wfj6eik9M1vGkcz9bVGxx/UfiT6hD/zHnbJ+RlVPlmmoaoR0AAAAAAAAAADBU+zbBGtS/p5as3KJ3Z86p8MyynNw8SZKDvV25bWzMZtnb2SrvVL6ycmo+jFm4fKMmTZspi8WiJn6NNODyixUSHKDGvl5q5OmuHfsO6Y0ZP1V7/DOr107l59dp37OdWQ3n7ORQ6T61/bo4ONhLqtyzZZ4O4bw83NStY+tztv/39p9GILQDAAAAAAAAAACGG3fPMC1fs12bduzXxu2h5bZzcXaUJGXllL/FYkFBofJOFQc7rs5ONVpn3ql8TZ/xkywWi24a1EevPn2PbG1tSrSJPc/z0dIysyVJHuVs/1lbfc/m6lL8umVWcgVaXbwuZ2rxcHM5R8t/fk6a+Hnrw6mPnde8daXsjUHRoBUUFGrH3nDt2Buu6LgEo8tBOQqLiqzfpzP/8pCKD5ndtS9CO/aG61DUEQMrBAAAAAAAAIC607yZv4Ze21eS9O7MueW2Cz59vtqhw+V/fhoRffSscf/ZRtNkKv7/ompsz3j22KlpGZKkCQ/eViqYOl+JJ1KUkpouSWrXqmpbU55P339r3rT4dd4fHlOp9rX9uqSmZVi3/Gzdsuk527cMKv6+R0Qdta7OrO/qfKVdSmq6Fq/cor0HDispJU0Wi0WuLk5qFtBYbVsF6dLu7eTbyNPafvHfm5VwIqVac911yzWlfih+/n2Fck+dkiRd2bubmldweKIkrd64S4dP73t6ho3ZLEcHe/k19laX9iHlHnT5b1V99up69/M5+mbWEvk28tQ370067/EgJRxP0Tezl0iSbhtypVoElb9XcmVlZ+fqrnHTJEmLf3xDQYF+kiSTyaSDh+P06jvfytbWRt998Jy6tA857/kAAAAAAAAAoL57eMzNWrBsg0IPRikv71SZbfr27Kgvf/pTO/ce0tGEJAX6+5Rqs2D5BklSq+aBauzzz+fuTo7FWz1mZecqJzfP+nVVZGf/s8LPxqbstVG5uWXXXhk///G3pOIQs6qfRZ9P33/re2knfT1rsfYciNT+8Bi1bxNcZru09Cx5uLvU+uvyx5J1kqSmTXzVqnngOdt379RGbi5OysjK0Tezluih0TeV2/ZUfoFMKj4T0Eh1NrvFYtGn383XzB8W6FR+QbntTCaTundqrc/enCAnRwfNmrdSW3eHVWvO24ZcWSK0O3AoRq+9/73169ijx/XSk6MrHGPB8o1a/Pfmcu+bzSZdf3UvPffYHXIvZzlmdZ+9OlZv2q1vZy+Vo4O9Pnr9iXOGkpC+nrVYs+at1OWXdtbkx+8ss01yapq+n7tMktT3kk41EtpV5LYhVyrheIpm/rBAT73ysX77corcXJ1rdU4AAAAAAAAAMJqfj5dGDh2gr2ctLrFa7myXdGun9m2CtT88RhNf+1SfTn+yxOenqzft1g+/Lpck3XP7dSX6tghqIpPJpMLCQs1ZuFqj/u8a6738/IJKhTYhwQEym00qKrLo618W64n7/k+m00v4MrNy9MVPf1oXgVRk+55w+Tf2lo25OOCyWCyau3C1vvplsSTp4dE310rfyrqse3t1atdSew8c1viXZ+jjaeMV0jzAej87J1dzFqzSor83a9anL9XY6xIRfbRUELt6027N+Pp3SdLdI661jlsRR0d73T3iOn3w5a/6+Ns/5OBgr1H/V3KxV96pfP21Zrs++W6ePntzQpkBcF2qs9Buyrvfadb8lZKkLu1DdOPA3gps4iuz2aSklDTtCo3Q2s17lHA8Rdv3hCs375ScHB10Ra8uCmrauNR4oQejFRYRKw93Fw24/OIy57S1Lfl485cVJ+turs7KyMzWkpVb9Oy4O6yHMlakeTN/9e/dVZJUWFiklJPp2h0aqSPHTmjB8g06GBmrnz9+UY6O9jX27FWVlZ2r56d/IYvFoqcevE0d2jSv8hj/RalpmYqLP25dVlsWVxdn9enZSZLk5elWJ3WNu2eYtu4K0859h/TGRz/rtWfG1sm8AAAAAAAAAGCk++64QXMXrlJGBWepTX/uAY16bJp27YvQ4JET1a93V3m4uSg8Mk6bduyXJF139WW6aVCfEv28PNzUr1cXrdqwS29+9LOWrdoqd1dnxRxN1LBrL9fYkdefsz5vL3cNv6G/Zs1fqS9++lOLVmxS86AmysnJ0/7waOWdypefr7cSz7GL4LPTZmraBz8oKNBPLs6Oioo9Zv2cesRNV+n6AZfVSt+qePvFhzRq3DQdiT+hofc8r64dW8nP11tJKWnacyBSubmn1OL04qGael0envSumgU0VsvgALk4O+pwTLzCImIlSVf26abbhlxZ6frvu+MGRUQd0aK/N+t/n87SVz8vUud2LeXq6qQTyf88Q31RJ6HdvrAoa2j15P3Dy/yhv3lwXxUWFWnlup168+OfrdfvGXFtmWN+8OWvCouIlb+vt159+p5z1lBYVKRFKzZJkp4dd4defvtrpWdkafXGXRp4RY9z9m/doqmefmhEiWsWi0U//7FCU9//QeGHj2j2gpUaNXxQiTbn8+xV9f3cZUo5maGObVtoxM1XVXsclBbc1E8z35pQp3OazSa9+vTduvnu5zV/6Xrdd8cNCm7qV6c1AAAAAAAAAEBd83B30ZgR1+rDL38rt01I8wD9+NHzmvr+99qwLVTzTm+dKEmuLk66e8S1uv+OG8vsO2XiWE2aOlPrt+7Vzn2HrNcdHEovyinPs+PuUJHFol//XK34xGTFJyZLKt668eHRN8nO3k5Pv/pJhWOMuOkq/bV2u0IPRlmvNfJy10OjbtLtQ6+utb5V0bSJr+Z8/ore+3yOFq3YrO17wq33bMxm9busS4n5auJ1uW3IlVr092at3rjLes3Ozlaj/u8aPX7vLZVaZXeG2WzSWy8+pF49OuqrXxYpKvaYVm/abb1vMpnUtUMrXT/gsho5vux81Ulot+b0C+Dl4aa7R1xXbjsbs1kDrrhYfS7pKHt7uxqtYeO2UCWlpMnD3UXXXXWpVq7fqeVrtmn+0g2VCu3KYjKZNHLoAP2xZL1CD0Zp884DpUK7unr2jMxs67LS8fcPr9QPbUFBoXbuO6SYI4nKzy9QE79GurjLRXJzcaqwX2R0vMIPxyk7J08ebi4KaRFoTdLLkpmVoz0HDut4UqpMJpMC/BqpfZvmcnF2rHCesIhYhUXEKjMrR96ebureqY38G3uX2fZkeqYKCgrl6uIkRwd75ecXaOuuMMUcSZS9vZ26d25TZo1JKWnKySk+gPJUfoGSUtJK3Pd0d5WtrY0sFouSTx/e6eXpZl1yfEZ+foGijyToeFKqklLSZbFY5OXppnatgkvsl1xVLYMDdPO1ffXrn2v08bd/6I3JD1R7LAAAAAAAAOCCVvnP8WGgt198SG+/+NA52z141xA9eNeQCts0b+avz99+WolJqQqLiFVu7in5eHuoU7uWFe6w5+3ppplvTVBiUqqOxJ+Qg72dmgb4ytPdtdLPYWdnq5cnjNGDdw3RvrAo2diYFejvo9Ytm1o/n7/uqksrHOOe26/Tc4/fqWMJyTqenCo3V2eFBAfKbD73D3NV+7q5Oit01Tdl3pv06EhNenRkuXM18nLXlIlj9eL40QqPOqKTaRlydnJUq+aBpY51qu7r4uXhVqK+iY/crr1hh5WUnCZ3N2d1bt+q3Oyiomc7Y9h1l2vYdZcr8USKYo8eV3ZuntxcnBQSHCgP97KPPjNCnYR2macPHzSZTZX6YavueW4Vmb9svSRpUP9LZGdnqxsG9tLyNdu0ZvNunUzPrNKb8d+aBfgq9GCUsk+HP2erq2efv2yDMjKz1ap5oC7r3v6c7X9btFbvfj5HKaeDqLPnf2j0TRp7e+mAcdvug3rtve91KOpIqXt+Pl66e8S1uuus/X9z807pvc/nas6CVcr914GhNjY2urR7O7361N1q4teoxL2d+w7p1Xe/U3hkXInrJpNJQ67prRfGjyr1Oo1+7HVFRB/Va8+MVU5unj75dp5STmaU6Dv8xv564YlR1u9DYWGh+g173Npm9cZdJb6WpJ8+fkFd2ocoMyvHem/xj28oKPCfFW9/rd2up179RPllnFdoMpnUq0eHMp+zsu685Rr9+ucaLf57iyY9OlJeHnWzPScAAAAAAADQoFiMLqDmVeYzZRR/Pu3n41Vn/c7m39i73MUmlWFjNqtpgK+aBvjWad/qsLOzrfSxXOf7ujg62Ktnl7bV7l8eP19v+flWv67aViehXVBg8Zl0KanpWrFuh67u270uprXKzsnVinU7JEk3DuwlSep3WRe5u7koPSNLi//erNtvrv5y0eSU4uCraZPSBxTW1bMvX7NNknTjNb3P2fbDr37Tp9/Nl4O9nYZdd7k6twtRTm6e9h44rMUrt+idz2aroKBQD9z1z9LhXaERuu+pt3Qqv0Dt2wSrd4+OcnJy0LGEZG3Ytk/xiclasXZHidDuqVc/0cr1O+Xs5KibBvVRUFM/5eTkKfRgtLbuDtOGrft05NiJEmHW2s17NO75D5SfX6ArLuusPj07yc7OVodj4vXborWat3S9TiSf1My3nipzNeE7M4uDSEcHe/Xu0UGuLs7aG3ZYxxKTNXv+SoUEB+jOWwYWNzaZ1K1ja8UnJivxRIo83V3VIqhJifFcnStedSgVryTMzy9QYx9PtWvdXAH+jWSSSbFHE7Vpx35t2LpPYye8qd+/ek0O1VhF2aZlU7UJaabwyDj9vW6nbrn+iiqPAQAAAAAAAFzwLrB8y9XJXq5Old+uEUDDVyeh3aD+PfXuzDnKzMrR+Bdn6NqrL9XVfburU9uW1V59VBXLV29Tbu4pBfr7qFvH1pKKE+Fr+vXQ3IWrNX/phmqHdtFxCdoZWrzn7VV9SgdydfHsBQWF2rM/UpLUr1eXCttu2XlAn32/QI6O9vrhw8lq1zq4xP0BV/TQky9/pE+/m6fhN/STt5e7JOmTb+fpVH6Brh9wmd58/sESfSwWi9Zt2as1m/ZYr+05EKmV63fKxmzWrE9fVMvggBJ9klPT9dUvi2Rn+8+P4Mn0TD0z9TPl5xfo5QljNPzG/iX63HXLNRp27wvasC1Uqzbs0pV9upV6vvSMLI2+dbAeHn2TXE8vlc3NO6Vxk9/Xhm2h+mXe39bQzsZs1g8zJuudmXP05U9/qjoW2oQAACAASURBVGfXtnrv1UcrfP3K0rVDK82e+bLatw4uFSSGhkdrzOPTFXMkUX+t2V7twz/79+qq8Mg4bdsdRmgHAAAAAAAAlOUCWmnn7mwnd+eaPUIKQP1XJ6Gdl4eb3nn5YT3x4kfKzsnVwuUbtXD5RknFe422DQlS5w4huuaKHurYtkWNzz9/2QZJ0vUDepUIVW4c2FtzF67WngORijmSqOCmfuUNUUphYaHWbw3V1Pe/V0FBoXr37FhmiFQXzx5zJFF5p/Ll5OigkODACtvO/GGhLBaLHh97S6nATioOGTu3CykO3TbssgZEh2PiJanM5agmk0mXX9pZl1/a2XrtcMwxSZK3l3upwE4q3gP36YdGlLg2a95KpaVnqX/vrqUCO0lqGuCrETdfrS9/+lNLV20t8/We9OjIUgGso4O9xtw2WBu2hSoq9phyc0/J0bHm/oZK8wrO8+vQprn69eqixX9vVlhETLVDuzM/Gwf/tWUoAAAAAAAAgNMusJV2uDDZ2tioVfPiz/HPXtRS233RMNTZd7VPz05a+N00fTtnmf5as01HE5IkSRmZ2dq6O0xbd4fpy5/+VIc2zfXG8w+U2qawuhKTUrVl1wFJ/2yNecbFnduoiV8jHUtM1vxl6zXunmHljrN2yx4NvG2CJKmgsFApJzNUUFAoSRp85SWaOunecvvW9rPHJxaP1yLIv8I9jnNzT2nr7jBJ0jX9epbbrl3rIO05EKmI6KPWa038Gik+MVk//f6XenZtW2FQJUlNGhevIjyRfFLfzl6iO4YNlK2tTYV91mzeLan43MFya2sVJEklajtbeWcC+vv+s6oxPTO7RkO7s8UeTVR45BElJqUqNS1DJ9MytT88WpKUdfp8w+o48w/i+NM/OwAAAAAAAAD+5QJaaYcLl5urs+Z9M7XO+6JhqNMo1s/XWxMfHqGJD49QUkqawiPjdCAiVvvCorR1V5hS0zIUGh6t2x+eokXfT7duzXg+Fi7fqKIii9q1Di614stkMun6qy/TFz/9qYXLN+rRu4eWeU6aVBx4xecml7r+4F1DNG5s+WHfGbX57BlZOZIkDzfXCtvFxh+3Bo1X3/rkOcfNzMq2/nnU8EHasfeQwg8f0fV3TdJFIc3UpUMrdbiouS7r1r7UQZc9u7ZV+zbB2h8eozc//kWffDdfF3duo44XtVCndi11abd2srMr+eMXFVu8Ou/ZaTP17LSZ53jm7Arv/5ubq7P1zxZLUZX6novFYtGvi9bom18WKyouofx25zGHu1tx/Vk51Q/+AAAAAAAAAABA/WXY+kkfbw/5eHuod8+OkorPZft29hK9M3OOMjKz9e2cpRp///DznmfB6a0x4+KPa/DIiaXu5+TmSZKOHDuhHXsP6eLObcoc58o+3fT6s/dZv37u9S/09/od+nrWYl3Rq4u6tA+pdE01/exngjh7+4r3OM7KzrH+uazz9/7topAg658HXH6xZkx9XB98+asORsZZ/3dG30s6acrEsWrs4ylJMptN+urdSXr7k1/051+blJGZrVUbdmnVhl2SJA93F0144LYS57NlZhUHUt07tZGne8UBpLeX2znrP1tFKxDP1yvvfKs5C1ZJKt7Gsm/PTgoKbCxfHy95e7rpy58XadGKTec1h8Pp721RkUWFhYWysal41SIAAAAAAAAAAGhY6s2mp7a2Nho78notW7NN+8KidOjwkfMeMywiVoeiisfJzMpRZlZOhe3nL1tfbmhna2NTYrXWmy88oDsfnaqwiFg9+tx7+vmTF9W0iW+Zfc/lfJ/d0aE40Mk+x/aLLk6O1j9Pn3y/XJwdK2hdWv/eXdW/d1dFxSVod2iE9h2M0qZtoYqKS9C6LXv1+Asf6qePn7euVnRzcdIrT92tZx65XbtCI7Uv7LB2hUZq8879SkvP0otvfSXfRp664rLis/BcnB2VnpGlsbdfp/69u1apNqOEHoyyBnYvPTlatw65slQbVxen857nTKBpa2tDYAcAAAAAAAAAwAWo3oR2ZzRp3Ej7wqJUUHj+WxjOP73K7uLObfTaM2PLbTdv6Xp9+t18LV21VZMfv0v2dud+WZwcHfTRtCd024OvKCklTQ8+845+/viFEsFeVVX32Rt5eUiSklJOVtiuWWBj2draqKCgUHsORKrXxR2qVWeLZv5q0cxfNw/uK0n6Y8k6TZ7+hfYciFTs0eMKbupXor2zk6N69+ig3j2K50tLz9K9T72p/eExWvjXBmto1zKoiXaFRmjPgcg6De3OrMGzWKq+geXWXQclSS2CmpQZ2NWUpJQ0SVIjz/PfMhYAAAAAAAAAANQ/5rqYZNoHP2j1pt3nbJedk6ud+w5Jkrp3bn1ecxYWFenPvzZKkoYM6qOgQL9y/3frjf1lMpmUkZmtlet3VnoO/8bemjH1cTnY2ykq9pgee+FD61aVZ9TFszcLaCxJij16XLl5p8pt5+TooJ5d2kqSvvjxTxUVVRxSnb0yMeVkRrntBl95ifXPqafbpaaV397D3cUaGKaeNe4Vl3WRJM1ZsKrC/v+u7Xw5OTlIkk4kVxx6luXMGXO2Fax+yz29Bev5OBgZK0kKCvQ7R0sAAAAAAAAAANAQ1UlodzzppB6e9K7GPDFdf63druyc0ts47t4fqfuf/p+SUtLk4e6i285z1dKm7aFKSkmTnZ2tBvXrWWFbP19v67aY85etr9I8ndq11NRJ98pkMmnLzgN68e2vS9yvi2dv7OOpxj6eKiwq0o494RW2fWj0TTKbTdq0Y78mTftMJ9MzS9y3WCzaujtM9z39tv5au916/f/ufVHfzl5SZv1LV26RJDk62KtVi0BJxavv7n/6f9p74HCp9lnZuVq7Za+k4tfvjNtvvkreXu5KOZmheye8pcMx8aX6RsclaMq73+nNj3+u8DmrIiQ4QJK0N+ywQsOjrdctluLz4yrSpmVTSVJkzNFS4eyRYyf0xIszrCs+z8eWnQckSZ3atTjvsQAAAAAAAAAAQP1TJ9tjms3FGxBu3RWmrbvCZGtro5DgAPl4eyo3L0/xick6lpgsSXJ3c9GMqY/Ly8PtvOY8E5RccWnnSm1Zef3Vl2nb7oNat2WvUtMyqjT/tVddqqjYY/romz80b8k6BQU01oOjhkiqu2fv1aOj5i1Zp2Vrtql3z47ltru4cxs9O+4Ovf7hj/rzr01asXaHOrcPkW8jD2VkZiv0YLSSU9Otr8kZ6ZnZevPjX/TBl7+pe6fWCgr0U2FRkQ5FHdGufRGSpCcfuLXE+W3rt+7V+q17FdzUT53bhcjD3UUpqenasC1UJ9Mz1SygscbcOtja3t3NRR9OeUwPTnpHYRGxGjJmstq3aa7gwMbKO5WvwzHxiopLkCTddHprzppw+SWd1cjLXcmp6Rr12DR171Qc4IZHxumD1x5Tl/Yh5fa9qk83tWnZVOGHj+jhSe+qTUgz+fl4KSklTWERsTKZJN9GntVaxXdGQUGh1mzaI0kVfm8BAAAAAAAAAEDDVSeh3dRJ96rvJZ21dNUWbdt9ULl5p3QwMk4HI+OsbdxcnHTDNb314F1D5OPtcV7zZefkWleJXT+gV6X6DOp/iaZ+8IMKCgq1aMVm3TFsQJXmfHjMzYqKS9CiFZv04Ve/qVlAY10/4LI6e/YbBvTSvCXrtGjFJj390Ai5ODuW23bk0AFq07KZPvrmD23bHWZdxXVGUKCfrrv6UvU5KyCa+PAI/bZ4rfaFRWnDtlBt2BZqvde8mb8evXuorr3qUuu1q/t21+GYeK1Yt0MxRxIVcyTRes/ezlY3Deqjpx68Te5uLiXm7tqxleZ+/oo++vp3LVu9TaEHoxR6MMp639PdVQP79dCtN9bc+XGOjvb6+PXxembqZ4qOS9CGrfskSTZms+xsK36L2NjY6NM3J+jpVz/R9j3hCo+MU/jp723Xjq309EMjNG/pes2ev7La9S1bvVUn0zPl28hTl3RrV+1xAAAAAAAAAABA/WWyWCwVH2xWwwqLihR39LiOJ6UqJzdP9vZ28vH2UEhwoHVV2oWqtp/9tgdf0b6wKI2/f7juHXl9pfpkZGYrIvqo0jOz5Whvr6DAxmri16jC9pHR8UrLzJKdra2CAhqraYBvue2LiiyKOZKgY8dTlF9QIE93V7Vp2VROjg7nrC0/v0DhUUeUejJDJpPk79tIzYP8ZWOunV1dLRaLouMSlJSaJndXFwUH+snR0b7S/Q9Gxikq9pjcXJ3UvFkTBfr71EhNw+9/WQcOxWjSoyN11/9dc95jlmXi1u/0ftTcWhkbAAAAQO0Z3XSwpoTcKL+U2UaXAgCVluh5tzw3r5PD8QSjS8EFJmHwUPkHlf9ZJQDUd3Wy0u5sNmazmjfzV/Nm/nU9teFq+9nH3TNMD0z8n774caGGXnu5Gnm5n7OPm6uzunVsXek53Fyd1bVjq0q3N5tNahHURC2CmlS6zxl2drbq0KZ5lftVl8lU/Vol6aKQZroopFmN1jRv6XodOBSjxj6euvU8z3kEAAAAAAAAAAD1V+0sWYIh+l7SSX0v6aSMrBy98OZXquNFlKhhCcdTNH3GT5KkJ+4bLgd7O4MrAgAAAAAAAAAAtYXQ7gLz+rP3ybeRp1Zv3KUZX/9udDmopuycXD3y3HvKyMzWDQN76aZBfYwuCQAAAAAAAAAA1CJCuwuMt5e73nz+AbVqHqgVa3do9cZdRpeEavjfp7NVUFConl3b6qUnRxtdDgAAAAAAAAAAqGV1fqYdat8l3dpp3jdTjS4D5+GF8aOMLgEAAAAAAAAAANQhVtoBAAAAAAAAAAAABiO0AwAAAAAAAAAAAAxGaAcAAAAAAAAAAAAYjNAOAAAAAAAAAAAAMBihHQAAAAAAAAAAAGAwQjsAAAAAAAAAAADAYIR2AAAAAAAAAAAAgMEI7QAAAAAAAAAAAACDEdoBAAAAAAAAAAAABiO0AwAAAAAAAAAAAAxGaAcAAAAAAAAAAAAYjNAOAAAAAAAAAAAAMBihHQAAAAAAAAAAAGAwQjsAAAAAAAAAAADAYIR2AAAAAAAAAAAAgMEI7QAAAAAAAAAAAACDEdoBAAAAAAAAAAAABiO0AwAAAAAAAAAAAAxGaAcAAAAAAAAAAAAYjNAOAAAAAAAAAAAAMBihHQAAAAAAAAAAAGAwQjsAAAAAAAAAAADAYIR2AAAAAAAAAAAAgMEI7QAAAAAAAAAAAACDEdoBAAAAAAAAAAAABiO0AwAAAAAAAAAAAAxGaAcAAAAAAAAAAAAYjNAOAAAAAAAAAAAAMBihHQAAAAAAAAAAAGAwQjsAAAAAAAAAAADAYIR2AAAAAAAAAAAAgMEI7QAAAAAAAAAAAACDEdoBAAAAAAAAAAAABiO0AwAAAAAAAAAAAAxGaAcAAAAAAAAAAAAYjNAOAAAAAAAAAAAAMJit0QUAqB+czA5GlwAAAACgmiwmO6NLAIAqs9jw0SQAAGczWSwWi9FFADBWbFKm0SUAAAAAqAaTTLIxWSSZjC4FaPDOvIv4oKz2mfMLVGRLYIfaEeDjYnQJAFBthHYArOKTc4wuAUA1BDRyksR7GGjIeB8DDR/vY6Dh430MXBjOvJcBoCHiTDsAAAAAAAAAAADAYIR2AAAAAAAAAAAAgMEI7QAAAAAAAAAAAACDEdoBAAAAAAAAAAAABiO0AwAAAAAAAAAAAAxGaAcAAAAAAAAAAAAYjNAOAAAAAAAAAAAAMBihHQAAAAAAAAAAAGAwQjsAAAAAAAAAAADAYIR2AAAAAAAAAAAAgMEI7QAAAAAAAAAAAACDEdoBAAAAAAAAAAAABiO0AwAAAAAAAAAAAAxGaAcAAAAAAAAAAAAYjNAOAAAAAAAAAAAAMBihHQAAAAAAAAAAAGAwQjsAAAAAAAAAAADAYIR2AAAAAAAAAAAAgMEI7QAAAAAAAAAAAACDEdoBAAAAAAAAAAAABiO0AwAAAAAAAAAAAAxGaAcAAAAAAAAAAAAYjNAOAAAAAAAAAAAAMJit0QUAMF5hkcXoEgCch1MFRUaXAOA88e9ioOHjfQw0fLyPAQCA0UwWi4X/IgH+48KPJ0uS+KcB0DA52zjKrqDA6DIAnAeTySRJ4j/NgYaL9zHQ8PE+Bhq+QhtbBfq6GF0GAFQbK+0A6IuYP/V+1FyjywBQTbuu+EqBhyLkfmCP0aUAAAAAAGCYhMFDJRHaAWi4ONMOAAAAAAAAAAAAMBihHQAAAAAAAAAAAGAwQjsAAAAAAAAAAADAYIR2AAAAAAAAAAAAgMEI7QAAAAAAAAAAAACDEdoBANDQmYwuAAAAAACAeoDfjwE0cIR2AAA0dBajCwAAAAAAoB7g92MADRyhHQAADR1/kxAAAAAAAH4/BtDgEdoBANDQ8TcJAQAAAADg92MADR6hHQAAAAAAAAAAAGAwQjsAAAAAAAAAAADAYIR2AAAAAAAAAAAAgMEI7QAAAAAAAAAAAACDEdoBAAAAAAAAAAAABiO0AwAAAAAAAAAAAAxGaAcAAAAAAAAAAAAYjNAOAAAAAAAAAAAAMBihHQAAAAAAAAAAAGAwQjsAAAAAAAAAAADAYIR2AAAAAAAAAAAAgMEI7QAAaOhMRhcAAAAAAEA9wO/HABo4QjsAABo6i9EFAAAAAABQD/D7MYAGjtAOAAAAAAAAAAAAMBihHQAAAAAAAAAAAGAwQjsAAAAAAAAAAADAYIR2AAAAAAAAAAAAgMEI7QAAAAAAAAAAAACDEdoBAAAAAAAAAAAABiO0AwCgoTMZXQAAAAAAAPUAvx8DaOAI7QAAaOgsRhcAAAAAAEA9wO/HABo4QjsAAAAAAAAAAADAYIR2AAAAAAAAAAAAgMEI7QAAAAAAAAAAAACDEdoBAAAAAAAAAAAABiO0AwAAAAAAAAAAAAxGaAcAAAAAAAAAAAAYjNAOAAAAAAAAAAAAMBihHQAAAAAAAAAAAGAwQjsAAAAAAAAAAADAYIR2AAAAAAAAAAAAgMFsjS4AxomLP64TySclSR0uaiEHezuDK/pvKSwq0u7QCEklX3+LxaLdoZEqshTJzdVZrVs0NbJMAAAAAAAAAABQB+plaGexWLR55wGt27xXUXHHlJWVK0dHe3l7uSskOEDdO7VW53YtZWNjI0lKOJ6ixSs3V2uujm1bqGeXtiWuHTgUo0079kuSvDzcdPPgvhWOkZaepd8WrylxzSST7O1t5e7qopbBAWrbKkhms+mc9VT12avrWGKybnvwFaWlZ2n0rYPVvVOb8xqvLr3z2Wydyi9Qr4vbq1+vrkaXU23Z2bm6a9w0SdLiH99QUKCfJMlkMung4Ti9+s63srW10XcfPKcu7UOMLBVAfXfuf70AAAAAAHDh4/djAA1cvQvtIqKP6rlpnys0PLrCdl4ebnrqodt08+C+ios/rrc/mVWt+cbcNrhUaPfRN39o5fqdkiSz2aRePTrIz8er3DFSTqafc/5Afx9NfOR2Dbj84nLbVOfZq6OwsFBPTflEaelZGnzlJXr6oduqNU5N274nXJOnfyEPdxfN+vSlctv99PsK5eTmyd7erkGHdhW5bciVSjieopk/LNBTr3ys3/6fvfsM06sq2wZ8zaRNKumN9ECogVCCEJAqRYoiigUpCoJ+KAooiAqKoPDasAAWeHlVBJSm0ouKgPReAgnphYSE9EkmmWQy83w/kowMmfSQneh5HkcOZ5699tr33pMNhiv3WtddmrZtWhVdFrC5KhVdAAAAAGwG/PkY2MJtVqHd+MnTcuKXvp/5CxamdauKHHfk/tllhwHp1GGrzF+wMBPenJanX3g9T78wInPmzc/wN8bn2CP2S+dO7fPRo/Zfab5SqZQ/3/uvJMk+e+yUnt07rTRmlx0adjDNrVyQfz39SpKkbZtWmb9gYe75+1M59ZMfXKt7OPaI/dJ+qzZJkgVVizJ1+qw8/cKITJk2M1+56Mpc9o3T8+HD991o974+fnvz/Xlp+Jj06tEll55/asrKNo+/grKoenEmT3078xe0We24YXvulOrFNenfu/smqqwYZ516XJ59aWReHD46P7j6j/ne108ruiRgc7V5/GMcAAAAiuXPx8AWbrMK7X549U2Zv2BhevXskhuu/Fa6dGq/0pjPnXBUfQdS+fKwqX/v7rnkvFNXGltbW1sf2n3qI4fkkP12X2MN9/3j6SxdWpvtt+mTffcanOtuuid3Pfj4Wod2n/nEESvtQTZ95px84fyfZNS4N/PjX/0pRx78vjRr1vDRr++9r6v5VYty3R/vTZJ88ysnplXLivWap0i/+N6Xiy5hkygvL8sl5302x372wtz5wOM5/dNHp2+vbkWXBWyO/E1CAAAA8OdjYIu32YR2tXV1efzZ15IkJ3/s8EZDqxW6d+2Yb597SuZXLdroddz54BNJkmMOHZZ999o51910T0aNezMjx0zK9tv0Wa85u3XukLPPOD5nXvDTzJ47P6PHT8mOg/rWH9+U9379rQ+kcn5Vdh88KAfsvetanTNi9MSMHDMpi6oXp0un9hk6ZPu0b9d4N9ySmqWpnF+V8vLydGzfNsmyZT9fHTEu1YuXZECfntlzyHZpUl7e4Lx5lVWpnF+VJCmllJmz5zU43rpVRVpWtEiyrBty6dLatGndMhUtmjdax/wFC/PMSyPz9ow5ad68WbYdsHUGbz9glV2F756zpmZpnn1pZCa+OT3NmzfL7rsMWm1nX03N0kx4c1renjknM2dXplQqpUP7ttlhm77p2nnVP881GdC3Z4794H65/Z5H88vf/zU/+Nbn13suAAAAAABg87XZhHbV1UtSW1ubJGnSpHwNo5dp27rlRq1h4pvT88qIsSkvL8uRh+ydrp3bZ9DA3hk1dnLufPCJ9Q7tkqR3jy71Xy9cVN3g2Ka699q6uvzpjoeSJCd97NA1jn9t1IR8+4f/l5FjJjX4vEmTJjnhI4fkq5//+Eodgw8/8WLO+c7V6dmtU6674vxccsX1efL51xqMGdivZ35+6ZcbhGBf/ObP8uLw0UmWBXgHHPeVBuecc8bx+dwJRyVJTj3nB3lj7OR897zP5mNHHbDSPV553Z/z+1vuz5KapQ2O9e/TI5ec99nsPnjQSvd6ypcvz5gJU/K9r5+WRdWL86vf35HZc+fXHy8rK8vxxxyYi84+OeXlDYO/v//r+Xztkl+l5l3XW3HePnvulEu+9tn06Lby8qxr48SPHpbb73k09z30TC740gnpsFXb9ZoHAAAAAADYfK1dQrQJtG5VkY4d2iVJ7rj/8SxeUrPJa7jzwceTJHsN2aG+O+qYQ4clSe75+5Opratb77lnzams/7rXOwK8ZNPd+wuvjsrsOZVp3aoiBw3bbbVjX3tjfE758uUZOWZS+mzdLaedcFTOPeP4HHPosJSVJX+47cGcdeEvUio13nM+c/a8HPvZC/Pk869lu4G9c9gBQ7PbztumvLwsYydMzelf+1GqFv47vNxuYO9s02/rJMtCwd123rbBr+5dOq7VPX79e7/JtTfendrauhxx0F4554zjc8aJx2RA354ZP+mtnHbuD/PsSyNXef4V19ya7//8hixctDjD9twphx0wND26dUqpVMotd/4zN/3l7yuds6BqUWpqlqZr5/Y5YJ8h+dRHDskJH/lA9ttrcJo0Kc8Tzw7PaV/94Xr/XAcN6JVBA3untrY2Dz324nrNAQAAAAAAbN42m067JPnYUQfkmhvuyisjxuYjp16Yj3zw/Xnf7jtk0IDeq1wGcWMplUq5+29PJkmOPnSf+s+P+sDe+ek1t2Tm7Hl58rnXst9eg9dr/r/ct2xvvR0H9U33risHUJvi3p9/eVSSZNieO6/UIfdOdXWlXHDZtVlUvTgH77t7rrj4zAbjT/zoofnM2f+Tfz39Sm6+85/55IcPXmmOJTVLs8cug/KNsz6dHbb991Kgz738Rj5//k/y1vRZ+cNtD+YLJ38oSXLROSfnsWdezefP/0natm6ZG6761jrf370PPZ37Hno6zZs1zbU/Pi977rpd/bEvffbYfOPya3PP35/KBZddk/tv/GGjz6ByflVO+fgROfOUD6fN8m7G6sVLcta3fp4nnnstf7rjoZz40YZdikN22ia3XHNxdty270rLb742akI+85X/ycQ3p+fvjz6foz6w9zrfV5IcuM+QjBo7Oc+9PDIfPWr/9ZoDAAAAAADYfG02nXZJ8v9O+XAO2GdIkmVLVf7s2tvyqf93aYZ+8PM5+qQLct6lv87t9zyaBe/BXnYvDh+dN9+akRbNm+XQ/fes/7xb5w7Zc9ftk/y7E29dTJ8xO5dfeWPueODxNGvWNOef+alGx22Kex81bnKSZPD2/Vc77vFnX824iVPTonmzXPr1U1cKt3bevn9O+9SRSZLf3/JAo3N079ox1//imw0CuyTZc9ft8onlId89/3hqve5jVa6/dVktnz7u0AaBXbKse+87534mbVu3zLS3Z+eBh59tdI4LvnRCzj/zk/WBXZJUtGiez3ziiCTJ+Elvpbp6SYNz+vXunp0G9Wt0v7ydBvXLAfss2ztw5JiJ631vOy//mb0xdvJ6zwEAAAAAAGy+NqtOu+bNmuaXl5+dBx5+Nrfe9XCef+WNLKlZmrq6UsZPnpbxk6fl3n88lct+cUPOOPGYnP7po1faX2x93fngE0mSg/bdrUFgkyRHf2CfPPPiiPzjsRdStbA6rVtVrHKeM877cZo2aZJSkqqF1amcX5Uk6dxxq1x6/mkZOmT7wu596vRZSZKBy5ehXJWnXng9SbLnrtunfbs2jY45/MChueq3f8mkKdMzdfqs9HzXfm3ljQRYKxy4z675/S33Z/ykt7JwUXVatVz181xbC6oW5bU3xidJDj1gz0bHtG5VkX33Gpz7//lMnnz+tQYdlSu0rGjR6Lndu/z7/ioXLExFRePdj5OmTM+osW9m+sw5mTNvfubOW5DXR01IkgbLga6rnolqzgAAIABJREFUFUuHTp02c73nAAAAAAAANl+bVWi3wuEHDs3hBw5NTc3SjJv0Vt4YOzmvvTE+r7w+Lq+OHJfqxUvyi+tuz6LqxTn79I9t8PWW1Cyt77w6+gMrBzmHHTg03//5H1JdvSR/e/S5HHvEfquc6+2Zc1f6rF3b1vnL/30vHdu3XWMt7+W9L1iwMEmyVbvWqx036c23kyQD+vZY5Zi+vbunrKwspVIpk6e8vVJotzq9enZNsmxJ0llzKjdKaPfmWzNSV7dsf70BfVZdd7/e3ZMkk6e+vU7zt23Tqv7rUqnh3oalUim33/tofven+zJ+8rRVztH47n9rp13bZdevWrT+wR8AAAAAALD52ixDuxWaNWua7Qb2znYDe+dDhw1LkoyfPC1nX3RlxkyYkt/dcn9O//TRq+18WxuPPPlSfUfc5VfemB9c/ceVxtSVlkUudz74+GpDuxuvvjAD+/ZMkowcMylnnPfjVM6vynev+F1+9t0vNbqEYmPei3uvqa1NkjRv3my14xZVL06StFjNuCbl5WnerGkWL6lJ1aJ1W7Kz+TuW21yyZOk6nbsqK2pOkhar2QOw1fJOunXteltdV+N3r/h9br3r4STLlrHcb+jg9Nm6a7p07pCO7dvmuj/em3s3cCnQFT+LurpSamtr06RJkw2aDwAAAAAA2LxsVnvarY3+vbvnq1/4RJKkpmZpJkx+a4PnvPOBJ+q/njJtZiZPfXulXzU1y8KlZ18amekzZq9yrtatKtK2Tau0bdMqQ4dsn0vOPzVJ8vdHn8+Pf33zBtW5ofde0XxZmLVwDYHViiBwdV1dS5fWZvGSmiRJm1YtVzmuMSsC0mTNXX9rq/U7uvWqFq46RFxxT+9eAnV9vfbG+PrA7jvnnpKbf/2dnHXacfnwEftl2J47Zftt+myUay2oWlZ306ZNBHYAAAAAAPAfaLPutFuVHt061n+9tLZuNSPXbG7lgjz69MtJkp9+94vZfps+jY6rqyvlhC9emnmVVbn7b0/mtBOOWqv5jzl0WMZPeiu/+cNd+d3N96fP1t3yiQ8dtN71bsi9d+rYLmMmTMmM2fNWO67v8iUkR497c5VjxkyYUv91v96rXo6yMa8t3+OtU4d26dxxq/rPVzQhruhqXBe9t+6aJuXlqa2ry+hxb2av3XZodNzocVOW19x9na/RmGdfeiNJ0r9Pj3x8A36uazJz+c+sU/t279k1AAAAAACA4mw2nXZjJkzJNy67JvOX77u2Oo8982qSZR1h2w3ovUHXve+hp7N0aW26d+2YQ/ffM3227tbor369u+fQ/fdMktz54BNrmLWhs049LocdMDRJ8v2f31Bf/wqb6t57L99LbtTYyasdt9/QnZMkL746OlOmzWx0zF1/W/YMtum3dbp2br/WNZRKpdx8xz+TJAfvt3uDYy3fsXTlO5e7XBstK1pkt8HbNqjt3WbPqcwTzw1Pkuy7/B431IrOvaar6X6rXsd7acwbYyclSfps3W2D5wIAAAAAADY/m01oVyqVcueDT+TwE87Lz669LeMmTl1pzIKqRfntzffl5/97e5LkpI8dloqKVe9ftjbuWh7AHXnw+9a439xRh+ydZFnI9vqoiWt9jbKyslz+jdOz06B+qa2tzbkXX90gONtU9z54+wFJli3xuTp77bZDdhzUN7V1dTn/e79eKUx85KmXc8Ptf0uSnPqpIxudo2pRdX1H3QqLqhfnkp9enxeHj05Fi+Y59ZMfbHC8f58eKSsrS21tbW69+5EGx1YsT7o6n/n4EUmSv97/WO596OkGxxYuqs7XL7sm1YuXpG+vbjnkXYHh+ho0oFeSZOzEKXnkqZcbHHvzrRk5+9tXrXPI25hnXhyRJBm8Q/8NngsAAAAAANj8bDbLY5aXLcsP51VW5dob7861N96dLp3ap3fPrmnVskVmzJqbiVOmp7p6SZLkyEP2zpmnfHiDrjlpyvS8/PrYJMnRhw5b4/g9d90+3Tp3yPSZc3LXg49nx0F91/paFRXNc9VlZ+eTX/hups+cky9c8NP86VffTtfO7TfZve+9x45JkpdfH5vpM+ekW+cOqxz7P9/8fE7+8mV5afiYHHHC+Tlg2JBs1bZ1Ro2dnKdeeL2+jg8fvm+j58+rrMrHz7g4XTu3T8/undOkvDwjRk/KwkXVaVJenkvPP3WlrrEOW7XNAfvsmoefeCk/vPqPefDhZ9OuTatMnDI9x33w/WtckvSgfXfLJz50UG6+858575Jf5U9//Ud2GtQvVYuq88iTL2fm7Hlp3aoiP7roCxttX7iD990tgwb0yqhxb+bMC36aQQN7p1vnDpk5e15GjpmUsrKkS6f2mTFr7npfY+nS2jz61CtJkmEbqUMQAAAAAADYvGw2nXYD+/XM7f97SU7+2GH1Yc6MWXPzwquj8tgzr+aNsZOzeHFNdt6+f664+IsbJXhZ0QE1sF/PbDdwzUtNlpeX5YiD35ckuecfT6W2tnadrte1c/tcddnZqahonukzZueL3/xpFlUv3mT33qtHlwzZeZuUSqXc9q5Otncb2K9nbrz6wgzbc6fMrVyQO+5/LNff+kCeeuH1tGndMmeddlx+8K3Pr/L8Dlu1zUeP2j+V8xfmpeFj8vwro7JwUXUGDeyda378tRy5vGvx3S49/7TsO3RwSqVSXhw+Oo889XImTJ6WFi3WrqvwonNOzte/+Kls1a51nn9lVK6/7cHcfs+jmTl7XvbYZVBuuOrC7LTdxutWa9KkSX79w69mj10GJVm29Oi/nn4lI0ZPzK47DcwfrvxWDtp3tw26xoOPPJu5lQvSpVP7Ve7VBwAAAAAAbNnKSqVSqegiGjOvsioTp0zL/AULs7S2Lm1bt8yAvj3Tvl2bokt7z72X9/7IUy/nzAt+mo7t2+b+m36U1q0q1njO9JlzMnLMpFRXL0nnjltl8A4D0rxZ402aDz7ybM75ztXp2a1T/nbzT1K9eEmmTpuZOfMWpFuXDunVo8ta1Tl95py8OXVGWjRvll49u6zzvdfW1ubVkePz9sw5ad6sWbYd0Ctbd++8TnOsqzfGTs74SW+lbZuW6de7x0a5XqlUyvFnXJwRoyfmgi+dkJM+dthGqHRl5z97fX4+/rb3ZG7gvffS/v+XrUePSbsRrxRdCgAAABRm2hEfSfc+a/ffHwE2R5vN8pjvtlW71tml3cCiyyjEe3nvB+y9a3bdcWBefn1sfnPDXTn3jOPXeE63zh1Wu5Tm6lS0aJ4BfXuu83kbcs1kWQfckJ22We/z18d2A3uvVcfmurjjgcczYvTEdO3cPh//0EEbdW4AAAAAAGDzsdksj8mmc96Zn0yT8vL87k/31e/px+Zn2tuz8z9X3ZQkOfv049OiebOCKwIAAAAAAN4rQrv/QrvtvG3O/Myxqa2ry9nfvjLTZ8wuuiTeZeGi6nzxmz/L/AULc/Sh++TDh+9bdEkAAAAAAMB7SGj3X+qME4/JEQftlXZtWueyK2/M4iU1G2XeNq1bZZt+W6dfnx4bZb7/Vj/59S1ZurQ2Q4dsn++ce0rR5QAAAAAAAO+xzXZPO95b5eVl+cl3ztzo8w7bc6fc8bvvb/R5/9tcdM7JRZcAAAAAAABsQjrtAAAAAAAAoGBCOwAAAAAAACiY0A4AAAAAAAAKJrQDAAAAAACAggntAAAAAAAAoGBCOwAAAAAAACiY0A4AAAAAAAAKJrQDAAAAAACAggntAAAAAAAAoGBCOwAAAAAAACiY0A4AAAAAAAAKJrQDAAAAAACAggntAAAAAAAAoGBCOwAAAAAAACiY0A4AAAAAAAAKJrQDAAAAAACAggntAAAAAAAAoGBCOwAAAAAAACiY0A4AAAAAAAAKJrQDAAAAAACAggntAAAAAAAAoGBCOwAAAAAAACiY0A4AAAAAAAAKJrQDAAAAAACAggntAAAAAAAAoGBCOwAAAAAAACiY0A4AAAAAAAAKJrQDAAAAAACAggntAAAAAAAAoGBCOwAAAAAAACiY0A4AAAAAAAAKJrQDAAAAAACAggntAAAAAAAAoGBCOwAAAAAAACiY0A4AAAAAAAAKJrQDAAAAAACAgjUtugBg83B4172KLgHYQIu27lN0CQAAAADAeiorlUqloosAijVx9twkyeKa2oIrAdZHyyYt0qK2LnX+jQ5brBbNli2AsbimruBKgPXlPYYtn/cYtnyllKVH97ZFlwGw3nTaAenbsX2SZOqsRQVXAqyPnp1aJvEOw5asg/cYtnjeY9jyeY8BgKLZ0w4AAAAAAAAKJrQDAAAAAACAggntAAAAAAAAoGBCOwAAAAAAACiY0A4AAAAAAAAKJrQDAAAAAACAggntAAAAAAAAoGBCOwAAAAAAACiY0A4AAAAAAAAKJrQDAAAAAACAggntAAAAAAAAoGBCOwAAAAAAACiY0A4AAAAAAAAKJrQDAAAAAACAggntAAAAAAAAoGBCOwAAAAAAACiY0A4AAAAAAAAKJrQDAAAAAACAggntAAAAAAAAoGBCOwAAAAAAACiY0A4AAAAAAAAKJrQDAAAAAACAggntAAAAAAAAoGBNiy4AKN7C6qXLviiVii0EWC/eYdjyeY9hy+c9hi2f9xgAKJrQDsgfJzyWJCnFH0xgS1Q2syyJdxi2ZN5j2PJ5j/lPdGSXvdNyysSiy9hklpQte49bCu1gi1XduVuSVkWXAbDehHZA3pg/KT8ff1vRZQAAALAZGX/Izenw1KNFlwGw1qYd8ZGiSwDYIPa0AwAAAAAAgIIJ7YBk+RIgAAAAAABAMYR2AAAAAAAAUDChHQAAAAAAABRMaAcAAAAAAAAFE9oBAAAAAABAwYR2AAAAAAAAUDChHQAAAAAAABRMaAcAAAAAAAAFE9oBAAAAAABAwYR2AAAAAAAAUDChHQAAAAAAABRMaAcAAAAAAAAFE9oBAAAAAABAwYR2AAAAAAAAUDChHQAAAAAAABRMaAcAAAAAAAAFE9oBAAAAAABAwYR2AAAAAAAAUDChHQAAAAAAABRMaAcAAAAAAAAFE9oBAAAAAABAwYR2AAAAAAAAUDChHQAAAAAAABRMaAcAAAAAAAAFE9oBAAAAAABAwYR2AAAAAAAAUDChHQAAAAAAABRMaAcAAAAAAAAFE9oBAAAAAABAwYR2AAAAAAAAUDChHQAAAAAAABRMaAcAAAAAAAAFE9oBSalUdAUAAAAAAPBfTWgHAAAAAAAABRPaAQAAAAAAQMGEdgAAAAAAAFAwoR0AAAAAAAAUTGgHAAAAAAAABWtadAFbqvGT3sqcefPTvWun9OzWqehyNonJU9/OjFlzkyQ7bdc/LZo3K7ii/0ylUikvvzY2daW6tG3TKtv271V0SQAAAAAAwHtssw7tHnnypYyb9FaDz8pSlqZNm6RlRYv06NYpQ3YamFYtKzZ5bT//39vzt0efy2knHJVzzzh+k19/U3tr+qx84gvfzbzKqpzy8SOy++BBm+S6096end/dcn+S5BMfOij9+/TYJNddF7fd/UjGTJiSnt075+SPHbbB85WVleWNcZNzyRW/T9OmTXL9L76ZXXccuBEqBQAAAAAANlebdWh319+ezH0PPb3aMa1aVuSznzgiXzj5wykvL9tElf13qa2tzdcu/VXmVVbliIP2ynn/7xOb7Nqz5szLH257MEmy316DG4R2v735vtx8xz/z/vftkm995cRNVtO7PfTYC3nkqZezyw4DN0polywLKKe9PTvX3HBXvvbdX+bP112atm1abZS5AQAAAACAzc9mHdqt0L939xz8/j3qv6+pWZq3Z87JU8+/nrmVC3L17/6aJk2a5PMnHVNglf+5fnvz/Xlp+Jj06tEll55/asrKNl042qZ1q+w7dHCSpEP7tg2OzZm3oMGSnUXZcbt+WVpbl4F9N24X4FmnHpdnXxqZF4ePzg+u/mO+9/XTNur8AAAAAADA5mOLCO226d+r0SUol9Qszann/CAvDh+dW+76p9DuPTC/alGu++O9SZJvfuXETb4Uad9e3XLNj766Sa+5rr702Y+8J/OWl5flkvM+m2M/e2HufODxnP7po9O3V7f35FoAAAAAAECxtojQblWaN2uaQ96/e14cPjozZs1rdEypVMqbb83IW9NnZeacyixatDjt2rbKwL49M6BvzzVeo7a2Ns+9PCrjJ7+Vli2ap/fWXTNkp23Xqr7aurq88MqojJkwJWVlZRnYr2f2GLxdFlUvzqLqxWnVssVqQ7CRYyZl5JhJWVC1KB3bt83ugwele9eOq73m2zPnZvgb4zJn7oK0rGievr27Z7sBvdO0aZO1qvndrr/1gVTOr8rugwflgL13XatzKudX5ZUR4zJ77vy0rGiebfr3Sv/e3RuMWVKzNJXzq1JeXp6O7+igW7q0NpULFmartq3SpEmTlEqlzJpTmWRZp12T8vIkyczZ87Jo0eL6uWbObvjzb9+uTaP3vC7PdG7lgixdWps2rVumokXz+s/nL1iYsrKytGndMklStbA6i6oXp0WL5mm7/LN3mjl7XiZPfTuzZldm3vyqtKxonl49u2SnQf3SpMnqfy4D+vbMsR/cL7ff82h++fu/5gff+vxqxwMAAAAAAFumLTq0S5LK+QuTJH227rrSsbdnzs0xp3wjC6oWNXpu/z498p2vnpKhu27f6PEnnh2e7/z4t5k6fVaDz3t065Q1LRD50OMv5PJf3LjSub16dEmzZk0zftJbOe2EoxrtIHxx+Ohc8tPrM2rs5Aafl5WV5UOHDctF55yclhUtGhx7a/qsXPqzP+TRp15OqVRqcKx1q4p8YP89c9kFn1tD1Q3V1tXlT3c8lCQ56WOHrnH8zNnz8sNf/jH3PfR06uoa1rBNv61z4kcPzfHHHJgkefiJF3POd65Oz26d8rebf5Innh2ea264O8+/+kbq6koZ2K9n7vzdZVlQtSgHHPeVJMl9N/4gfbbultra2vrPkuSRJ19q8H2S3PTLi7LrjgPrv1+fZ3rKly/PmAlT8v0LPpeD990t1954d+544PH6EPGKi7+Yww8cmiv/78/5w20P5uhD91kpVPv4GRfntVETGn1e7du1yVmnHZdPfvjg1T7XEz96WG6/59Hc99AzueBLJ6TDVm1XOx4AAAAAANjybNGh3bzKqjzw8DNJks+dcNRKx2uWLs2CqkVp1bIiu+wwIFv36JzWLSsyY/a8PPbMqxk/6a2c8bUf59Zrv5tt+m3d4NxHnnwpZ114ZWpra9OpQ7vss+dOadWyItNnzMnLr43J3MoFq6zrrr89kW9cdm1KpVJ6duuUYXvunBYtmmXq9Fl55sURqVpYvcpz//X0Kznrwl+kpmZp9t97l+w7dHCaNWuacROn5s/3/it3PPB4Zsyam2t+9LX6veXmL1iYk758Wd6aPivdunTMB96/ezp33Cpz5s7Pc6+8kddHTcwd9z+2zqHdC6+Oyuw5lWndqiIHDdtttWOnTp+Vk876fqa9PTstK1rkgH12Tc9unTJrTmWefP61jJkwJb+/5f760G6FmqW1ueiH1+XP9/6rwed1tXWrvlhZWXbbedtMnT4r02fMTvt2bdK/T8P95Nq0+nfH2/o803d6/pU38rNrb1tp77zautXUuNycefPTpEmT7Lxdv/Teums6ddgq8xdU5ekXRmTKtJm59KfXp1nTpvnoUfuvco5BA3pl0MDeGTV2ch567MXVjgUAAAAAALZMW0RoN2nK9Fx/24P139csqcmkKW/nwUefy+LFS3LBl07IsUfst9J57du1ybU/+lqGDtk+zZo1vNV5lVU5+cuXZcyEKfnDbQ/mu1/7bP2x+VWL8s3L/ze1tbU5dP89c/k3T2/QhbV0aW0+f/5P8tQLr690zZmz5+W7P/l9SqVSPnb0Abno7JMbLNO4eElN/t8FV+TpF0asdO7cygX5+vd/k5qapbn4q59ZKeA66aOH5bjPXZQnnnstDz/xUg7ad1mQdsud/8xb02elf+/uufk3F6d1q4ZLbo4e/2Z+du1tjT3a1Xr+5VFJkmF77rzS83u38y79Vaa9PTuDBvbOr39wbrp17lB/rLauLvf+46ncfvejK503Y9bc/OW+x3L4gUNz3JH7Z0DfnqmrrcvseZWrvFaT8vLccNW3csU1t+a6m+7J0CHb52eXfKnRsev7TN/pz/f+K906d8j5Z34yw4bunHZtWmXOvAXp2L7dap9Jknz73FMyZKdt0rZNqwaf19WV8o3Lr8ndf3sy1/3xnjUGcQfuMySjxk7Ocy+PFNoBAAAAAMB/oC0itHtj7OT84KqbGj1WUdE8r4+akJFjJmX7bfo0ONa6VUWGDd250fO2atc6Jxz3gVxyxe8zcsykBsduu/vhzK1ckC6d2q8U2CVJ06ZNVgphVrjpL3/PourF6dur20qBXZK0aN4s7dq0bvTcm+/4Z+ZVVuXAYUNWCpeSpFfPLvnksYfkupvuyQMPP1sfMI2d9FaSZIdB/VYK7JJk2/69cvVlZzd6zdUZNW7ZUpKDt++/2nHPvDgiLw0fk/Lyslxx8RcbBHbJspDtmEOH5fAD91rp3IqK5vnlZefkfbvv0ODzXj27rHO9jVnfZ/pOjQW33bqsfm/BFd7/vl0a/by8vCxfOOlDuftvT2bim9NTXb0kFRXNGx2bJDsv/xm88a7lPQEAAAAAgP8MW0Ro17939xz8/j3+/UGplMVLajJ56ow89/LI3PngE3ng4Wfzgws/n0P337PROWbPqczIMZMy+a0ZmTNvfubOW5ARoycmyUrLVT7y5MtJkiMP2XulwG5NHntmeP257w7s1uTRp5ddt7Fwa4UdlgeTYyZMqf+sR9dlAdIjT76UJ557LcP23GmdrrsqK/bjG/iupUPf7dGnXkmS7Lbztunfu/sqxzVvpFuv41ZtVwrsNqb1fabvdOCwIev8++DdFlUvzsgxkzJ+0rTMmVuZOfMWZPqM2fXHqxZVrza0W7F869RpMzeoDgAAAAAAYPO0RYR22/TvlXPPOL7RYwsXVeeC71+Tfzz2Qr55+f9m6JDt075dm/rjz748Mlf931/y/CujUiqVGr/Auz4fN3FqkmSHbfs0Nnq1prw1I0kyoG/PdT53/PKOuW9cdk2+cdk1qx07v2ph/dfHH31g/nDbg6laWJ3Tv/aj9OjWKbsP3jY7b9c/u+28bQbvMGCda0mSBQuWXWOrdo13BtbXPXlZ3dsNXPfn9V5b32e6sUyZNjM/u/a2/ONfz2fxkppVjlvl783l2rVd1tlZtWjV+yECAAAAAABbri0itFudVi0r8u1zT8lDj7+YhYuq8+hTr+RDhw1Lktz9tydzwWXXpFQqpUe3TvnA+/fIwL4907VLh3Rq3y4vDB/d6LKbC6oWJUmjS02uyaLqxUmSihbN1vncBVXLApndBw9qEDw2pmOHtvVfd+/aMX/61bfzg6v/mCeeG563ps/KPdNn5Z6/P5VkWafi9y74XIbstM061VNTW5skad589feyolOxVcsN60Z7L6zvM90YxkyYkpPOuiyV86vSulVFjjj4fdlx277p3rVjOnfYKnWlupx01mVrNVeL5T+DurpSamtr06TJunVxAgAAAAAAm7ctPrRLks4dt0qb1i0zf8HCTHt72ZKOi5fU5H+uuimlUikfPnzfXHLeqSstVzlp6tuNzteiRfMsXlKT6uol61xL69Yts3hJTSrnr3vXVutWFamcX5XTPnVkDhw2ZJ3OHdC3Z37zw69m5ux5eWn4mLw6clyee+WNvPL62IyfPC2fP/8nufv6y9OlU/u1nrOi+bLlGhcuXH13V5vWLZP8O+zcnGzIM91QV/z6llTOr8p2A3vn2h+fl04d2jU4PnP2vLWea0X42LRpE4EdAAAAAAD8ByovuoCNoaZmaaoXLwvYtlreTTVmwpTMmTc/SfLVL3xinfaXW7FH3ITJ09a5lgF9eiRJhr8xfr3PfWXE2HU+d4XOHbfKB/bfI+eccXxuvOrC3P6/l6ZVy4osqFpUv1ff2urUcVnINGMN4VK/Xsv2sXt91MT1K3o9lS3/39UtLbkxnun6eu6VN5Ikp3/66JUCu3W1IuDr1H7D5gEAAAAAADZP/xGh3W33PJKamqVJkvfttkOSht1hTZo0fpur6qRbsYzk3//1/CqvuSIkfLf99hqcJLnn709l1pzKlY5PmDwtY5fvmfdu+++9a5Lk1rserg8cV+WdXW2z56567KABvTKwX8/l41auZ3V69+yaJBk1dvJqx+33vmX3/MqIsasN7uZVVq3T9dek5fLlOGfMmrvKMev7TDdUXV0pCxctWyp1VYHxunRyvjF2UpKkz9bdNrw4AAAAAABgs7NFhnalUinzFyzM8JHj84Orbsplv7ghSfKhw4alX+9lXV8D+/ZMefmyXqzf/um+Bt1YC6oW5WfX3pZLfvr7Ruc/9oP7JUneGDs5v7ju9tTV/fvccROn5ozzfpJ/Pf1Ko+cef8yB6bBV21TOr8qJX/p+br3r4Tzz4og88PCzueiH1+VDn/lWxq0itPvUsQenY4d2mT13fj731R81Om7C5Gm59KfX54e//GP9Z9/+0f/lez//Q6a9PXul8eMmTs3o8W8mSQbvMKDR667K4O2XjX/2pZGrHbf37jvWz33OxVdl7ISGdS9cVJ3f33J/zjj/x+t0/TUZ2HdZGPnqyHF5bdSE+s9LpWX7viXr/0w3VHl5Wbbpt3WS5I9//Uf9XodJUltbm7/e/1g+9cVL13q+Z14ckSQZvEP/jVYjAAAAAACw+dgi9rT7+7+ezy4Hn1r/fW1d3UpjDj9waC7+2mfrv+/YoV2OP/rA3HznP/O/N92Te//xVPr16ZFFixbn9VETsnhJTbp16ZjpM1YOunbZYWCOO/L9+fO9/8pv/nBXbrv7kfTr3T2z51Rm/ORpKS8vS4et2jbaudW+XZtccfGZ+eI3f55JU6bn4p/Pp26kAAAgAElEQVT8rsHxnbfvn/Ky8rwyYmzKy8oaHGvXtnWuvPTL+cIFV2TkmEn50Ge+lR0H9Uvfrbtm8ZKajJs4NeOXL9n54SP2qz+vrrYuf/zLP3LzHQ9lp+36Z9CAXmnevFmmvjUzTz7/WpbULM0H9t8j++yx09o98OX23mPHJMnLr4/N9Jlz0q1zh1WO/fG3/19OPuuyvDl1Rj5y6oUZsvM26dalY2bOnpdXRoxNdfWS9F8eqG4s799rl3Tq0C6z5lTm5C9flt0HD0qyrDPwF9/7cnbdceB6P9ON4YyTjsl5l/wqT78wIod8/NxsN7BPysqSUWPfzJx589OtS8e1mmfp0to8+tSykHjY0J03ao0AAAAAAMDmYYsI7UqlUmrf0SlXVlaWihbN06VT++y8ff985Ij9Gg0zvnHWp1NXKuX2ex7J1OmzMnX6rCRJrx5dcuYpH06z5s1y3iW/avSa3zn3M2nRonluueOfmTWnsn6py+0G9s43zvp0bvzz3/O3R59r9Ny9dtshd/3+stz013/k1RHjUlOzND26dsxB++2eIw7cK1++6BdJkjatW6507pCdt8lt1343V//2L3nwkefy2hvj89o79sdr365NDj1gz3z8mIPqPzvl40ckZWV58rnheXXEuLw6YlyD8WeceGhO//TRq3y+q9KrR5cM2XmbvDR8TG67+5F88TPHrnbsrdd+Nz+79tbc+4+n8/wro+qPNSkvzwF775pPfeSQda5hdSoqmueXl5+Tr3//N5kweVqeeHZ4/fWaNf33b+31eaYbw5EHvy/zKhfkit/cmnmVVfXdcm3btMrnTzomxx25fw7/1HlrnOfBR57N3MoF6dKpffZavvwrAAAAAADwn6Ws9M51I/9DTXt7doaPHJ8mTcqzdffO2XZAr5S9q8ttVWbNqcyrI8Zl6dLa9OvTvX7Jww3xsdO/kxGjJ+bH3/5/+eDB71vluJqapRk1/s3MmTs/ZWVJ9y6d0q9P9zQpb3xV0yU1SzNm/JTMnluZUqmUbp07ZGC/nmnSpPE91dbGI0+9nDMv+Gk6tm+b+2/6UVq3qljjOSvqnjtvflq1rMg2/bZO2zat1ruGNSmVSpkweVpmzpmXdm1ap+/W3VJR0Xy1ta3tM90Y5lctyouvjs7iJUvSpVP77DioX5o3W7u8vFQq5fgzLs6I0RNzwZdOyEkfO+w9qfH8Z6/Pz8ff9p7MDQAAwJZp/CE3p+ftfyi6DIC1Nu2Ij6R7ny5FlwGw3raITrsN1b1rx3TvunZLEb5bpw7tcuCwIRutlpFjJmXkmElpUl6ePXbZbrVjmzVrmp0G9VvruZs3a5odB/XdwAobOmDvXbPrjgPz8utj85sb7sq5Zxy/xnPWte4NVVZWlv59eqR/nx5rHLupa0uStq1bZv+9d1mvc+944PGMGD0xXTu3z8c/tHE7AQEAAAAAgM3He9de9F/smhvuyhXX3JonnnstM2fPy+IlNZk1pzL3PfR0vvStn6dUKuWIg/dK187tiy51rZx35ifTpLw8v/vTfXn59bFFl/NfY9rbs/M/V92UJDn79OPTonmzgisCAAAAAADeK/8VnXab2ptvzcjt9zya6266p9Hjg3cYkAu/ctImrmr97bbztjnzM8fmyv/7c87+9pX506++nW5d1q9zkbWzcFF1vvjNn2X+goU5+tB98uHD9y26JAAAAAAA4D0ktHsPHH7g0NTULM3IsZMzd978LKpekjatW2bb/lvn0P2H5phD90mztdzTbHNxxonHZPT4NzNm/JRcduWN+eGFX9D59R76ya9vydKltRk6ZPt859xTii4HAAAAAAB4j21ZydEWYt+hg7Pv0MFFl7FRlZeX5SffObPoMv5rXHTOyUWXAAAAAAAAbEL2tAMAAAAAAICCCe0AAAAAAACgYEI7AAAAAAAAKJjQDgAAAAAAAAomtAMAAAAAAICCCe0AAAAAAACgYEI7AAAAAAAAKJjQDgAAAAAAAAomtAMAAAAAAICCCe0AAAAAAACgYEI7AAAAAAAAKJjQDgAAAAAAAAomtAMAAAAAAICCCe0AAAAAAACgYEI7AAAAAAAAKJjQDgAAAAAAAAomtAMAAAAAAICCCe0AAAAAAACgYEI7AAAAAAAAKJjQDgAAAAAAAAomtAMAAAAAAICCCe0AAAAAAACgYEI7AAAAAAAAKJjQDgAAAAAAAAomtAMAAAAAAICCCe0AAAAAAACgYEI7AAAAAAAAKJjQDgAAAAAAAAomtAMAAAAAAICCCe0AAAAAAACgYEI7AAAAAAAAKJjQDgAAAAAAAAomtAMAAAAAAICCCe0AAAAAAACgYEI7AAAAAAAAKJjQDgAAAAAAAAomtAMAAAAAAICCNS26AKB427Xtk1/ucm5KKRVdCrAeylKWJN5h2IJ5j2HL5z3mP9WcvfcvuoRNpqxs+Xtc8h7DlqrU1H/uBrZsZSX/TwT+6y2sXpokmbtgScGVAOujfZvmSbzDsCXzHsOWz3sMWz7vMfxn6Nm5VdElAKw3f/UASKuKZf8omFtVU3AlwPrwDsOWz3sMWz7vMWz5vMcAQNHsaQcAAAAAAAAFE9oBAAAAAABAwYR2AAAAAAAAUDChHQAAAAAAABRMaAcAAAAAAAAFE9oBAAAAAABAwYR2AAAAAAAAUDChHQAAAAAAABRMaAcAAAAAAAAFE9oBAAAAAABAwYR2AAAAAAAAUDChHQAAAAAAABRMaAcAAAAAAAAFE9oBAAAAAABAwYR2AAAAAAAAUDChHQAAAAAAABRMaAcAAAAAAAAFE9oBAAAAAABAwYR2AAAAAAAAUDChHQAAAAAAABRMaAcAAAAAAAAFE9oBAAAAAABAwYR2AAAAAAAAULCyUqlUKroIoFgTZ89NkiyuqS24EmB9tGjWJIl3GLZk3mPY8nmPYcu3ub/HzcqbpMXSUsrLmhRdCmy2SilLj+5tiy4DYL01LboAoHhXj70zI6smFV0GAAAAsAoHdNwlJ3bcL+1efqLoUmCzNW/wHkmEdsCWS2gHJEkeePuZoksAAAAAVmGHNn2SJC2n+Eu3sCrzdtmj6BIANog97QAAAAAA2PLZCArYwgntAAAAAAAAoGBCOwAAAAAAACiY0A4AAAAAAAAKJrQDAAAAAACAggntAAAAAAAAoGBCOwAAAAAAACiY0A4AAAAAAAAKJrQDAAAAAACAggntAAAAAAAAoGBCOwAAAAAAtnxlRRcAsGGEdgAAAAAAbPlKRRcAsGGEdgAAAAAAAFAwoR0AAAAAAAAUTGgHAAAAAAAABRPaAQAAAAAAQMGEdgAAAAAAAFAwoR0AAAAAAAAUTGgHAAAAAAAABRPaAQAAAAAAQMGEdgAAAAAAAFAwoR0AAAAAAAAUTGgHAAAAAAAABRPaAQAAAAAAQMGEdgAAAAAAAFAwoR0AAAAAAAAUTGgHAAAAAAAABRPaAQAAAAAAQMGEdgAAAAAAAFAwoR0AAAAAAAAUTGgHAAAAAAAABRPaAQAAAAAAQMGEdgAAAAAAAFAwoR0AAAAAAAAUTGgHAAAAAAAABRPaAQAAAAAAQMGEdgAAAAAAAFAwoR0AAAAAAPx/9u47yq+qbBvwPTMpk95JSA8hIZBCFwlIE6VIEUGqvIq8oqJ+IgJ2XhVFQawoCogCNrpKR0B6DSWUkAJpJKSROpPJpE3m+yNkSJhJDzkJXNdaWWTO2fucZ5/fnMlKbvbeAAUT2gFJSUnRFQAAAAAAwPtao6IL2Nq8OWtuJk2ZkZbNm6V/3x5Fl7NZzJlXmfGvT02S9OreJR3ata47N3nKm5kxa046tGuTXt07F1ViPS+OHJulS2vSr0/3tGrZvOhy1kttbW1eGDE2y2qXpVXL5unXp/vmuOm7fw8AAAAAAGC1tsjQbvTYSXn8mZdXOVaSkpSVlaZpk8bp0L5Nhuy4XTp1aLvZa7v34Wfy41//NUN27Jt//P57m/3+m1tNTU2+/O1fZ/iI17L7kP65/OKvr3L+6hvvzj/+eX+OPnTfXPjN/y2oyvq++I1fZm7F/Fx+8dez7wcGF13OeikpKcnocZPyw19ck0aNynLtb76dnXfqW3RZAAAAAADAu2iLDO2Gj3gtl/z++jW2KS0tyaEH7pXvfvXUtGndYjNV9v7zyytuyvARr6V3jy753YVnpVl506JLel844agDM23G7Fzx19tyzg8uyy1XXbDVzRgEAAAAAADW3RYZ2q1Q3rRJTjn2I3Vf19TUZF5FVYa9MCqTp7yZO+9/MnPmVuaPPz+3wCrfu4aPeC1X33B3GjUqyyXnf1FotJl95bOfyLDho/L8y6/mot/9Iz/6xulFlwQAAAAAALxLtvjQ7uwzPtnguZ/9/rpcff3deeLZEZk85c1079ppM1f33vebq25ObW1tTj32o9mxX6+iy3nfKS0tyQ/PPS0fP+27ufWex/K5U47YovYNBAAAAAAANp0tOrRbk8MP2itXX393kuTN2XMbDO1mzp6XSVNmZNbsisyrrEqz8ibp3rVTBvbvnbKysrXeY/TYSXlp1LjULqtN1y4dsuugfutc35ixk/LiqHFZtGhJtu3cPnvvPjBlZWWpqKxK40aN1rik57QZs/PcS2Mye25lWjQvz8D+vdO/b4813m9+VXVeHDkuM2bOSUlJSbp27pCd+vdOi+bl61zzyoYNH5WnnhuZFs3Lc8anjljnfjU1NXn2xTEZP2layspKM2THvum/Xfc11j1x8rTMnD0vs+dWpqysLF06tctO/XunZYtma71f1YKFefK5VzL9zdlp16ZVtu/TLf36rP5+K1tQvTBPPPtKps2YnWblTTNoQJ/036575lbMz9KlNWnTqkUaN274FVm6tCbPv/xqJk6eniVLlmbbzh2y+847pNVaah47YUrGjJuUBdWL0qZVi/Tt0y19enRZbfvtenXNxw/bNzff8XAuu+Zfueg7n1+nsQEAAADA+05J0QUAbJytNrSbV7kgSVJSUpLu29YP7I4/4/sZMWZCg33btm6Zr5z+iZx49EENnp80ZUa+/ZM/5rmXxqxyvEXz8gbvtbKxE6bk/Ev+lOEvv7bK8VYtmqVvn24Z/vJrGbJj3/zj99+r13f6m7Nzwa/+kgcee77euZ136puLvvv59Oi6zSrHFy5anF9deVNuvO3BLFy0eJVzZWVl2Wu3HfPDc07Ltp07rLHud/rrLfcmSY46ZJ+0brVuewbe9d+n8vPLb8jU6bNWOX7wh3bPRd/5fMrLm6xy/OLLrsu1N96T2traetdq3LhRjj18v3zjyyenyWqCs2tuuDu//fO/sqB64SrHB+7QJ9ULF622ztra2lz5t9tz5d/uqNd3l4HbZ+yEN1JZVZ3LL/569v3A4Hr9b7nzkfzyyhsze07FKseblTfNFz99dE4/6fB6fZ55YXR+9Ku/5NXxk+ud69yxXU478bCcetxHG6z3U8d+NDff8XDu+u/T+eaXT067Nq1WOzYAAAAAeN+q/8+MAFuVrTK0W7asNjff8VCS5aFSpw5t67WZM2/5rK1BO/ROj27bpEO7NqmcX5WnnhuZN6bNzAW/vDaNGzXKsR/bb5V+U6bPyslf+lFmz6lIedMmGbrHoGzTsW1mz63MK69OyOixk1Zb17iJU3LKly5IZVV1WrZolv32GpKO7dtk5ux5efalV+sFeSubOn1WTvnSjzJ95pz079sjhx+0V9q3bZ3JU5fv3ffCK2Nz6lcuzC1XXZD2bd8Obc754e/zwGPPp3mz8hx9yD7p2b1zqqsXZcToCRn2wqg8PuzlTJ765nqFdosWL8kjT76YJDnyI0PXqc99Dz+Tf9/9aBo1KsvuQ/qnQ7s2Gf/61Lw6fnLue+TZfOPCy/PrH35llT5zK+antrY2fXt3Td9e3dKlU7ssXLwkI0ZPyIjR43Pdv/+bqgUL89PvnFHvfr+44sZc9fc7kiyfjbbboH5ZWlOTKdNn5YURr2XR4iWrrfX7P786N92+/Ptn4A59ssvAvlm8ZGkmTJqW514ck5ply1bb99I/3ZI/XHtrmjZpnE8c/qEM2bFvqhcuyksjx+WuB57OLy6/IUuX1uTzpx5Z12f4iNfyuXN+lsVLlman/r0ydI9BadasaaZOm5XHn3k5U6bPyv2PPLfa0K7/dt3Tv2+PjBk7Kf999Pl637MAAAAAQMy0A7Z6W3Rot2jxklx703/qvq6pqcnM2fNy3yPPZvKUN3P0ofvm+1//TIN9zz/709ll4PZp1bL5KseXLavNt35yRW6/94lc9Y876gUg37voqsyeU5E+PbrkikvOTdd3hF0rQpuGfPPHV6SyqjqDBvTJ73969irhWm1tbS790y25/C+3Ndj3Wxdemekz5+TIjwzNj7/1vykrLa07d8anjshpX7soL40clyv/dnu+8aWTkiQvjhybBx57PmWlpbn+D+dnu15dV7nmrDkV+dN1d6Zxo/X7mF8eNT6LFi9J+7atMmTH7dapz4LqRTnmsA/lrM8dl47t29Qdv+aGu3PxZdflvoefzXMvjclug/vXnTv+iAPy5dOOqfeMk+TG2x7M939+dW679/F87Yzj0rlT+7pzz744Jn/6x51JkrM/f3w+e+JhKSl5+0/kisqqfOTEczK/qrredR98fHhuuv2hlJSU5ILzPptjDvvQKudnz63MYaec12Dfp58fmcv/clvKy5vkr5d+p94+fwfvt0fO/v7v8odr/51PHrF/2rdrnST5/TX/zuIlS/Oxgz+Yi7/7hVX61NbW5tGnX8rDb4Wkq3PA3rtkzNhJeeaFUUI7AAAAAGiImXbAVq507U2KU71wUS767d/rfl3y++tz9fV3Z/KUN1NSUpI3Z83NI081HHZ8aK8h9QK7JCktLckXTj0qSTJx8vQsXPj2kpIjRo/Pk8+9kiS5+HtfbDBM6vBWEPNOTzw7IiPGTEhZaWl+fv6ZqwR2yfJlPFcOs1b2/MuvZtgLo9KpQ9v839c/vUpglyxfdvHLpx2TJLnnwWF1x8dNnJokad+udb3AbkWt537xxOwyaPsG77s6Y8Ytn024U//eq4Rha3LEwXvnR984vd4YP338oXXh1p33P7XKuV0Gbd/gM06STx55QN2zHj121SUlr/r7Hamtrc2B++ya0086vF6NrVu1SKPV7Fn4x7dm5x19yD71Arskad+21Wr7XvHX21NbW5uvnn5svcAuSQ45YM8M2XH5rL0HHh9ed3zcxClJkj13HlCvT0lJST6015B856ufavCeKwwa0CdJ1jjTEwAAAADe18y0A7ZyW/RMu/KmTXLKsR9Z5diSJUszc/a8PPPW0o+PD3s5p51wWM754gkNXqN64aKMeu31jH99WubMrcicefMz/c3ZdeerqhfW7bX20BMvJEl26t8rO/WvH8qsyWNPv5wk2XVwv3TvuuZ9795pxSyrD+01OM3KmzbYZkVINP3N2Zn/1vKb226zPPB6c9bcXHPD3TnlEx9Jo0YNB07rY8WedH17d1vnPqVlq89/999754x8dWJeHj2+wfM1NTV5dfwbeW38G5k1Z17mzJufOfMq65a4rFrw9qy3xUuW1gWrx31s/3WuL0nmV1XnxVfGJlke2q2PhQsXZ9gLo5IkH91/z9W227Ffz7w4cmxem/BG3bFtO3fIlOmz8vd/3pc9dxmQ3j26rNe9k2T7tz6LKdNmrndfAAAAAHhfMNMO2Mpt8aHd2Wd8ssFztbW1ufJvt+fXf7w5f77+rgzdY2CG7jmo7vwb02bmV1felPsfeXaN+5vV1r79k3zc68tnrjU0i2ptJk99M0kanPG2NuNeXz4T65Y7H8ktdz6y1vYrQrs9dxmQnfr3yitjJubiy67L76+9NbsP6Z9BO/TJ4B23y1677pjGjdf/I658a2nINq1arHffhvTouk2SZMbMuascX1C9MJf/5bbccufDmT23crX9V/6z9o2pb9Z9njv267ledUydMatuv7r1/ZxenzIjS5fWJEk+fPzZa20/v2pB3e//55OH5LmXXs2YcZPzsVO/mR369sjOA7fPwB1654O77rROIW/rVstnjVZVL1yvugEAAAAAgK3DFh3arUlJSUnO+NSRue3eJzJu4pTc9cBTdaHdaxPeyKlfuTAVlVVp0bw8hx60V3bq1ytdtmmfju3aZFntspz6lQvrXbNy/vKgpUWz8vWup3rhoiRJeZPG6923qmp5ENOn57bp02PbtbZv8lYQV1pakj/98pu55PfX5Y77nkzl/AV58PHhefCtpRnbtG6Rr3/+hPXeA23p0qVJkqYbMJaGrLjOkiVvh6cLqhfm01/9SV4ZMzFlpaXZf+9dsvvgfunapWM6tm+Tdm1b5Uvf/lUmT3lzlWtVrhSGNW/ebL3qWPEZJUnTpk3Wq+/Ks/0O2me3tbbfoe/bgeLBH9o9v/3xV/Obq27O6LGT6n6tsO8HBueC807PNh3brvZ6K57hsmW1qampSdlqlvAEAAAAAAC2TlttaLdCnx5dMm7ilEyb8faSl7/4ww2pqKzKDn175MpLzq23D93M2fMavFb5W0FO9aLFDZ5fk5YtlgdI8+YvWEvL+lo0Xx4S7vfBnXPemSeuV99WLZrlB+eclm986aQMHzE2L48al+Ejxuap51/JvIqqnP+zP6VTh7bZ74ND1vmaKwKtTTWra/5bM/darzRz7/pbH8grYyamRfPy/PmX38jAHfrU69e4gWCqvMnbYdvChYvSqsW6B3ctVwr5Kiqr1qvvykHuT79zRt1ntq4OGLpLDhi6S8ZPmpYXRryWl0ePz5PPjMj4SdPy6NMv5avfuzR/v+y7q91DcP5bwW6jRmUCOwAAAAAAeA/a6kO7isrlIVmb1i3rjj3z4ugkyedOOaJeYLcm23ZevkfchEnT1ruOPj2Xz5AbMarhfdvWpe+K/dY2RPNm5cuXCN1jYJJkXkVV/veci/PKmIm5/b7H1yu069iuTZLVh5vra8y4yUmSfn261x0bNnz5Z3TEwXs3GNitTpdt2tf9fsLkaenUYfWz096pe9dt0qhRWZYurcmI0ePTrUvHde7bo9vbfV8cOTZ77z5wnfuurE+PLunTo0s+fui+SZJ/3f1ovvPTP+bFkWPz+hsz0qt75wb7rfgsOrRd9+9nAAAAAABg61FadAEbY/TYSXnu5VeTJHvtumOS5csHLqhevgxio0YNz0hauLDhmXQ779Q3STJ8xGuZNaeiwTbVq+m77wcGJ1m+NOfjz4yod75y/oK6oOqd9t975yTJ8y+/mmEvjGqwzQorZq0lyZx5q98Hrk3rFnXB0pw17BfXkBV70I1ZaQnHDbWgemHuefDpJMmBQ3d5+/iC5TPHVjdrrGbZsix5aw+5lbVu1aIu5Lzv4Wcb7LtkydK6vetW1qRxo3zgre+Tv958b4NtHn9mxCrLaK7QrLxp9tx5QJLkj3+7I8uWrXlX25U/pzXt13fogR+o+/2aPqfRY19PkvTs1nCoBwAAAAAAbN22utBu4cLFGTdxSq698Z585qyfpqamJr26d85Rh+yTZPk+b9v37pYk+ce/7l8lgKmpqcm/7n40J33pggavfeDQXdO2dcssWbI037rwylSuFLzMrZifC3/z1/z6ypsa7LvLwO3rAqGzzr80f7j21jzx7Ig89MTw/PqPN+eQk8/Nfx4a1mDfXQf1q5shd9b3fpuHnhher82ceZW56u935DNn/bTu2L/ufjRnnPvzvDRyXL32VQsW5pGnX0qSDN5xuwbvuzqDBiyf+fbKmAmpWrBuS2ROnzF7laAqSSqrqnPejy7PrDkV2bZzhxz24Q/Wneu33fJZd/c8+HTemDZzlX7Pvjgmx5/x/Uyeuup+disc89YstetvfSAPPPb8KuceffqlHPPZ79btT/hOZ5xyRN09PnfOz3LXf5/KU8+NzC13PpLPnXtJPnfOz7Jo8ZIG+37x00entLQkTz73Sr554eWZWzF/lfO1tbUZ9sKofO7cS3LfI28Hisf97/m55oa7s6CB5UbveWB5oFnetEm279OtwfsmydPPj0ySDN5x3WclAgAAAAAAW48tennMuRXzM+Sgz9Z9vay2NrW1q85w6r9d91z646+maZPGdcfOOPXInPvD3+ep50bmw8efnR369kxJSTJm7OTMmVeZzp3apyHl5U1y3pdOyrd/cmUeG/ZSDjz2rOywfY8sXrwko8dOTk1NTTq0a73aWXg//c4Z+ezXLsqESdNy6Z9uWeVcx/Zt8tH998x/HhqW0tL6+5Zd9N0v5LSzfprXJryRM7/1q/Touk0GbN8zZWWleWPazLwyekJqli1L17eW8FzhsWEv5bFhL6VX984ZsmPftGndIrPnVOTxZ0ZkbsX89Oi6TT5z/KFrftDv0Kt753Tr0jFvTJuZh54YnsNXCttW58nnXsl+x/y/DBrQJ507tktV9aI89+LoVFZVp7y8SS76zufTpPHb326nHveR/OvuRzNrTkU+duo3M7B/77Ro3iwT35iWyVPeTMsWzdKieXmDoeGnjvto/v2fxzJ2wpR8+Tu/Tq/undOxfZtMmjIjM2bOTauWzdO4caMsWbK0Xt89dxmQr3/hhPzi8hvy1HMj89RzI1c5f9RHh+aBx55PZVV1St+xv9zuQ/rnW185JT+59G+5474nc/8jz2XITn3TqUObVM5fkBGjJ9R9b3xspWdWMX9BLr7suvzmqluy2+B+6dmtc2qWLcur4ydn+MuvJUnO/vzxdfsivtPSpTV5+MkXkyRD9xy01s8CAAAAAADY+mzRoV2SeksYNm3SOG1bt0y/7brnkAM+kKM+OrTeMpiHH7RX5lXMzy8uvzHzKqrqZim1atk8nz/1yHzi8P1yyEnnNni/ow/ZJ0uWLM3Pfn9d5ldV14UqHdq1zpdOOyY1NTX58a//2mDfzh3b5eYrf5gbbnsgTzw7IhWVC9K2TcvsteuOOfZj++fmOx7Kfx4alhbN62JbmlkAACAASURBVIcz7du2ynV/OD9X/u323Hjbg5k0ZUYmTZlRd75J40Y5YOguOfqtWWZJ8uF9d8u4iVNy/6PPZeLk6Zk4efoq7Y8+ZJ+c84UT0rpVizU94gZ97OC9c8Vfb8sNtz64TqHd7kP6Z9my2jz74phVjvfv2yMXnPvZutl7K/Ts1jmXX3x2zvvR5Zk6fVaGj1j+nBs1KsvhH/5gzvnC8Tn97IszfkH9/QWbNmmcP15yXr514RV58rlX6sZeUlKSA/fZNd/88sk54fM/yNwl8+v1TZLPnnhY9ti5f26+/eGMe31qykpL06fXtjnqo0Oz66B+2etjX0yStGggRDv5mIPTf7se+d3V/8ozL4yq+95aeVyHf3iv7LNSuHbemSfmlrseycujxufxZ0assnxq7x5d8uXTjslhB+212mf7n4eGZW7F/HTq0LZuNicAAAAAAPDeUlL7zqlr7yGVVdV5/qVXs2jx4nTq0DY79e+9ymyvNVm4cHGeH/FqKioXpHPHdhm8Y5/V7r+2ri763T9y7Y335ISjDsz5Z396te1qa2sz/vWpmT5zTpYsqUmHdq3St3e3lDdt0mD7ZctqM3HytEydMTtLli5N29Yt03+77mlW3nSDa509pyIfPencVC9clL9f9r26/f7WZtKUGRkzbnKWLVuWnt06Z4e+PdbYfunSmgwf8Vpmzp6X9m1bZYe+PdOm9bqHjONfn5qxE6akceOy7Nivd7bp2Had+zZkflV1XWj38D9/kw7tWq+2beX8BXltwhupmL8g5U2apGe3bbLtO2ZCvrP92AlTMm9+VRo3apSeXbdJ966d1lhPbW1tPnnG9zPy1Yn55pdPzqnHfXTDBrYW5w27Nr8e3/DSrwAAAEDxztruuJzd5Yh0vtPf32F1ph16TLr0XPO/twFsybb4mXYbo1WLZtnvg0M2qG95eZPsvfvATVbLwkWLc/cDTyVZvkTjmpSUlGS7Xl2zXa+u63Tt0tKS9Om5bfr03Haj61yhfbvWOfkTB+eqv9+Ri3/3j/zl0u80uKznO/Xouk16dN1mne/TqFFZ9th5hw2uc1OP+593PVJ33TUFdsnymZu7Duq3ztdu1bJ5dhm0/XrV8+97HsvIVydmm45tc/xRB65XXwAAAAAAYOvxng7tNreHnhie/z76fPb5wKAM3KFPOrRrnSVLazLq1Ym59E+3ZMbMuem+bacc/KHdiy51nZx+4uG59Z7HMnzEa7nmxrtz2gmHFV3SJvGNH1+eHfr2zO5D+qd39y4pL2+SN2fNzb0PP5NLr1q+F+H67gP4bpg2Y3Z++tu/J0nO+twnV9m3EQAAAAAAeG8R2m1CFfMX5KY7HspNdzzU4PkO7Vrnlz/4chqv4xKdRWvTukV+9r0v5PSzL84vr7gpO2zXI0NX2qtta/XCiLG5/d4nVnv+uCP2z3FH7L8ZK6pvQfXCfOnbv0rl/AU54iN75+hD9im0HgAAAAAA4N21daRHW4lBA7bLScd8OCNGTcibs+dmflV1yps2SY+u22SfDwzKCUcdmHZtWhVd5nrZc5cB+ernjsut9zyWS//0z/Ts1nmt+7Bt6T59/CF5fNiIjJ80NfMqq1JTU5O2rVtm0IA++fihH8rQPTbdsqgb6ud/uCFLl9Zkz10G5P/WsP8hAAAAAADw3lBSW1tbW3QRQLHOG3Ztfj3eRtYAAACwpTpru+Nydpcj0vlOf3+H1Zl26DHp0nPrnnAAvL+VFl0AAAAAAAAAvN8J7QAAAAAAAKBgQjsAAAAAAAAomNAOAAAAAAAACia0AwAAAAAAgIIJ7QAAAAAAAKBgQjsAAAAAAAAomNAOAAAAAAAACia0AwAAAAAAgIIJ7QAAAAAAAKBgQjsAAAAAAAAomNAOAAAAAAAACia0AwAAAAAAgIIJ7QAAAAAAAKBgQjsAAAAAAAAomNAOAAAAAAAACia0AwAAAAAAgIIJ7QAAAAAAAKBgQjsAAAAAAAAomNAOAAAAAAAACia0AwAAAAAAgIIJ7QAAAAAAAKBgQjsAAAAAAAAomNAOAAAAAAAACia0AwAAAAAAgIIJ7QAAAAAAAKBgQjsAAAAAAAAomNAOAAAAAAAACia0AwAAAAAAgIIJ7QAAAAAAAKBgQjsAAAAAAAAomNAOAAAAAAAACia0AwAAAAAAgIIJ7QAAAAAAAKBgQjsAAAAAAAAomNAOAAAAAAAACia0AwAAAAAAgIKV1NbW1hZdBFCsMTNmJUn8NICtU0nJ8v96h2Hr5T2GrZ/3GLZ+W/p73KS0LM1qSoouA7ZoNWWN0q1Ti6LLANhgQjsgNcuW/xiYPmdhwZUAG6Jzu/Ik3mHYmnmPYevnPYatn/cY3hu6dmhWdAkAG6xR0QUAxSsr9X/qwdbMOwxbP+8xbP28x7D18x4DAEWzpx0AAAAAAAAUTGgHAAAAAAAABRPaAQAAAAAAQMGEdgAAAAAAAFAwoR0AAAAAAAAUTGgHAAAAAAAABRPaAQAAAAAAQMGEdgAAAAAAAFAwoR0AAAAAAAAUTGgHAAAAAAAABRPaAQAAAAAAQMGEdgAAAAAAAFAwoR0AAAAAAAAUTGgHAAAAAAAABRPaAQAAAAAAQMGEdgAAAAAAAFAwoR0AAAAAAAAUTGgHAAAAAAAABRPaAQAAAAAAQMGEdgAAAAAAAFAwoR0AAAAAAAAUTGgHAAAAAAAABRPaAQAAAAAAQMFKamtra4suAijW6zPnF10CAACwAUpSkrKS2iQlRZfCe9H77F+MVrxF77Nhs1FK/PjdAnXt0LzoEgA2WKOiCwCK99vxt+SKibcVXQYAALCeju96YC7oe2S2mfPPokvhPWhqp89l23/9o+gyYItVMXDXzO3TLxXzFxZdCm8pL29cdAkAG0VoByRJqpctKroEAABgA5XULim6BN6jSmqWFl0CbPFqzc8EYBOxpx0AAAAAAAAUTGgHAAAAAAAABRPaAQAAAAAAQMGEdgAAAAAAAFAwoR0AAAAAAAAUTGgHAAAAAAAABRPaAQAAAAAAQMGEdgAAAAAAAFAwoR0AAAAAAAAUTGgHAAAAAAAABRPaAQAAAAAAQMGEdgAAAAAAAFAwoR0AAAAAAAAUTGgHAAAAAAAABRPaAQAAAAAAQMGEdgAAAAAAAFAwoR0AAAAAAAAUTGgHAAAAAAAABRPaAQAAAAAAQMGEdgAAAAAAAFAwoR0AAAAAAAAUTGgHAAAAAAAABRPaAQAAAAAAQMGEdgAAAAAAAFAwoR0AAAAAAAAUTGgHAAAAAAAABRPaAQAAAAAAQMGEdgAAAAAAAFAwoR0AAAAAAAAUTGgHAAAAAAAABRPaAQAAAAAAQMGEdgAAAAAAAFAwoR0AAAAAAAAUTGgHAAAAAAAABRPaAQAAAAAAQMGEdgAAAAAAAFAwoR0AAAAAAAAUTGgHAAAAAAAABRPaAQAAAAAAQMGEdgAAAAAAAFCwRkUX8F722oQ3ct/Dz2bUa69nXmVVGjUqS5tWLdK7R5cMHtAne+w8IC2al9e1//P1d23QfTq2b5MjPzI0SXLdv/+b6oWL6s6VpCSNGpWlebPy9OjaKUN26pumTRqv9lrzKqpyy10Pr/O9Dxi6a/r06FLv+PqO/Z1mz6nIXQ88nZdGjsvM2fNSW1ubli2apUfXbTJg+57Za7cd06lD23WusyEPPTE8416fWvd1SUpSVlaa5s3K07F962zfp3u6dem41utsqme2OcYMAAAAAABsmYR274LK+Qvyg19ck7v++9Qa2zVp3CjHHrF/vvvVU5Mkl/z++g2638D+vetCu8uu/ldmzalYbdsWzcvz2ZMOzxmnHJnS0pJ652fPrVivOjp3ar9KALWhY1+htrY2f7j21lzx19uyeMnS1fYvKSnJboP75fKLv55m5U3Xud6V3XbvE2uts0+PLjnmsA/l5E8cvNr7bOwz25xjBgAAAAAAtkxCu01s0eIlOe1rF2XkqxNTVlqag/bdLQcM3SWdO7XLokVLMnXGrDzzwug8+vRLmV9VnWHPj6rre+zH9mvwmg8+Pjyz5lRk+97dsvPAvvXOd21gNtgHd9spA/r1rKtp5qx5efLZEamsqs6lV92SN6a+mQvOO32NYzl4v93TplWLNbbp2XWbTTL2FS745bW5/tYHkiQ779Q3R35kaLpt2ymlpSWZOXteho94LY889WKmzZidZ18ck4WLFm90gNW7R5ccMHSXJMnixUtTtaA6EydPz4gxEzJ+0rT84oob88+7HsmlF57V4Ay5la3vM0uKGTMAAAAAALBlEdptYn+75b6MfHViGjdulKt+fl52H9K/XpuTPv7hVC1YmBtvezD3PDis7vgPz/1sg9f81Jd/nFlzKrL3HgPzzS+fvE51fPhDu+XkYw5e5djCRYtz/s/+lDvuezK33PlITj7m4OzYr9dqr/Hl045Jvz7d1+l+ycaNPUleHjW+Lrw6+4xP5vSTP1av/8cP3Tc1y5blgUefz8WX/WOda1uTfn2659wvnljveNWChbn5zodz6VW3ZPykaTnpiz/MjVd8Pz3eEbqtbH2fWVFjBgAAAAAAtiylRRfwXvPwky8kSfbfe+cGQ6sVWjQvz2dOODRXXHLO5iot5U2b5Htn/U/KysqSJE8/P3KTXn9jx76if7s2rXLaiYevtn9ZaWkO3m/3/PvqH6f1Wma1bYwWzcvzP8d9NNf/4fx06tA2lfMX5LwLLk9NTc0mu8eWNmYAAAAAAKAYQrtNrGpBdZKk0VvB2Nq0atHs3Syn/v1aNk+b1stDnwXVizbptTd27PMXLEySlJSWNLjf3js1K2+astJ3/1t4u15d8+NvLl9K9MWRY/PQW0HbprCljhkAAAAAANi8/Ov/JtazW+ckyaNPv5Qp02cVXE19i5csTeX8BUmSbtt22qTX3tix9+y2fNnJ2XMqcv+jz23S2jbWPnsOrlv28t93P7bJrrsljxkAAAAAANh87Gm3iR17+H65+4GnM7+qOp84/Xv5xOH7Zd8PDM5O/XulbeuWRZeXO+57IkuWLE150yYZusfANbb97Z//mTZrWYrx+CMPzKABfZJs/NgPOWDP/PKKGzO/qjpfO/+3OezDe+XD++6WwQO2y7adO6z7IN8l+++9c14dPznDR7y22jbr+8y29DEDAAAAAACbh9BuExu656B85fRP5Ld/+mcq5y/INTfcnWtuuDtJ0rljuwzo1yu7D+6Xwz78wXTdjKFM1YKFufU/j+WSP1yfJPn8qUemY/s2a+xz38PPrvW6H9x9YF0AtbFjb9emVX7x/TNz1vm/y4Lqhbn93idy+71PJFm+rOeAvj0zZGDffHS/PeruuTl16dQ+STJ7bkVqamrq9gZc2fo+sy19zAAAAAAAwOYhtHsXfOHUo7LvnoNz7U335JGnXkpFZVWSZPrMOZk+c04eemJ4fnnlTTnsoL1y/tmfflf2tfvtn/+ZP193V5Jk0eIlmT23MrW1tWnapHG++r/H5oxPHbnWa3zmhEPXGuzt2K/XKl9v7Nj32XNwbr/2wlxz439y38PP5I1pM5MklfMXZNgLozLshVG56u93ZGD/3rnou59Pn57brtL/a//3uyxatLjBWk878bDsucuAtY57dZo3a5okWbasNvOrFtbtDbiyDXlmGztmAAAAAABg6ye0e5cMGtAnF3/3C6mtrc2kKTMyZtzkjBwzMS+NGp9hw0dm8ZKlufP+JzN1+qz85dJvp6SkZJPef15FVeZVVNU7ftlPv5YP7rbTOl3j44fuW7eP2/rY2LF37tQ+5515Ys4788TMnD0vY8ZOysjXXs/Lo8Zn2PBRmTOvMiPGTMhJZ16QO//y07Rv17qu7yNPvZjqhYsarOuwD++13mNZ2ex5lUmSstLStGhe3mCbDX1mGzNmAAAAAABg6ye0e5eVlJSkZ7fO6dmtcw7+0O5JkorKqvzfJVfnPw8Ny/Mvv5rHn3k5++w5eJPe9+tfOCGfPGL/JEllVXVO+9pPM3nKm/nBz6/J3y/7btq1abVJ79eQTTH2ju3bpGP7Nhm656AkydKlNbnmhrvziytuXL4E54335GtnfLKu/Te+dFKWLF3a4LUGD9huo8bz6rjJSZI+PbdNo0b1l8bcVNZ3zAAAAAAAwNavtOgC3o9at2qRH33j9JSVLn/8Y94Kgzal8qaN06pl87Rq2TxdO3fIZRd+LS1bNMvrb0zPV77zmyxe0nCw9W7b2LE3alSW00/+WN3+bq++o/8njzwgJx9zcIO/evfossF1L1y0OA88PjxJcsDQXTb4OhtibWMGAAAAAAC2fkK7grRoXp5WLZsnSWpqlr3r9+vbu2t+8f0zU1ZamudffjXf+cmVqa2tfdfv25BNMfZtt+mQJFm6GZ5dkvz6jzenorIq5U2b5KSPf3iz3POdNveYAQAAAACAzUdot4l98Zu/yPjXp6613YjR4zO3Yn6SZLfB/d7tspIk++w5ON/48slJkjv/+1Qu/dMtm/T6Gzv2C3/z1zz05Atr7b+gemGef/nV5f2HvLvPrmbZsvzqypty7Y33JEnO+cIJ6bJN+012/S1xzAAAAAAAwOZnT7tN7MVXxuXjn/1uDj9or3zyyAOy8059U1b29v5nNTU1uf/R5/KTS/+WJNlj5x2y2+D+m62+Uz5xcMZNnJLr/v3fXP6X29Kj6zY55rAPNdi2asHCVM5fsMbrNStvWre/28aOfcbMuTnzm7/MnrsMyKeO/UiG7jEwzZuVr3K/F14Zm59ddl1mzp6XNq1b5ISjDtyg57A6S5YsTVX1wrwx9c0MGz46N97+YCZMmpZk+dKbJx2z5ll26/vMtoQxAwAAAAAAxRPabWKlpSVZurQmt/7n8dz6n8fTskWz9Om5bdq2bpm5FfMz6Y0ZdbPM+m/XPT//vzM3e43f/n+nZOLk6Xni2RH5/s+vTtfOHbPXbjvWa3fKl3601mv97Pwv5vCD9kqy8WMvLS1JkgwbPirDho9Ko0Zl6durazq2b5uFixZlyvRZmTp9VpLle+P99sdfTbs2rTbqWSTJvQ8/k4EHfGa151u1aJavnH5sTvnEwWu91oY8s2TzjxkAAAAAANiyCO02sZv/eEH+fc+juf/R5zJi9PjMr6rOSyPHrdKma+cOOfHog3LqJw9Jk8ab/yMoKyvLL3/wpZx05gUZ//rUfPX8S/P333032/XqulHX3dix//ib/5t9PzAk9zz4dJ55YXQWLlqc0WMnZfTYSXVtWrVoliM+OjRfOPWodGzfZqPqbUjjxo1S3rRJOnVom+16bpuhew7K4QftVbcH36a2JYwZAAAAAAAoXkltbW1t0UW8Vy1ctDgTJ0/P7LkVWbx4SZo3K0/XLh3TrUvHokt7123s2GuWLcukN2Zkxsw5qV64KE2aNE7H9m3St1e3utlp7zVFjvm8Ydfm1+NvelfvAQAAbHqf7n5oLuh7ZDrPvqHoUngPmrLNmel681+KLgO2WPOG7Jm5ffpl3vzqokvhLc3Km6RfN//TO7D1MtPuXVTetEl26Nuj6DIKsbFjLystTe8eXdK7R5dNWNWW7f04ZgAAAAAAYLnSogsAAAAAAACA9zuhHQAAAAAAABRMaAcAAAAAAAAFE9oBAAAAAABAwYR2AAAAAAAAUDChHQAAAAAAABRMaAcAAAAAAAAFE9oBAAAAAABAwYR2AAAAAAAAUDChHQAAAAAAABRMaAcAAAAAAAAFE9oBAAAAAABAwYR2AAAAAAAAUDChHQAAAAAAABRMaAcAAAAAAAAFE9oBAAAAAABAwYR2AAAAAAAAUDChHQAAAAAAABRMaAcAAAAAAAAFE9oBAAAAAABAwYR2AAAAAAAAUDChHQAAAAAAABRMaAcAAAAAAAAFE9oBAAAAAABAwYR2AAAAAAAAUDChHQAAAAAAABRMaAcAAAAAAAAFE9oBAAAAAABAwYR2AAAAAAAAUDChHQAAAAAAABRMaAcAAAAAAAAFE9oBAAAAAABAwYR2AAAAAAAAUDChHQAAAAAAABRMaAcAAAAAAAAFE9oBAAAAAABAwYR2AAAAAAAAUDChHQAAAAAAABRMaAcAAAAAAAAFE9oBAAAAAABAwRoVXQCwZRjQsmfRJQAAABtoSVmHokvgPWpJ67ZFlwBbvLJS8yIA2DRKamtra4suAijW2JlzkiRLl/lxAFujRqUlSbzDsDXzHsPWr6j3uCylaV6alKZks96X94maJO+j762yt97jGn8es45qS0qzrLQ076f3ZGvQrWOzoksA2GBCO6DOlFnVRZcAbICuHZb/hcQ7DFsv7zFs/bzHsPXzHsN7w4p3GWBrZO42AAAAAAAAFExoBwAAAAAAAAUT2gEAAAAAAEDBhHYAAAAAAABQMKEdAAAAAAAAFExoBwAAAAAAAAUT2gEAAAAAAEDBhHYAAAAAAABQMKEdAAAAAAAAFExoBwAAAAAAAAUT2gEAAAAAAEDBhHYAAAAAAABQMKEdAAAAAAAAFExoBwAAAAAAAAUT2gEAAAAAAEDBhHYAAAAAAABQMKEdAAAAAAAAFExoBwAAAAAAAAUT2gEAAAAAAEDBhHYAAAAAAABQMKEdAAAAAAAAFExoBwAAAAAAAAUT2gEAAAAAAEDBGhVdAFC8xUuWFV0CsBG8w7D18x7D1s97DFu/Lf89rk1SUnQRAMC7SGgH5PFpryVJltXWFlwJsCFKFyz/i7t3GLZe3mPY+nmP4d3RpqxFejTKZsmqKuYuv0mjLfU9LilL7aImKVmyuOhKtghLW7XN0totPWgFgPUjtANy57Qn8+vxNxVdBgAAAKziogGfz/907JX28+4pupTCLWraM3ObHJRt7r2t6FK2CFM+cWrmVS7IlpqxUoxm5U2KLgFgo9jTDgAAAAAAAAomtAMAAAAAAICCCe0AAAAAAACgYEI7AAAAAAAAKJjQDgAAAAAAAAomtAMAAAAAAICCCe0AAAAAAACgYEI7AAAAAAAAKJjQDgAAAAAAAAomtAMAAAAAAICCCe0AAAAAAACgYEI7AAAAAAAAKJjQDgAAAAAAAAomtAMAAAAAAICCCe0AAAAAAACgYEI7AAAAAAAAKJjQDgAAAAAAAAomtAMAAAAAAICCCe0AAAAAAACgYEI7AAAAAAAAKJjQDgAAAAAAAAomtAMAAAAAAICCCe0AAAAAAACgYEI7AAAAAAAAKJjQDgAAAAAAAAomtAMAAAAAAICCCe0AAAAAAACgYEI7AAAAAAAAKJjQDgAAAAAAAAomtAMAAAAAAICCCe0AAAAAAACgYEI7AAAAAAAAKJjQDgAAAAAAAAomtAMAAAAAAICCCe0AAAAAAACgYEI7AAAAAAAAKJjQDgAAAAAAAAomtAMAAAAAAICCCe0AAAAAAACgYEI7AAAAAAAAKJjQDgAAAAAAAArWqOgCeNuYcZPz2LCXGjy368B+2WXQ9vWOL1q8JPc/8myGvTA6U6bNzKLFS9KieXm6dGqfftt1z547D0jf3l3r9ZtXUZVb7np4lWOlJSVp2rRJOndsl0ED+qRTh7ZrrXnp0po89OQLeezplzJpyoxUVlWndcsW6dOzS/b/4M7Ze4+BKSkpWW3/6/7931QvXFT3dUlK0qhRWZo3K0+Prp0yZKe+adqk8VrrWFeb+nk1adw4rVu1SLdtO2bA9j1T3rTJWmt46InhGff61CRJvz7ds+8HBq+x/YjR4/P08FFJkhbNynP8UQeu63ABAAAAAICthNBuC/LiyLG55PfXN3juzM98vF5od/+jz+WHv7gmM2fPW+N1e/fokou/94UM7N+77tjsuRWrvVeSlJSUZN8PDM63vnJKenXv3GCbR59+KT/61V8yacqMeuceG/ZS/nrzvdmhb498/5zPZMiOfRu8xmVX/yuz5lSsto4Wzcvz2ZMOzxmnHJnS0tWHf+vi3XxeSVLetEn2/cDgnH7y4asdb5Lcdu8Tueu/TyVJ2rZumftu+HmalTddbfsLfvWXvDRyXJKkc8d2QjsAAAAAAHgPEtptQfbefWB++YMvZV5FVb7/86uTJGd97rj06t45fXt1W6Xtnf99Kudd8IfU1tama+cOOe6IA9K3V9e0bNksc+ZWZuRrr+fxYS9n5KsTM2HStLwx9c1VQqiVffzQfdO2TcvU1iZVC6rzypgJeWXMxDzy1It5ceTYXPubb2f73qve/9/3PJbvXXRVapYtS9vWLXP8UQdmj537p3XLFpk9rzJPPvtKbrr9oYweOymf+epP86sffiX7fXDIasf+wd12yoB+PZMsnw03c9a8PPnsiFRWVefSq27JG1PfzAXnnb7Bz/bdeF7LltVm4aLFmTFzTka99nqmzZid+x55Nvc/+lzO/PTR+eKnj17jLMMkmVsxPzfc+kA+ffyhDZ4fNnxUXWAH/7+9+46Oqnj/OP7ZTSWdkBA6hBLpvUkRAaWKgIh0BbGCgKh8Ldj5qSgiIIJKF0UsNJWqgCLSRHoLJdQQCElITzZ1f38kWbKkkNA2gffrHM7Z3Jm5d+7VJyc7z50ZAAAAAAAAAMCdi6RdEVK+jI/Kl/FRaNhly7HmjWqpQW3rWVvJKan6v6kLZTab1b51I015d6QcHKz/U3bt0EIvPdNXBwNP6dOv8p8hNrRfF9Xwr2B1bPeBYxo1/nNFxcTp3U8X6LsvxlvKTp4J0fuffaO09HQ1rFtdMz8cK08PV6v27Vo20BN9O+vpcZ/q5JkQvfrB11oxb4L8fL1z7UPHto01sPcDVsdMScl6e9I8rVq/XctWb9bA3g+oVo3K+d5Lbm7H85KkA0dOatqcpdq265BmLFihqJg4vTF6cJ7nadagpnbuC9SCn9ZqQO8H5OiQMxznLl6dUbdhTe3MXCITAAAAAAAAAADceYy27gAKb9/hE4qOiZckjR7eJ0cCKru6Nf01f8qrat0s/33Trta4XoBGDO0lSdpz8LhVInHa3KUyJSXLx9tTX36UM2GXTePXNQAAIABJREFUpUxpb305caxKODspJjZes79fVag+ODs56q0XH5ednZ0k6d89RwrVPsvteF6SVK9WVc2a9Ipl1tyiZev119a9edZvXL+GGtWtoUvhUVqxZnOO8mMng7V5x35Vr1JeHVo3KnR/AAAAAAAAAABA8UHSrhiKjzdZPtvbXfs/ocFgkKuLc6Gv07heDcvnC6EZSbvwy9H68589kqThA7rJwz33hF2WCmV91b9nB0nSijX/KDkltVB9cHdzsSQFExKTCtU2y+16XpJkNBr0ynP91KhuxrObPm9ZvvWfHvyQJGnuD6uVlp5uVTYvc5bdU4O6S9dYZhMAAAAAAAAAABRvJO2KoUrlS1s+//TbX7fsOtGx8ZbPDo4Zs9N27g20JJe6tG9RoPN07ZhRL9GUVOj92ZJTUhUblyBJKl/Wt1Bts9yu55XFaDToicc6S5ICT5zV0aBzedZt17KBAqpVVHBImNZs2GE5fiE0Qqs37lCFsr7q1qFgzxkAAAAAAAAAABRfJO2KoaqVy6lh3eqSpG+X/K6hYyZqycpNCjodkmO21o3IWo7S2clR1SqXk5SRhJIk31JeKu3jVaDz3FO1ouztM5a4PHL8TKH6sGr9NqWkpMrZyVGtmtYpVNsst+t5ZXdfywYyZM6O23foRL51nxrQXZI05/tVMpvNkqRvfl6ntLQ0Devf1bI8KAAAAAAAAAAAuHPlvbkXirRP3nxOT78ySWeCQ7VzX6B27guUJDk62KuGfwXVremv+1o2UNsW9a4r6bNp217N+2GNJKl317ZydnKUJEVFx0mSSpX0KPC57O3t5OnuqojIGEXFxBWoTXyCSb/+vkWffvWjJOnZIT3k4+1ZmFuwcquf19WcHB3k5eGmyOhYXYqIyrdulw7N9fm8pTp+Klgbt+xR0/r3aMnKTSpV0kO9u7a94b4AAAAAAAAAAICij6RdMVW+jI+WzZ2gH1Zs1Mr12xR44qzMZrOSU1J16NhpHTp2Wj/++qd8S3npvVeGqt29DfM818+//SXvkh5KS0tXVHSc9h8J0sHAU5Kk2gGVNfaZvpa6SckpkiRHB4dC9dfRMaN+UlJyruVfzF+u+ZlJwqTkFF2OipXZbJaTo4PGPNVHzwzukaPN2Hdm5Hm+Yf27qlnDmpafb+bzKiiXEk6KjI5VTLZlRnNjZzRqWL+umjBloWYvWqnjJ4OVaErS848/LCfHwj1nAAAAAAAAAABQPJG0K8acnRw1tF8XDe3XRfEJJh07eU5Hg87pYOAp7dp/TGfPhyosIkoj35imWZ+8rFbN6uZ6nkXL1uc45uBgr0e6ttW4Ef1VwtnJctzdzUWSFJ+YWKi+xsVn1Pdwd821PDomXtExOZNbMyeOVcvGtXNts3nHfiWaknIty9pHL7ub9bwK6nJUrKS87zm73l3bauaCFTpw5KSOBZ2Tu5uL+vXscEPXBwAAAAAAAAAAxQdJuzuEq4uzGtWtoUZ1a0g9M45t3rFfL783U/EJJn0xf3meSaj+PTvIu6SH7IxGubo4q3xZHzWpd488PXImm8r4lpQknb8QrrS0tAItJRkZHavYuISM9qW9c63z8nP91PehdpKk2PhEDRs7UcEhYXpv8jf6fuabKunpnqPNqyMHKCU1Ndfz1atZNd8+3cjzKojgC2GWhGJA1QrXrO/k6KDH+3bWlFk/Kyk5RUP7dZGba4nrvj4AAAAAAAAAACheSNrdwdq2qK9+D7fXvB/W6Pip83nW69+rg2r4XzuxJEn161STJJmSkrX/yMmMpNc17NwbaPncpP49udZxdnKwzOJzd3PRzA/HauDICTp7PlSjxn+ueVNelaOD9f+ufXvcX6A+F1RBn1dBrP3zX0kZybh7mxYs+de/ZwfNWbRSKWlpGtyn0w1dHwAAAAAAAAAAFC9GW3cAt1ZZv1KSpLS0NJnN5hs+X8Pa1VWqpIckafGKDQVqs3jFRklSrRqVVS6zP9dSrUo5ffbuCNkZjdpz8LjGfzT7pvT/Wm7G87p46bJmL1opSerTvZ3cCzhjzs21hJbMfl/L506Qt1fOmYUAAAAAAAAAAODORdKuGFqyapPmLl6t9PRrJ5X+2XFAktSobg0ZDIYbvraDg70e79tZkrRq/Xat/3tXvvUXr9igf/cckSQN69e1UNdq3ayeXn1hoCRp9cYdmj5v2XX0+PY+r+OngvXEmI8UF5+oCmV99eLTjxaqfYVyvqpU3q/Q1wUAAAAAAAAAAMUbSbtiKDk5RZ99/ZMeevw1LV6xQeGXo3PUOX8xXG99Mlebtu+TJD0zuMdNu/7Qx7qoXq2MPeNefn+m5v2wRskp1nvLJZqS9Pncpfpg2neSpHYtG6j7Ay0Lfa1Bjzyg/j07SJK+/vY3LV+zudDnuFXPy2w2y2RKVnBImDZu2a03PpqtPk+9o+ALYSpV0kNT3ntBri7Ohe4vAAAAAAAAAAC4+7CnXRHy55Y9mvXdSqWkXkmAvf3JPLmUcFafh+7To93bSZJlBtiZ4FD939Rv9X9Tv1XlCn4qU9pbRoNRF8Mu60zwRaWnm2VnNOp/IweoReNaN62f9vZ2mvnRWI18far2HwnS5K9+1FcLf1H9WtXk6eGqy1Gx2n84SKakZElSq2Z1Nent56/7em+MHqQzwaHatuuQ3p28QOX8fAp1Pzf7efUa9ma+12vWoKYmjn9GZUp7F7iPAAAAAAAAAADg7kbSrgiJiIrR/iNBVsdOnD4vSWrTop7lWL+HO6hCWV+tXL9NW/49qMjoWJ0JDtWZ4FBLHXt7O91/bwM998TDqhNQ5ab31dvLXQs/f10//LJR3y37Q8EhYdq265BVHf+KZTS0f1f17tpWdsbrn9RpZ2enKe+N1IARE3Tq7AWNeXu6vp/xpqpWLleg9rfqeRmNBjk5OsrdrYQqlC2tujX91bldMzWsW/16bhMAAAAAAAAAANzFDGaz+dobfaFICw27rPMXwxUXb5LRaJCXh5uq+5eXs5PjbevD2fOhOhdySbFxifJwc1HlimVUvozPbbt+YRSF51XU/G/nQk07tcTW3QAAAAAAwMrHNZ/V4z6V5R29ztZdsbkkp0qKcuwgv9VLbd2VIiHkkSGKiIkTI5vIroSzo2qU97R1NwDgujHT7g7g5+stP1/bLsVYqbyfKpX3s2kfCqooPC8AAAAAAAAAAIDsrn/NQgAAAAAAAAAAAAA3BUk7AAAAAAAAAAAAwMZI2gEAAAAAAAAAAAA2RtIOAAAAAAAAAAAAsDGSdgAAAAAAAAAAAICNkbQDAAAAAAAAAAAAbIykHQAAAAAAAAAAAGBjJO0AAAAAAAAAAAAAGyNpBwAAAAAAAAAAANgYSTsAAAAAAAAAAADAxkjaAQAAAAAAAAAAADZG0g4AAAAAAAAAAACwMZJ2AAAAAAAAAAAAgI2RtAMAAAAAAAAAAABsjKQdAAAAAAAAAAAAYGMk7QAAAAAAAAAAAAAbI2kHAAAAAAAAAAAA2BhJOwAAAAAAAAAAAMDGSNoBAAAAAAAAAAAANkbSDgAAAAAAAAAAALAxknYAAAAAAAAAAACAjZG0AwAAAAAAAAAAAGyMpB0AAAAAAAAAAABgYyTtAAAAAAAAAAAAABsjaQcAAAAAAAAAAADYGEk7AAAAAAAAAAAAwMZI2gEAAAAAAAAAAAA2RtIOAAAAAAAAAAAAsDGSdgAAAAAAAAAAAICNkbQDAAAAAAAAAAAAbIykHQAAAAAAAAAAAGBjJO0AAAAAAAAAAAAAGyNpBwAAAAAAAAAAANgYSTsAAAAAAAAAAADAxkjaAQAAAAAAAAAAADZG0g4AAAAAAAAAAACwMZJ2AAAAAAAAAAAAgI2RtAMAAAAAAAAAAABsjKQdAAAAAAAAAAAAYGMk7QAAAAAAAAAAAAAbs7d1BwAUDSMr97Z1FwAAAAAAsOJh7ypJinVpbOOe2F660VmSFHtPXRv3pOhwdnSwdRcAALipDGaz2WzrTgCwreiEFElSXGKKjXsC4Hq4lcj4okoMA8UXcQwUf8QxcIuYJYNBMshwyy/l5pLxbntcQuotv9b1MUu34TkUF2aeBfJQrpSzrbsAANeNmXYA5OmSMcAQn1hUv5gAyA8xDBR/xDFQ/BHHwC2SmZe5HW+cu2cm32OLbNKOJJU15iEAAO487GkHAAAAAAAAAAAA2BhJOwAAAAAAAAAAAMDGSNoBAAAAAAAAAAAANkbSDgAAAAAAAAAAALAxknYAAAAAAAAAAACAjZG0AwAAAAAAAAAAAGyMpB0AAAAAAAAAAABgYyTtAAAAAAAAAAAAABsjaQcAAAAAAAAAAADYGEk7AAAAAAAAAAAAwMZI2gEAAAAAAAAAAAA2ZjCbzWZbdwIAAAAAAAAAAAC4mzHTDgAAAAAAAAAAALAxknYAAAAAAAAAAACAjZG0AwAAAAAAAAAAAGyMpB0AAAAAAAAAAABgYyTtAAAAAAAAAAAAABsjaQcAAAAAAAAAAADYGEk7AAAAAAAAAAAAwMbsbd0BADduz8HjWrVhu06fvajklBSVKe2t++9tqM7tm8vOmHdu/sCRk1qyapPOnAuVo6ODGteroYG9O8rD3TXPNsvXbFZ0TLz69+wgZ2fHW3E7wB0lPd2s3QeOaceeIzp64qzCL0dLkvx8vdW8YU091KmV3F1L5HuO2PhE/bpui/7dc0ThkdFyd3VRrRqV1btrG1Uq75dnO1NSsn767S9t33VY8QmJKudXSj06tVarpnXybHPq3EX9tXWPatWorJaNa1/fTQN3iURTkn769U+lm83qcn9zlfUrlWdd4hgoWk6dvaD1m3fp2MlgRURGKz3drPJlfDThf8NlNBpybUMcA0XDjt1HtHrjdh0/GayExCR5uLuoZvVK6vFgK9WrVTXftsQxcPvt2n9MW3YeUMe2TVQnoEqB2lzvOJckBYeEafnazTp87LRi4hJUystDTRvWVK/OrfMd7woNj9SiZet1+OhppaWnq3qV8hr4yAPyr1gmzzbbdh1S4Imzat+qkarkUw8ACsNgNpvNtu4EgOv34effadGy9bmWNahdTV99/FKuf5Ss3rBdr37wtSSpUnk/RcfEKzI6VhXK+WrxzLfl7eWeo82+w0EaOGKC2rVsoJkTx97cGwHuUL2Gvanjp4LzLPfx9tTU919Qo7o1ci0PPHFWI16fqtCwyznKHB3s9c7LQ9WrS5scZaakZD0+6kMdOnZa7m4u8i3lpTPBoUpLS9O45/traL8uuV7vmXGTtWXnAf309Tuqc49/Ae8SuPukp5s16s1p+mvrXknSnMnjdG+T3AfuiGOg6AgNu6yPpn+vP/7+L9fy/Rvmys7OLsdx4hiwPVNSsl77YJYlfu3t7eTh7qrIqFhlDW3179lB48cMyTX5ThwDt5/ZbNbzr03R5h379d64YXq0e7trtrnecS5J+u2PrXr30wUyJSXnKCvt46UvPnwx18Rh0OkQPT76Q0XFxMnPp6QcHOwVfCFMzk6Omv3pK2pcLyBHm4REkzoPGCeDwaB1iyephLPTNe8NAAqCmXZAMfbNT2u1aNl6GY0GDevXVZ3vbyYnJ0ftOXBcU2cv0b7DQXrtg1k5EmwmU7Len7JQBhk0Z/I4NW9US+npZr3x0Wz99sdWzVywQm++OCTH9abNWSKDwaAxTz96u24RKPbCIqLk7OSoDm0aq2Xj2qpYzleJpiTtOxyk75b+ofDL0Xr+tSla9e1ElSrpYdU2PsGkEa9NUWh4pAKqVtDIob1VrUo5RUTG6Nulv2v937v09qT58q9UVg1qV7Nqu/DndTp07LTatqivz/9vtBwd7HXk+BkNHvWBpsz+Wd06tlRpHy+rNllvQD7QtgkDC8A1TPxikSVhlx/iGCg6zp4P1dAXP1Zo2GWVcHZSr65t1KxBTXl5uCkiKka7DxyTwZDz7X3iGCga3vpknv74+z+V9vHS22OfULt7G8poNCgh0aTFyzdo2pyl+uGXjfIu6aGRQ3tZtSWOgdsn0ZSkS+FROn8hTItXbNTmHfsL3PZ6x7mkjNWkxk+cq7S0NHVo3ViP9+0kH29PnTx7QTPmL9fRoHN64Y2p+u2bj+R21Wo3E79YpKiYOL0wrLeef6KnJGnJyk1659P5enfyAv264MNc+rpOl6Ni9fqoQSTsANxU7GkHFFOJpiR9/d1vkqQXn3pULz37mOrc46/qVcqrb4/79eXHY2U0GrRp+z7tOXjcqu2OPYcVG5eghnWrq3mjWpIko9GgZ4f0kCT9vmlnjutt23VIO3YfUZf2zXVPtYq3+O6AO8fgPg9q489TNOmt59Sn+31q3qiW2t3bUKOH99GcyeNkZ2en2LgE/bzyrxxtF6/YoNDwSPl4e2rh52/ogfuayL9SWTVtcI+mvT9K7e5tqLS0NE2fuyxH2/V/75IkDevXVY4OGe/o1KpRWe1bNVJqapr+3LonR5ups5fIaDRo9PA+N/chAHeYRcvWa9Gy9arhXyHPZfSyEMdA0ZCamqYXxk9TaNhl1apRWau+m6g3xwxR5/ubqUXjWurWoYXezGN2DnEM2F5wSJhWb9guSfrojWfUvnUjS7y6lHDW8IHd9dSg7pKkRcv+UHq69aJSxDFw+3zz8zp1G/yqnh73qTZu2V3gdjcyziVJ0+ctV1paWmaCfZSaNawp/0pl1bFNY33z+Rsq7eOlS+FROWbxxcUnatuuw3JwsNeTA7pZjj/6UDv5eHsq6HSITp29YNUmOiZeC35aq7J+pdTv4faFeTwAcE0k7YBiaut/hxQdEy9nZ0cNeuTBHOX1a1VTi0YZ6+av3rDDquzU2YuSpMoVrNfsr5T5c0RkjOLiE63Kps1ZKjs7O70wrPdNuwfgbvD8Ez3l6ZH70h31a1VTrRqVJEmBx8/mKM8amOjfs4Pc3VxylD+dOTCxY89hXY6KtSo7dS73OK+cuVfH6czyLH9v36/dB46px4OtVK1KuWveF3C32rRtrz7+4nv5eHvqy4ljZVD+STviGCgavl36u4JOh8i7pIe++vgl+fmULHBb4hiwvWOnzlk+Xz0TLkvWMtXRMfGKiYu3KiOOgdunSf0APTukh+VffvvIZXcj41zRMfHavuuQJOmpgd1lMFj/je7uWkL9e3aUJK3ZaN32zPlQmc1m+fmWlJOjg1VZpTzifM73KxUXn6iRQ3vJwYGF7ADcXCTtgGLqv72BkqR6NavK2dkx1zrNG9WUlPHFIztTcsba3o4O1n+M2BmNsrfP2MMj+/rf6zfv0oEjJ9W7Sxs21gVuMnfXjEGDq7eYjY1L0NGgjMGJpg3vybVt/drV5OTooPR0s3Zm/k7IkpSUFefWXyCcnDLiPnuMm81mTZuzRPb2dhpx1VJCAK4IPHFWr7z/lRwc7TXzoxdV1q9UvvWJY6BoMJvN+uGXjZKkpwc9JB9vzwK3JY6BosHT3c3y+cCRk7nWiY7NSNS5lHCWZ7YkAXEM3F7NGtTU6OF9LP88C5i0u5Fxrl0HjiotPV329nZqWKd6rm1bZK40dfxUsFVy/kqMO+Ro45wZ54nZ4jwsIkrfL98g/4pl9HDn1gW6NwAoDJJ2QDFleduvvF+edSpXyEiwnT1/SWnp6Zbjbi4Za3cnJJqs6iclpyg1Nc2qTnq6WdPnLpOjg71lXW8AN0d6ulknTp+XJPlXKmtVlv1Nvkp5xLmd0agK5XwlSafOWS/X4eqaFedJVsfjEzLi3j3bGv5r//xXgSfOqu9D96tCWd/ruRXgjhcaHqkRr02RKSlJk956rkD70xDHQNFwNOicgkPCZDAY1L1jS0lSSkqqQsMuKzTssuXv39wQx0DRUL9WVZUp7S1JevWDr3NdGu+3P7ZKknp3bWM1y4Y4BoqHGxnnylpRqpyfj+Vl9KtVyjZb9nS2OM9rjEzKPc6//OYXmZKSNWp4H9kZGVoHcPPxmwUopkLDIyVJnp5uedYpmVmWkpKqqOg4y/GAqhUkyfK2YZZjmT9XKu9neatp5fptOnH6vPr37GD5kgTg5lj3178Ki4iSwWBQjwdbWZVlxbgkeXnkF+fukqRLYZFWxy1xftI6zrPiPqBqxt6UaenpmjF/uZydHC37WgKwlpBo0ojXpig0PFLjnu+vDq0bF6gdcQwUDQePnpIklfMrpf2HgzT8pU/UrNtz6tD3JXXo+5KadHlGz736mQ4fO5OjLXEMFA0ODvaa9v4oeXq46lJ4lIaM+lAjXpuiTdv2KjU1TbO++03r/96l2gGVNeapR63aEsdA8XAj41yXMtvmF+NeHm6WhH5otjivXLGMHBzsdSk8UtExV5bWTU1N08kzIZKu/B4IvhCmpav/Vq0aldWpXdNC3R8AFBSL7gLFVGLmW35Xr7ednWO2soREk0qV9JCUsb54Wb9SOhp0Tgt+XKu+Pe5XZHSsPp6xWJLUs0vG9P7U1DTNWLBcLiWc9fTgjC8dsXEJmjZnqdZv3qWIyGh5ebrr/nsbaOzTfeWdeX4A13Y5KlaTZv4gSXrwvqY59rtINF15k7cgcX71m789Hmyl//Yd1fS5y1SlQhmVL+OjdX/9qy07D8jD3VX3t2ooSVqx5h+dOndRwwd0k28pL0nSpu379PXCX3Xk+BmZJQX4V9CTA7qpS/vmN3zfQHGTlp6ul9+bqcATZzWgV0c93rdzgdsSx0DRcDY4VJIUEhqhF8ZPk8FgkG8pT3l7eSgyOk6hYZe1ecd+bd99WJ+8+aw6tWtmaUscA0VH3Zr++mX+Bxo86gMFh4Rp0/Z92rR9n5ydHWUyJeuRbm01fvSQHMvqEcdA8XAj41xZcZ5fW6PRIHt7O6WkpFrFuZOjgzq1a6pV67drwtSFen3UINnb2Wn6/GWKjU9Uy8a15eeb8RL7F/OWKzU1TWOe6iODwSCz2awFP63VkpWbdO78JTk5OapJ/QCNHt5HtQMqX//DAHBXI2kHFFOpaRnL+OQ3FT97WfZlf+zs7PTJm89qxOtTNenLHzTpyx8sZW2a19OT/btJkpas2qTgkDA9N+RheXu5KzU1TcNfnqRDR0/pnmoV1b51Ix0KPKVlqzdr76Eg/TzrXTk75b7uOIArTKZkjRo/TaHhkSrnV0rvvTI0R52smDUaDTnKssuK86zfCVke6Xaftu06pLV//quHh75hOV7C2Ukfj39Wbq4llJySqi8X/iJ31xIaPqC7JGn937v04jtfyNHBXg/c11RGo0EbNu/Wy+/NVFJSsnp2aXMjtw4UOx9NX6S/t+9X2xb19froQYVqSxwDRUNsfKIkydPdVc8+/rB6dW4tj2z76wSdDtEr78/UsZPBevPjuWpUt4ZlwJ04BoqO8MvRGvvODF24GKGRQ3vJ1cVZv/2xTUeOZ8ySXb1xh8qX8dWzQ3pYLY9JHAPFw42Mc1ni3O7acZ6inHH+vxEDdPTEOa3ZuENrNu6wHK9QzlfvjRsmSTpx+rxWbdimxvUC1LZFfUnSxzMW69slv6u0j5d6dW2j8Ihobdq+Tzv3Beqnr97N8XIuABQESTugmMpKjl39h0Z22cuuTqY1rhegtd9/ovV/79LZ86FydHRQ43oBatW0jqSMzbS//vZXeXq4amj/rpKkdX/t1KGjp9SwTnV9M+112dvbKS09Xc+88qm27z6sX9dt0WMPt7/ZtwrcUZJTUjX6renae+iEPD1c9eXHL1kNHGbJitn0dLPMZrPVwEN2WV9Oro5xo9Ggye+M0MDeD2jn3kDFJySqnJ+PHmzXVD7enpKkH3/ZqAuhERr15CPy9Mjow2ezfpLZbNaU919Qu5YNJEk79wVq6JiJmjZnqXp0an3NAQ/gTrFl5wEtXr5BAdUqavI7Iwq9ZwVxDBQNyckpkqTaAZX1+KOdcpRXq1JOMz4aq66D/qf4BJPWbNxhmVVLHANFgykpWcNf+kQnTp/X66MGaXCfByVJTzzWRYePndH0eUv19/b9mj5vmYIvhOn/Xh1uaUscA8XDjYxzZX1OS0vP0Sa7lDzi3MfbU0vnvK+NW3Yr8MRZpaWlK6BqRT1wXxPL7L3P5yxVerpZLz6dsQTvxUuXtWjZH3J1cdZPX79reeFn5oIVmrFghb5a+Ismvf18ge4dALIjaQcUU+6uLpKsl/q4WmxcouWzm5tLjnIvDzc9+lC7XNt+v3yDLoVH6aVn+lo23N3y30FJUqd2TS0b+9oZjerasYW27z6sbbsOk7QD8pFoStLot6Zr686D8vZy16xJr6h6lfK51nXPFrOJpiS5lHDOtV5sfEJG/WwbY2fXpH6AmtQPyLUvsxatlLeXux7vmzGAef5iuM4Eh8rNtYTuy3xzUJKaNagpP5+SCg2P1MmzIXn2GbjTRMdmxJfJlKynXp6Ua5209IyBgQ8/XyQ3lxIqX9ZHn2Z+OSeOgaLBLTO2klNS86xTzq+U6tb0196DJxSYbd9n4hgoGn767S+dOH1elSv4aWDvB6zKagdU1pcTX9KMBSs0c8EKLV+zWY90a6vG9TJijjgGiocbGefK+pyYmHdbkylZaZlJP3e3nHFub2+nTu2aWS2TneVg4Clt+Ge32jSvZ/k9sH33YaWnm9WsYU1Lwk6SHnrwXs1YsELbdh3Osy8AkJ/CvS4MoMioUM5XUsYSIXm5FHFlI968vnjkJi4+UXO/XyUfb08NeuRBy/GQi+GSZFnLO0vZ0hk/X7gUUeBrAHeb6Jh4DX/pE23deVBl/Upp4fTxqlUj7zXuK5T1tXzOL87DwqMkSRXLly5Ufxb+/LsuR8bo6UEPWQYuQkIzYry0T8kcbyCXyYrzUOIcd5+z50O1/0hQrv+ynDwTov1HghSYuUSXRBwDRUXWTJjI6Nh863m6ZcyOiU+4MiBIHANFw7bMF0ib1A/Ic3bas4N7WJL0O/cetRwnjoHi4UbGuSqWLXhbSapYrnBxPnX2EhkMBo156lHLsawxsjJXjZGVKV1KUsbfHaak5EJdBwAkZtoBxdY91Sovcb7fAAAJZUlEQVRq9YbtlvX7c3Ms8y3hGlUrFOrcC35aq6iYOL05xnoT76xlBuzt7Kzq22X+nH09cQBXhIRG6LlXJyvodMbbtLM+fUV+PiXzbVOxnK9cSjgrIdGkI8fPqlJ5vxx1omLiFBqe8cWjMHEeExuv+T+ukZ+vt/r36mg5fiXGc77TQ5zjbtSxTWNtWjYt3zodHh2rtPR0ffbuSDWpHyC7bPFDHANFQ/1a1SRJp89eVFx8omVQ/2ohmQPoPiU9LceIY6BoiI6JlyTZ2+c9jGVvb6dSJT0UF59olXwnjoHi4UbGuQKqVZQkhYZH6nJkjLxLeuTSNliS5OTokOvvgbzs3BuobbsOqVO7ZqodcOXF26w4t7sqzrP/nJqaJjkV+FIAIImZdkCx1aZ5PUlS0OkQHTsZnKM8LS1NG7fskSTLBrkFERkdq4U/r1P5Mj45ls4s6ekmSYqKjbM6HhWd8XNJL/eC3wBwl9h/JEj9n3tPQadD1KJxLX33xfhrJuykjC/zLRvXliSt3rg91zp/bPpPUsayX43q1Chwn+YuXq3YuASNeKKnHB2uDHyU9MyI4axBkeyiYohz3H2cHB3k4+2Z778sHu4u8vH2tMSRRBwDRUXDutVV0tNdaenp+vHXP3Otcy7kkk6duyBJatG4luU4cQwUDVUqlpEkbd912LI09dXi4hMts9eq+18Z0CeOgeLhRsa56tb0t+wnuebPf3M9/7pNOyVJzRvVsuxTVxBTZy+RndGo0cMfsTrulTlGFh1rHefRmWNkTo4OcnXJfTleAMgPSTugmKpZvZIa1q0uSZowZWGONb+nzl6iC6ERKuHspN5d2hT4vLMXrVJ8gkkjh/aSg4P1W4wName8pbz34Amr43sOHpck1a9VtdD3AdzJ9h8J0tAxExURGaNeXdpo1ievWO2pcS0DenWQJG3YvFsb/tltVXb2fKhmLFghSer70P2WfSavJSIyRt8t+0OVK/ipd1fr3w3VKpeTq4uzQsMjLbMNJOlyVKzOnLsoZydH3ZP5BiOAgiGOAdtzcnTQ4Eczlnz/Yt4ybd6x36o8IdGktyfNV2pqmvwrllHHNo2tyoljwPZ6d2srKSPmPv3yR5nNZqvytLQ0TfzieyWnpMq3lJceaEscA8XNjYxz2RmNeqxHe0nSV9/+qjPBoVblf23dq7V/7pAkDejdUQX119a92nvohHp0aiX/SmWtyhrUyRgj23coyOp30u7MMbK6Nf1zLI8LAAXB8phAMfbWi49r8AsfaPeBY+o0YJzubVJbjg4O2nc4SCfPhEiSXnm+X67LAuQmNDxSP6zYoKqVy6lHp9Y5yh/u3FqzFq3Ur+u2qKxfKTWuV0MHjpzUD79sVAlnJ/Xp3i6XswJ3rzPBoUpKTpEkrVj7j1as/Sff+q8830/D+nW1/NyqWV099OC9WvnHNo15a7qa1A9QlQplFBEVo607DyopOUX+Fcvo2SE9Ctynrxb+KpMpWS8M621ZmieLvb2dHuvRXvN/XKMxb32uZ4c8LKPRoDmLViktPV39ut2nEs6s7QEUBnEMFA1PD+yuf/cc0Y7dR/Tcq5+pcb0ABVStoIREk/7594AuR8XKy8NNUyeMyhFXxDFge80a1NSwfl01/8c1WvjzOu0+cEzdOrSQl4ebzl8M16oN23X63EU5Oztq8jsjLHvLZSGOgdtnxdp/9OMvV2a2h4ZdliTNXrRSS1f+LUlydnbU/Cmv5mh7I+NcTw3sro1bdivodIh6P/mmWjWrq1JeHjodfFG79h+T2WxW1w4t1K5lgwLdh9ls1udzl8rBwV4jh/XOUV6/VjXVremvg4Gn9L8JX6lX1zYKj4jWZ7N+liQNebRTga4DAFczmK9+PQlAsXLo6Cm9O3mBDh+zXvPbx9tTLz37mHp2zpl8y8u7kxfo59/+0tT3X9CD9zXNtc6O3Uf02odf61LmJt1Z1/rw9afUulm967sJ4A712x9b9doHswpc/+qknSSlpKRqxoIV+nbp7zKZrmxibTQa1KF1Y7354hD5lvIq0PlDQiPUbfCr8q9UVsvmvJ/rW3/JKal6Z9I8/fr7Vqvj3Tq21IT/PSlnJ8ccbYC7Wf0OTyotPV1zJo/TvU3q5FqHOAaKhuSUVH0+Z6kWr9ggU9KVWDQYDGrfqpFeHz1I5fxK5dqWOAaKhmWrN2vGguW6eOlyjrJWTevojdGDc8yGyUIcA7fHV9/+qulzl+Vbp4Szk/5b+3WuZTcyzhURGaMJUxZqwz+7lJ5+Zcjb2dlRgx55UKOG9c6xqlReVm/YrnETvtLA3g9o/JjBuda5EBqhF9/5QgcDT1mOOTk6aOTQXho+sHuBrgMAVyNpB9whTp+7qNPnLiolNVVlfL1V5x5/GY23Zhp+SkqqDgSeVERkjEp6uqt+7WpW6/cDuPlMpmQdCDypy1GxcnVxVs3qlaz207rZLoRG6GjQOZnNZgVUq6jyZXxu2bWAuwVxDBQNiaYkHQw8pYjIGLm6OKtOQJUCr0xBHAO2l55uVuCJszp97oISTcny8nRT3Zr+Bdo3WiKOgeLiRsa5IiJjFHjijOLiTfL2clfdmv63dHbr0aBzOhdySSWcHVWvZlV5uLvesmsBuPORtAMAAAAAAAAAAABszGjrDgAAAAAAAAAAAAB3O5J2AAAAAAAAAAAAgI2RtAMAAAAAAAAAAABsjKQdAAAAAAAAAAAAYGMk7QAAAAAAAAAAAAAbI2kHAAAAAAAAAAAA2BhJOwAAAAAAAAAAAMDGSNoBAAAAAAAAAAAANkbSDgAAAAAAAAAAALAxknYAAAAAAAAAAACAjZG0AwAAAAAAAAAAAGyMpB0AAAAAAAAAAABgYyTtAAAAAAAAAAAAABsjaQcAAAAAAAAAAADYGEk7AAAAAAAAAAAAwMZI2gEAAAAAAAAAAAA2RtIOAAAAAAAAAAAAsDGSdgAAAAAAAAAAAICNkbQDAAAAAAAAAAAAbIykHQAAAAAAAAAAAGBjJO0AAAAAAAAAAAAAGyNpBwAAAAAAAAAAANgYSTsAAAAAAAAAAADAxkjaAQAAAAAAAAAAADZG0g4AAAAAAAAAAACwMZJ2AAAAAAAAAAAAgI2RtAMAAAAAAAAAAABsjKQdAAAAAAAAAAAAYGMk7QAAAAAAAAAAAAAbI2kHAAAAAAAAAAAA2BhJOwAAAAAAAAAAAMDGSNoBAAAAAAAAAAAANvb/5IfjEEoVakAAAAAASUVORK5CYII=;" parent="1" vertex="1">
          <mxGeometry x="204.71" y="744" width="218.29" height="123" as="geometry" />
        </mxCell>
        <mxCell id="zNm0QSZDJS1atimLN_gq-117" value="" style="shape=image;imageAspect=0;aspect=fixed;verticalLabelPosition=bottom;verticalAlign=top;image=data:image/png,iVBORw0KGgoAAAANSUhEUgAAAa4AAAIACAMAAADt1XirAAAAsVBMVEUAAAAAAAAAAAAAAAAAAAAAAAAAAAAAAAAAAAAAAAAAAAAAAAAAAAAAAAAAAAAAAAAAAAAAAAAAAAAAAAAAAAAAAAAAAAAAAAAAAAAAAAAAAAAAAAAAAAAAAAAAAAAAAAAAAAAAAAAAAAAAAAAAAAAAAAAAAAAAAAAAAAAAAAAAAAAAAAAAAAAAAAAAAAAAAAAAAAAAAAAAAAAAAAAAAAAAAAAAAAAAAAAAAAAAAAAAAAAk2wLSAAAAOnRSTlMAAwYKDRAUGBwiJysuMjY6P0RJUFdcYWZrcXZ4e4CDh4yQlZqfpKissLS4vMLHzdLW2t7i5+vu8vX6hRBzmQAAFpVJREFUeNrs3el+okgUhvEDoqKmXeIS97jEXdwgQJ37v7CZDz0zPd2aAmQpzfu/BJ5fiXqogtSlNRdnnzMi7HUnRxBY48QZczqoENSQFfChI0QgfVbCAiWCqAlWwxtaBHBgRbgGYkjVWRld1JCasjJ2qCFlsTI81JC6sDpw85JyWB0F5EAu5EIu5EIu5EIu5EIu5EIu5EIu5EIu5EIu5EIu5EIu5EIu5EIu5EIu5FLEidWBB3ml1qyMC2pIdVkZc9SQKvisihpqyE1YEVu0CCB3YiW4JloEUbJZAV4dJYIx95y58w90CEprHzlTlz42J4dSbg9GQQVq+zkKatjBykrSkgM44TohFyAXciEXcgFyIRdyIRcgF3IhF3IBciEXciEXIBdyIRdyAXIhF3IhFyAXciEXcgFyIRdyIRcgF3IhF3IBciEXciEXIBdyIRdyAXIhF3IhFyAXIBdyAXIBciEXIBf8tEIu5emlRnswXe6PjuAg7EYZZxRmoFDrjBeWwxE41mLcqeHdC+koNLpzy+W7udZHr4FoCTKb443DsXI24yYOs45drj5cO5wQZz1s4JYWl3xzYglOmLAmr3lc6zvlGpMDp0UcJlhl0ZV7W59TJnb9Cq58aPrr7MIZucxe8dKuEIzW0uVMecuWgQ5B5FornxXgr9ooJqE3lz4rw1828al4W3XmsmLcWRVdrikOTqyk86CIOv+nva4EK0usmxo9Ir3a7nZi/2e0MLRZcfaoSI+m9s/3gH1bo9hUF4IfgFjW6JEUVvyfU5ViobUsfhhWW6dHUbH5V+KN7mf0bH4odj//ILU++Td9ulNx7PLD8SZFUl/Z4T+80z3Mqc8PyZ+VSHGmzVfMNIqqNBf8sMRHLMH0YlGjJBTPfNVCUzSW+sGqs5NgFsfpD4pb4cg3rHUKz5THUp+YmxRdZcf/2pQpVvkD37QzQref+PwU/EmBIur4/Au/TTEyLP6Clacwcn2Xn4bbz1EUPf5Nj2KT2/GXjkUKrm3zU7HbGoX2xn/oU0z0DUucTQqoZvHTOdQopDZfMaJYaCuWsssUhLngp7Q0KYyW4GveY6n1wQE4LySlD3x+Uv5Qp8BeBV83ofvNOBC3ShKNMz+xc4MCavh8y4zuNeGAvAZ9pbjkJ7csUhA1n2+ba3SXEQcmmnST9uby03O7GklVPf7Kx129ehyCaNMN5T1/C/sySby4sjWqU2QtDqdL12h9n78Jf6DJphoyq8i9Sh6HNKA/lS3+RqwK3VayWW6jJ7Y3W/7bQev5/K34fY1uMC8cxDZHUZRYRj4AK+3529mXJDMomZ1BEQw5ioVO/2m7/A15HckMSmYfpdeOI1nn6Kf8klMnXOd8tKz9brvd7S3reHZcwalb5SUzKAkrQi+HJSRruXrhlLjHzXzcbdUrpkFXGGal3uqO55ujyymx65IZlMSaQhMsd3sApg0FJ87eznrNikGBGZVmb7a1OXFiqH0xg5J7izWXdABW2HKivP20U81TRPlqZ7r3OFHbwu0ZlNxnjkKyObJzy+bECGvaKlEMSq2pJTgxTl0yg4p3eW1YPd52UNMpRnptsPU4GaL3s9aCw9tSSF1Wi9gNqxolQKsOd4KTsMzR3+Ycga9ROAWf1WHPXg1KkPE6szl+xxLRlCMxKaQpK8IavlAKXoYWx81tjDmaMoVkXFgB+55JqTF7e1ZEicL64XHGDn2TUmb2D6wAoVNo9Ux7Oe8VykTl3eGsHSiC6uf33LytNdeCMzWmKCoOZ8EeFiljxUx3t4sSRVK6cOp2TY0UoDV3nJU5RWSeOFX+vELKqMx9zoKdp6gKB06POy6QUgpZbJ/2Xii6/J5TYvcMSpz6hxP4dbpHbpNOrDedlKS/pRpMvNJ99FVqsRBMNOPYh5Ksz16OlJbrfaZUq0UxmHKCvJFByjNGHqegQ7EYcVLErEgPoTgTnLQuxaTHydhW6GFUtn+xd6fdietIGIDLNvsetux9CSRhCWswGL///4fNmXNn5nTf6U6qZMkGXM/nfNIb2VKphOHWA1lzG8O+zx5dlN4nHHomi/oxLDs9B3RhgucTXBmRVd0TrFpU6QJVF3BjTAyZHYCFfbpQ/RBmnF2ddH8ANinSxSpOYN07I63MDsA+b+ii3XzCrplPDBkdgI0LdOEKYzDZuYSX4QFY2KUr0A1hzZKRVlYHYNMSXYXSFELmF7oyOwA73dLVuD3Bhk2RXAoWMLap0xWpb5DctkROFdYwNQnoqgQTJLWrkFPeDIZOA7o6gxMS2VfJrREM7Rp0hRo7JBDWyK0hDM2LdJWKcxg71MmtVgwzPzy6Ut4zDB2b5FY5hJFTj65Y7wQjYZmc8lcwsm/SVWvuYWTpk0sTGFlX6MpV1jAyPsNlxjygK2fePDsgZxonmJh4lAPeBCZOdXKkuIOJJ8qJJ5jYFsiNdxiIbykXzJvF3smJW8Mm4pwwbxa7JQfqJ8idupQr3dOZvL6CLeSiDuWHebPYJiDbxpoWSzs6h91XF3LHFuVQ6wi5LllVCiEWtYmIdH5xhCWyaWZ0xTanOieITcmiAcRON5RbN6dMi1GVo8kV2xzrxZA6lsmWOcQGlGsDiM0yrMPfUc7dZfYfXjpA6i/Kvb8gdShlVNl907SI3rIZth6kPnwNi8j/yGKzXNhDaFvUrP6tuIXQvpB+E+ihqkn9rXpI/TJ5PYZM3Nac/qt9gkxcp2SWEBpqSgm2QMuUt3svmtHPXlLdfBVCyHx4GtHPvA/IhIUU93r7kib0q9I+vQpDNdZlRtpXQOJqaqdc95pO8urhlAx1IDPVbGwU8dpkZgWRT61m/FbxEyIrMtLXF5cd7RgifTLgf0LkUXP5k0eI7Hz3r8il7rj+yFs678IOQkgcK5qKtWaXMCCpBy0VZlc8fCChwkHX8DZNIXEoOL1adixrIF8rHyHxJJ1c2qZm18Dl9HqCxFzTsN2s+ehuckW6KmSoRBA4BMR3r5VdtuwH1d9DYK0bZBZvDYG97+jSeEuT4Gm52cl6OwhMNAeuCQS2nou+3aOe97OVji56epd61+QcTpY/iKUJgY2uMwS8DQSa9q9OdDUDia71GynlGHwLTUBmAb64bLn+FDc0AJl6bLfQ6+3B96rjL/UKvr1ntaEm1rtBbltte/SdD/CNdfTlXmwuDargO+mhpIHyCXxVi5cYRnQWvN5kvvg/7w8VOk8j8P2gL3mhZHKd90eZTg+XP71Cj77Su7jJVTsK/zezN7K22Jhe3ORa4gvNi59eU/pCKb60g5PGJe4LJ2CLS3YqxnHtAmrcu8vfe93ZuSL0TmfhGV+J6Dy9W7k+VLu8I/8f+MrpCtoAqjaquyvSuBJY2ajzbsDW17iS6INtQ39Ql9SKNS4Z83OP+hevbaZH0rjSulD5nPhZGJc0LiHzHe4m8brwnTSu9NbytaT3JTsaV1KdpG+eFbh2pHEltku2aSoL4ta4Ul1slBPddo4rGldylRhcw0RnJwvSuCyYJzlF8SNwDTSudCsbkU//dAOuU6Bx2RCcwNVJ0FPzRhqXFW8JfkJ0Da6uxpX2/YY1/UMJXEdf47LDP4KrZPzeeyWNK/V++b5xt0dP47KlB66xaUkkCjQuW4IITDvTCtSUNC5rpuCqGL66hhqXPUPDl9cYXCWNy56S4ctrA6YVaVwWrYx2XoUYTM8al03PYIoLRgXDtsaVTX/ojUk/6NHTuGzyjibdoTMwTUnjsmpq8tHyEEx3Gpddd2AKTTbJdY3Lrjq4KvJK/oE0LssOYOrJl5NTjSuzl9eTfKVxr3HZdi+fKp9gamtctrXFRfkATHGgcdnmx2AqSLfWK9K4sisbtqRl/BeNy74X6dHVCExDjSvDM6+RtPu3oXHZ1wDTXNinEfsaV4ZrjZ3w79ekcTmwls2WGpheNa5Muw1rsorhg8blwgOYurIaflfjyrRV/k62jq9qXC5UwTQS1YRPpHE5cQLPVLQy2WhcbmxENcAQPDONy42Z5PzfB9NI43JjBCafiCpgutO43LiVrPXaYOpqXBmv5NuSyycNjSvjIm9PsksualxuFCWvo2fwRKRxORIJ7pOMwbPTuFzZCi55vYNnqXG5sgTPu+D7alONK+vW0A9BDWqscbkyBs9acPT/rHFlfYfyU9BTf69xuXIvuFESg2eocbkyAE8s6LjuaVyu9MDkUxFMHY3LlQ6YSlQBU1PjcqUJpgpVwVTXuFypgalKDTBVNS5XKmBqUAtMJY3LlRKYWtQGU0HjcqUApjZ1wBRoXK4EYOpoXGfA58d1AyZf43LFA9MNPy5P43JG47rS2dXRh2HmfF1qXOfK8Mr3XTVDVf9M910tMBUvMC5z8bx5ho2GLUE1OFdxAfEtpURyKlIDUy1ncSHuUDoEGQiqwXmLC+uza5KvUAlM7dzFhdq5/UheiQIwdfMXV+/cbgwF5IGpn7+4+pSOvqCyFIHnVuNy5VZwCWgPnkeNy5VH8OwFPxMw0riyvku+EdxWedO4XHkV3NmagWehcbmyAM9MEO1a43JlDZ5XwdfjQ43LlVDwLfl7MPkalxu+5CMZAzBVNS43qmAaSD5k2NG4Mr6AciMpBw80LjcGYGpIjjKfNC43nkQH+hF4XjWubHfJkeg3U5YalxtL8GxFe+pQ43IjFNWVJmAqaFyZtq1NZG+6lsblQku21uuDaaiH/y4MZf89TTCN8hZX46xOu9CU9ZAuchbXjlKxEPZRHy54afgjPwvDg/RjleVcxfWDUlGWfqh1AqZujuLa9ikdXQirSvcXXDWs9Zzo1igtT2C6l+Y7I2XdTPpsq4Ap1MG1LxTf2IrAVNXRzewoORKXhNHX4c2sP34p/475WIfXtjGYXuRVq40Or20becW2Aa6ijq9dRYMCph+DqacDbFcPBl/wX4HpRQfYrhdZCepvL/ryysjGZKIMwFXREbapAq6ByV4NQx1im4YwqlAcwPSmQ2zTG5gOZnXGo6djbI93NKuu34Oro4NsTwdc92afdcBIB9meEcw+aeJFYNrqINuzBVPk0S/m4KrrKNtSB9ecfvUAricdZluewPVAv2pCCxup28D0a1zeAVw1HWc7quA6ePQPb/o0TNsTzIsTQ+jaMGXbBKW/CtiaOtI2NJGksL7WnfK57pHXidqXQ60bWuCFibr1W4C2AKSoB7bW79PW5usUzRI+zV7BFZd1tJMqx+B6TXZzBXjU4U7qEUh2T8s/gutTFxsJeZ/gOvoJT6KBrg54Ml2wvSVfq8x1wJOZJ1+HBxG0zpuOGtii4Iu+HL2Lkoox2N5sPFAjvdyQQDGysUzwDmB70EE39wC2g2dljoa+jropP7Tz1mmD71aH3dQt+Np2Tsyw1a2yIU8yyt8+VPVeuWN98D3YKjxio9PLiLeBtWL6XKeXa33Yqx71oNMrs8klPwj29jq9zmdy7T36xjP4djq9xLwd+J7pO5VY917nsueKK/StKfj2gY6/TLAH35S+dwNAG7BdeYTADTFswBdpk41IOQLfhjiGEJhoBBJjCAyJIziAL25oBnz1GHyHwMGvR39oCHwfLn4YvXyC7pVd6EPgVHbyhN0XNAeewh4CY+KqxgD0/pBtIwjEVWJ7h642rGvEEHgnviYkVlo6ZPBWkGiSwAwSdxrG9+4gMSNyNr0i/RzAtyqRcHKJzCGx0Di+s4DE3OD7lXqSYs8tRFokNNfHYXaPwjlJNSCy1NXhF7wlRBqGPxOrPfNWPEDkjeSqMXSzbG2DLC1oyI0hstVGgD8IthAZm558irxqML83AZDCCf0TAD1KSawPmSfzrh2RSC8s/0YtApBKd9kAMht9ff2fYAOZAZny1tDXV0KvkFl7ZKwFaDEqkVsItdL834jbmtDP2nGqz6fyETKhfuDrJ5UQMscyJXIHobUuN/4nWEPonpLx1hCaarH3P7wp5OuMhFoxhP7SoP72A0Jxy+K3R/WDhzJDSI3tNDMKxTeaFdFNDAb7DbY9SEX6YQBqRpDqkRXvkAqrlHPVEFLvZEfpAKldmXKtvIPUoUSW9CG2KVKOFTcQ65M1U4gtA8qtYAmxKdlTCiH2EeQ2rQ+IhSWyqAu5RU7z8heQ65FVE8jN/VymNYfchOwq7CA3DzQtll2BLGvF+jxkCBaQi1tOOlF1vcFdZWTfAe0tYGBVpBwprmBg4ZED5RAGNmXKjfIGBsLyv9q51yVFcTCM46+cFLpVGtFRWlFsuxt1PAAqyXP/F7Zf9sNW7dbOTDhIAr8rgPyLIhySyt4xC0htagk7gYDqvl8sIeI2olYY3SBiSVXp7SGCedQCHoOIfY8qY6UQweekvDmHiNSiCg0ZhEQ9UlovghA2pEpNIWZvkMKMPcRMqWIbiLnYpCz7AjEbqlrvCDEPjxTlPSDm2KPKWQnE8ICUFHCISSyqgfOAoNgk5ZgxBD0cqoXLISgdkmKGKQTU+zfmDKLYnJQyZxA1o9qEEBZbpAwrhrCQarSDsMwlRbgZhO3q/n1E3EYjBWgbiDtoVCvjDHGXV5Le6wXizgbVzLpCHF9qJDVtySEusah2gwwFnIckseEZBWQDegLnjgL4WidJ6WuOAu4OPcXwgSJSj6TkpSjiMaQnGeUo5LNP0ul/opB8RE/jMhSSBxpJRQtyFMJceqI3hmKuHknEu6IY9kYkdS8cXkgSLwdIXovIzVEQ3/ZJAv0tR0G5S083zlEUW5vUcGbIUFQ+pgYYPVDY412nBtODMs5xRI3wekNx93eDGsp4v6O42ys1hJOilGAmNZBZSiykDjXG4IoyPNZ9apj++oEyXAfUINYJpeC7V2qQlx1HKU4WNYoeoyRHr0eN0POOKEmsU8P0PlCWJLDo6awgQVk+etQ8S5SGf7r0VO4nR2mW1Eg+Q3mS5YCeZLBMUB7my7R+UBw/zEyqnTk7cAiQce3o4IJSse+JTjXSJ18MAmRdeGPEQNnFpibVwpx+M5QsNqjZVigdPy5sqpi9OHKUbkWNN8lRgWs0MagixiS6ogL5hCTgXFEJfgo9o/RUXnjiqMTVISkYn6gKP0W+TSWx/ejEUZVPQ6ldC8Td9qFvFy0V7m8QoObeFKMUFctPu4XnaPSHNMdb7E45KpaOSCrmF+rA08PHcvrmmPQLpvM2XX4cUo46fJkkmxlDjVh6Onxt18tgPvP9ycTzJhPfn82D5Xr7dTil9R7LjCTknNFKZ4ekpIUcrcNDjWQ1StAyyZgkpm/RKlud5OYmaI3EJenpEVoi0kkF4wta4DImRWjvDIpj7xqpwz5AaQeb1OKnUFbmk3L0kEFJLNRJRXYMBcU2qco9QzFnl1Q2zaCQbEqK04M7FHEPdFKfGeZQQB6a1A5WxCA5FlnUHv2IyR2rT+3S3zBIim361D7W6g4J3VcWtZOxyCCZbGFQe2nTMyRynmrUcuNvDinw7zF1iAbhDY13Cwddqb9p/hGNdvS1rtI/OesMDZWtna7Pv/S8b97EO5bX69r8N/PHEY1y/GF2Vf7PIDijIc5BN7v4DXZwwtOdArsr8bsG8z3D07DDvLuu/pA++cjwBLePid6NvpCXxYHVe1ktXrpRL0JzV0eGGrDjyu2ehcugjYP4hgrd4mDcpSqV7Uc/c5Qu/xn53RywGj3HX+8zlCTbr32ne2VRNWM028QXBmHsEm9mI6MbyTr1x9Pldn+547fdL/vtcjrud2P3RNpg6E0Xq2gXH0/nJLs/csYBzvLHPUvOp2O8i1aLqTccKDCZ+Aslf6cqOJMv8AAAAABJRU5ErkJggg==;" parent="1" vertex="1">
          <mxGeometry x="154" y="52" width="25.2" height="30" as="geometry" />
        </mxCell>
        <mxCell id="zNm0QSZDJS1atimLN_gq-118" value="Record time spent on stage 1 (limit: 40h) and stage 2" style="text;html=1;align=center;verticalAlign=middle;whiteSpace=wrap;rounded=0;" parent="1" vertex="1">
          <mxGeometry x="187" y="52" width="163" height="30" as="geometry" />
        </mxCell>
        <mxCell id="zNm0QSZDJS1atimLN_gq-120" value="Share results using Quarto site" style="text;html=1;align=center;verticalAlign=middle;whiteSpace=wrap;rounded=0;" parent="1" vertex="1">
          <mxGeometry x="565" y="52" width="115.72" height="30" as="geometry" />
        </mxCell>
        <mxCell id="zNm0QSZDJS1atimLN_gq-121" value="" style="shape=image;imageAspect=0;aspect=fixed;verticalLabelPosition=bottom;verticalAlign=top;image=data:image/png,iVBORw0KGgoAAAANSUhEUgAAAa8AAAIACAMAAAACFxOVAAAAmVBMVEUAAAAAAAAAAAAAAAAAAAAAAAAAAAAAAAAAAAAAAAAAAAAAAAAAAAAAAAAAAAAAAAAAAAAAAAAAAAAAAAAAAAAAAAAAAAAAAAAAAAAAAAAAAAAAAAAAAAAAAAAAAAAAAAAAAAAAAAAAAAAAAAAAAAAAAAAAAAAAAAAAAAAAAAAAAAAAAAAAAAAAAAAAAAAAAAAAAAAAAAAAAAAjHWqVAAAAM3RSTlMAz/++3YDH+M38FWsBVeY+j4c2tSidp7xa4XfWo8swsJZ7xEogwQ5x6kMH7htiBFALE/Imtr/RAAAI2klEQVR42u3d2VIiWxaA4e0qNQtEcJ6qnFGZRd7/4Tq6oqPjdBwJUPaGpM/333uzvsgUkh250vea9m8ubq+rRih7jdn1/u+b/jTl6uPgsjLW0lWn49eUobNzWGtq9tBNK9a9cA9cY43zUVqhyaNra83N3ibpu53dmt/6e+mm7/U+M7xN1Ouk73TgP9eGqq7S13szt43VGKevNja1TYIdpq/VdzPcaNVJ+krdnpFttnYzLV/rh4Ftuvu0fAfGtfmu0rI1h6a1+drTtGRHhlWH9tJyNT00rEXD17RUe0ZVj97SMk3aJlWPfrXSEvUNqi6dpCV6MKe6dJyWaNec6tJOWtzImGpT4zUt7N2Y6lM/LezRlOrTQVrYecxvd0d/qmJOjZ0vdx3zO0oLO415tTtJCz6TzdLX6w9jXhdpYU8xr3dOeb0W/5Z/mhZ2G/OacirjNYp5XaaF/Yx5TTiV8fqIef3gxYsXL168ePHixYsXL168ePHiJV68ePHixYsXL168ePHixYsXL168ePHixYsXL168ePHixYsXL168ePHixYsXL168ePHixYsXL168ePHixYsXL168ePHixYsXL168ePHixYuXePHixYsXL168ePHixYsXL168ePHixYsXL17/dK+nmFMDUx297mNObUx19Dqe+7eY6uj1HHPaw1RHr8EwPu8MU328Ft8QLynV0+ujF5/UOKFUT690GJ90BKk+XovviKe+LNfXq3X8N64po/p6pXQ1jL9U7bm66u2VPo5n/9X67ZN87b1Smr4fXe7svJyPm3iKe3mmxEu8ePHiJV68ePESL168eIkXL168xIsXL17ixYsXL/HixYuXePHixUvb5DU4eX5fsX6T15q8Rg/DyNDTM691eB0OI1MXU17FvcaRr6cpr8JenUZk7IJXWa/pdWTtkFdRr5vI2+6EV0GvSTvCBbY9Xs+Ru1NeBb0eInfVgFc5r9vI3gmvcl6zyN4Vr2Je08jfDa9iXs34ft5kuX6vV9fXVnm1qsjemFcxr/QrstfhVc7rPHLXeOVVzusqcvfk+UZBr+ksMnfAq6BXOoq8Dae8Sno1h5G1N79/FfVK48jZ/oRXSa/Md8TdkfMApb1ax5Grna7zUcW9UursR456jwPnD9dzvvds/Li3Ym/9gfO9zs/z4sWLFy9evHiJFy9evMSLFy9e4sWLFy/x4sWLl3jx4sVLvHjx4iVevHjxEi9evHiJFy9evMSLFy9e4sWLFy/x4sWLFy9evNbnNZiuWIvXurxa76e9WLVqZ6/Jax1e3afI02zMq7zXXS+ydcyrtNeo7XXLW+TVuoycVXe8inodxrfyHWFDXj+tQ9wmr7vI3Tmvgl57kbtei1c5rx+RvTNe5bx6ERacb4/XIP6djTfb4vVhP+w/3uuRVzGvSSPCgr3t8Uq7kb1nXuW87iN7I17lvA4id7883yjoNWrEn/wEthVe+W+IjS6vkl53jcjag99TCnplX8Dc/uBV1mvwFPmqOs4DFPZKry+Rq9mz8zbFvdJgr4osvZw5z7aW873Ng4uX/RU7PT5xvtf5eV68ePHixYsXL/HixYuXePHixUu8ePHiJV68ePESL168eIkXL168xIsXL17ixYsXL/HixYuXePHixUu8ePHiJV68ePHixYsXL17e9+V9et6n532VvLwP1vuWvW/Z+8x52RdgH4d9HPbd8LJP6v/K69q+NvsQedk3yss+X/uy7cu2j57XX7wuI3tnvMp57UXuei1e5bzuInfnnm8U9Eo/I3MnvEp6Hca3coZnQ16ty8hZdcerqFcatX352iavdNfz49c2eaXuU+RpNnaebQ1eqfV+34tVq24fm86Lru089mC6Yi3nsZ2f58WLFy9evHjxEi9evHiJFy9evMSLFy9e4sWLFy/x4sWLl3jx4sVLvHjx4iVevHjxEi9evHiJFy9evMSLFy9evHjx4sWLFy9e6/M6Gz/urdhbf8BrPV6d/chR73HAq7xX6zhytdPlVdzrKPK1O+JV2GscOduf8Crq1RzadrNNXkeRt+GUV0Gv6cx6vW3yuorcPfEq6HUeuWu88irn9Suy1+FVzKtVRfbGvIp5vUb+bngV82raD7tVXlPX11Z5pVlk74pXOa/bCAsRt8jrIXJXDXiV83qO3J16vlHQa9K23nybvNJN5G13wquk1/Ta5bVNXqnTiIxdOA9Q0iv3gYCnKa/SXulwGJm6mDofVd4rjR6yiD09Oy+6pvO9g5Pn9xXrN53Hdn6eFy9evHjx4sVLvHjx4iVevHjxEi9evHiJFy9evMSLFy9e4sWLFy/x4sWLl3jx4sVrbtP+wd7e2/sHnW3w6lxU8afGy9UEUM29Rvfxl3ZOCNXaq9OL/6kaI6qxV7/y0vIt8uoO4++9Q6qpV2s/Pqnnc2JNva7i044o1dPrZ3xa9Yqpjl5n3oK9VV4HMaffmOrodR5z+oWpjl6nMachpjp6/Yg5VZh48eLFixcvXrx48eLFixcvXrx48eLFixcvXrx48eLFixcvXrx48eLFixcvXrx48eLFixcvXrx48eLFixcvXrx48eLFixcvXrx48RIvXrx4YeLFixcvXrx48eLFixcvXrx48eLFixevbfJ64cWLFy9evHjx4sWLFy9evHjx2nKv25jXlFMZr1HM6zIt7Cn+ZCX9+rzGMa/TFfaNRq8DqoTX8zDmdZEWdh7z293Rn6qYU2Pny13H/I7Swh5DtekgLezdlOpTPy1sZEq1qfGaFrdrTnVpJy3RgznVpeO0RH1zqksnaYkmbYOqR7/SUu2ZVD16S0vVrIyqDg1f03IdmVUdekxL9jE0rM3XnqZlOzCtzXeYlq71w7g23X36QqOegW2264/0lfo+I2606iR9rbGZbbDGe/pPPnNsA9dV+nrjhsFtpuowfadnX8M2UruTvlf31vDW3+UofbfJo4+Ja2520Eor1P3tv9gaa5w304qdnbvG1tTsoZsy9Dq+RFa86nQ8Tbma9h9/77cr98YCNWbX+79vOp9j/QvVNu6ZuKnjYAAAAABJRU5ErkJggg==;" parent="1" vertex="1">
          <mxGeometry x="381.85" y="47" width="33.67" height="40" as="geometry" />
        </mxCell>
        <mxCell id="zNm0QSZDJS1atimLN_gq-122" value="Keep logbook throughout" style="text;html=1;align=center;verticalAlign=middle;whiteSpace=wrap;rounded=0;" parent="1" vertex="1">
          <mxGeometry x="423" y="52" width="97" height="30" as="geometry" />
        </mxCell>
        <mxCell id="dw4k_AJUnQcpkPwM-7J4-1" value="" style="shape=image;imageAspect=0;aspect=fixed;verticalLabelPosition=bottom;verticalAlign=top;image=data:image/png,iVBORw0KGgoAAAANSUhEUgAAAgAAAAHCBAMAAABrnmzrAAAABGdBTUEAALGPC/xhBQAAAAFzUkdCAK7OHOkAAAASUExURQAAAAAAAAAAAAAAAAAAAAAAAOArGaIAAAAFdFJOUwAqWZDOYxQ5eQAADGZJREFUeNrtXclyo0gQTRC+lz3mXraaO7LEHS3coZb//5WZOXTETDtZhGtLknfs6LDg8XIvEoiB19fPf/H6CuyQvZ0vnf0PHudPAVzwenxYDOb8weHZHzs7DnOWsGnkFzsH/cHo9nGY00bFf7FLYbaogqN9Bne5NfV39kl8wZbwyz4PLbdj/Y1dhRMj+eO4CdgA/rLroSUf88dhJCPzx3FidP84TozuH8eV0f3juJG+f8YaaKxlzUBlHeLEKP7jqIEY3q1jSCCFg3UNI4AQss46h2YUAHAoRgEAx5WcA2DqCDPrC0bwcQA4FMEMgF0+lNuFeJy/Pj8//h2RH88PuxRiGwZgvj6+jYwv2zCC9yV3LwBDtoiDlnoEMKfJ8Sn1SFD9dPKbXUgbwcHBwC9vCEeCzk5Bi4WjlG5aRVQ94MlVN/FK0gNq6W6eJgh6QO1yoqro5YA3t011SU0AJ8d/TxETwMl5Y7kmVQTU7lvrmlIOdPIxXKjpeICTl7+qyXiAqydeayICUL5ci6YhAO1vxlJTEIARQbiNj8xnxnYgkA6WXsu2Mv10sPN7hU3qEihGHIBnFzskngXXvhm2IukYqPxHmTZlF2iE/zBjUo6BbQg3U6frAnUQP6PSdYEyjKMRqbrAIZCnaVN1gSLQyTOdaBZ4DeZrZJKtMBPO2QxJWkAblev4FmBCxps6QQtoQ/6YSs8CTNiUQyRnAW1UvcW3ABM461SpWcAQkPD4NtCFvp4mrTiQB89MirRs4AXJTcNrLqlKWEfwOnVKvaA2wm8OKQXBGFM4k1AQHKKwLtMJgjLKr/bJBEEdR3c6mXZwH8n1JnMoQEQKvnUiLkDHUt6QiAtoY6UfOhEXIGLaXvZ2PF8e/+B+/vyIcxk6HvW3yx/2eP8S4V1An9bLufeP0C5ApvZ6ujkF1aEJ736irmgtI8aiLIWVfE3MbKRJYCFd1Hz0Jf4Sojxqay6Pv4zsJe6AorPPQIeIRDLlPVVaeHdDJu0tHdq7D1SJ7+nTvr1Qm/qeQuU5F5PJ72m8es0DDYE9lbVPN6Qo7OmUHn1gT2FLk/ZYjdQk1rQN/sYzgsaautpXIqyJbOkywlMQGKis6VOefFEbtgKMbwRIgCGyp1T7CQKE9nRefVijprSmUHioBFSaDgDH4CEK9qQWFUv39liTWtSr3EdBSWtRr3TekkxlDmIe/8CrBPAL0ikYwP3z9fflvR07rxI4dmGDQLFiEvx28SMBfN1hH9kA7gJdzulFAm+YuNqoBnAXo9fqJheYZ1VGjABGruqfibXqRyHiDcFuSyZIjkSbjf61aDWAkWt3cxqXnw3U0faUivXbSWuHnw1UkTzg7ScSUg7HsUOcIvD6Mw6Fu3F0H2UMcP3hH+ndjSPqGCHg9tNa2qy6/9BpQOnE7xzw5+ZsHCXCBwHtgMfBWS0WPg/WwoUvcdWNNMF7gUY4yafrlfEfl2PSWyNwJSlH3VgVuht2deVMHHVjh8AnApWzmqJ2cx6hD9sP0u5SisHNOKYN2xGV7hprZqUDCDwUKB3R3T1/6V0SH8HLHXnc4mkbKBP5/FeFZABuAoF2Mo8MeTKkdlxYCBcn0gKejR9C7nt4D334bt56jfPCQk3SFePtPByIATjKKn88jxMBV1UMITc+5Mu+GxgImaMzfi/L09gqpvTxy6l99FfUyhMJdxn8VX3lp7gGHE3M28cvSPiZtMvnBWA+IDyK1lOPsX9aADegjGqRE8gnx5HeEf+d92pqHEkb2ZJyIN+o/HHrbp8og69AGnguNCyvAk6wAeTzxVyx2eeP1wOIlRC4f4+vvecrxh+kA2G7yAVq2AqyOS/YrRhHknYCesVhArqYf++7WjH+I+4EBGohuEg2mQnUDr5kQtoJtHMWMMC2UE3cX7bxCIC/+R33Ew7xF2KbaQswsCHgMhfzM/Rte0E5VQdo2B6qUSN/YSEAKEc7ww0DD4AkO8OKATpp5GNmfuAhAICxuyyJJIHe3n1u0CqAQRgQK5aWk0aJh7oDAxeIh/t2LAuAjeKAJwIN0gneJnLc17PIAtFbVSOFAGwWHebsCxYWgFq7wdOgFjaLCtN6g/UJmCQC4xMTJomAwPLAHraLAkn5D2yCIHKzNZYHwoaRIwSUjFwAZEjAaxi5AADkZjtEFYwIwKcFbHLhASDH+mRscuHhe2BQrAhQI2tC2RQDCmmTsSJAA1RYP5hNNaS/pwHAiwC8R8KnHDRIl4wZARkSBFgRkGPtMEYNAaRA5kUA0iLhRQDSJGNOAHAjoERqQU4EILkxbwIUNwK+NQh2ApgT0LMjoEMI4FQL/ElAy44AuxPAqhaCcifgf9DsCKh2AtgSgE+GdgIQAlhNhzECWJ0P2AlAMkFWZ4SwWoDVKTFu1eCBOQHIGIRXRwgZg6AEMDotzq0r3MwRoHklggZpELDKgzTSIuKTBuDHBHmlAT0SGFmlAT2SGrGKgvV3AlpWUVB+dws9pyhoxff6cOBUDFssMnIKAhrLjTiVQgrzC4LPUMAO2D9KRkGgxWTRMvKBNbpeio8PtAKA0UtT+EvCrF6bq/CQb9mEAYtYe5RXZ19HEHqvcIsLowevyC4T3/AK6wJqvETUgR5D2F3u+K4UfIuO5/uPxUA2tjPxEHCVXtbF+5z1Af2pwEtUyogf8y1H77ML9hAyOw8T7CMr9ehW6VACwFEHsgArRsODDPQQcOhA5JtxbvpQbgiHCEP+MB6adGAL8FyQz68NRZ5BIAsIFwkrO2HoDUJOkBiAwwT5bTOVJKugLiCEAAtEZ5MRwlsxEikQdpOeJgvjh0q7EG0I8clJfpTHamwefYCfNjPPRsQkYAhQgw4zLqINGQW966+a8DPz29XpE5BjkWbu2iRlAuYFoGcd9ECcgCc/IlXYb9gOAc2EBcx/ZYU+AQVacs+zpOkSMN+G7JekqfU2CKgsArkkUmiqBMxXYHrZ1UmiBMz34dtllYreAAGVxSAWSqUmT8D7E38fMxXqBOQWRb1YLC1BAuYHcWa5uzSCNAHNc9U2eimUCagsDvnM/6/pEvDr2b9+wOf1VAl4f7rlil+gokXA/P3rZ7u2V5IE/LJjaFdETToEzN+/WRE2JDUCsmblzKEYIU3SIiCfuH+zbnopKRHw19TvtCuHVyc6BPyyEzCrT/HdiBCQNz+bOlZ2DFpSIOBoJ6F/NMK/idQJeOt+PnefVNCXSJmA/OLi7xZ2EvePVAnILnYW0slVPv6Pe1QCssdv2HlcV8xR5mHiEuDhSjv7FHRcE7DLUa+ZJMxDUSFggKVoKBHQrVCqWwkMXghw/7Skg2Yiip4GAVd4AhkhAiovmcW7XY42NQKctHYbMgSUDhwAgnxFdI1DwIuns8fvRAlw19dutkPAzevLDVamToCCdTjQIKDw9w7a+yYI0LAe1QYI0P7P94uUCVAOJkyJE3Bw5P9xZB0JAjxOc7KGMAESwAUDVAnQEtygoUnADZzhSJGAEzhE3lELg1q43vxDKhEyJ3COt44OATcBPnDsCBCAOH+nFKRPgPkAn3i7pN0QMSfwjrfz4w/EVsDjN85+nj6l0+I7ATsBOwE7ATsBOwGJIDt21iHuX0ALeWcdQ0taS7zdwwhC+u+sB2ggg9J6QUtGANYPDJ0t9p5QAw001hMGMhbA2wYO1hsEFRfA2wlU1ht6Kj6QtxfsrDcooAC7E+ANajeBnYA9Cux5wJ4J7rVA4si5V4PQsQoCuBfk3RQsrCfIvSnKuyk4APC2AQlUkPmzAM5xoOc2HMXTQL65kAJKKDy5QMZuUAMtlB7TYJYloQFqqJwLgLcEBJBD46UM4JoMCQDWEhiAIgovSRDLfFgBTRTMBQCZ+yyYZz5cA7CWgAbgLYEagLUENABvCbRAGTmjOhhH5UAArCVgAHhLoAVgLQEDwFsCVwDeEhCwATR8GiE4Dg4EwFQCAwBvCQgA1hIYAHhLQACwlsAAwFsCAoC1BAYA3hIQAKwlMMC2UDAXAEC3QgCcJSAAWEtAAfCWgARgLQEFwFsCcl+mxlsCEoC1BBQAbwlIANYSUAC8JSABWEtAAfCWgARgLQEF20bBXACQdbwFAPDOWQDzJ+c0bB/lzKFI1hLQwAHlpABYS0ADD5QTAmAtAQ1cUI4KgLUEDPBBhZ+K5YMcFwBvCbTACTkmAN4SGIAXDsg8nBcatgLAe2MS2KFDOmF8JVADQ3SIALgGAgksUSGvRrEMhTdgi1/Il+J5Ifv8iJwC/g3pupkVvUmckAAAAABJRU5ErkJggg==;" vertex="1" parent="1">
          <mxGeometry x="480" y="790" width="60.45" height="53.13" as="geometry" />
        </mxCell>
      </root>
    </mxGraphModel>
  </diagram>
</mxfile>
